<svg version="1.1" xmlns="http://www.w3.org/2000/svg" xmlns:xlink="http://www.w3.org/1999/xlink" width="676" height="613"><defs/><g><text fill="#eeeeee" stroke="none" font-family="Arial" font-size="24px" font-style="normal" font-weight="normal" text-decoration="none" x="0" y="0">UNREGISTERED</text><text fill="#eeeeee" stroke="none" font-family="Arial" font-size="24px" font-style="normal" font-weight="normal" text-decoration="none" x="0" y="30">UNREGISTERED</text><text fill="#eeeeee" stroke="none" font-family="Arial" font-size="24px" font-style="normal" font-weight="normal" text-decoration="none" x="0" y="60">UNREGISTERED</text><text fill="#eeeeee" stroke="none" font-family="Arial" font-size="24px" font-style="normal" font-weight="normal" text-decoration="none" x="0" y="90">UNREGISTERED</text><text fill="#eeeeee" stroke="none" font-family="Arial" font-size="24px" font-style="normal" font-weight="normal" text-decoration="none" x="0" y="120">UNREGISTERED</text><text fill="#eeeeee" stroke="none" font-family="Arial" font-size="24px" font-style="normal" font-weight="normal" text-decoration="none" x="0" y="150">UNREGISTERED</text><text fill="#eeeeee" stroke="none" font-family="Arial" font-size="24px" font-style="normal" font-weight="normal" text-decoration="none" x="0" y="180">UNREGISTERED</text><text fill="#eeeeee" stroke="none" font-family="Arial" font-size="24px" font-style="normal" font-weight="normal" text-decoration="none" x="0" y="210">UNREGISTERED</text><text fill="#eeeeee" stroke="none" font-family="Arial" font-size="24px" font-style="normal" font-weight="normal" text-decoration="none" x="0" y="240">UNREGISTERED</text><text fill="#eeeeee" stroke="none" font-family="Arial" font-size="24px" font-style="normal" font-weight="normal" text-decoration="none" x="0" y="270">UNREGISTERED</text><text fill="#eeeeee" stroke="none" font-family="Arial" font-size="24px" font-style="normal" font-weight="normal" text-decoration="none" x="0" y="300">UNREGISTERED</text><text fill="#eeeeee" stroke="none" font-family="Arial" font-size="24px" font-style="normal" font-weight="normal" text-decoration="none" x="0" y="330">UNREGISTERED</text><text fill="#eeeeee" stroke="none" font-family="Arial" font-size="24px" font-style="normal" font-weight="normal" text-decoration="none" x="0" y="360">UNREGISTERED</text><text fill="#eeeeee" stroke="none" font-family="Arial" font-size="24px" font-style="normal" font-weight="normal" text-decoration="none" x="0" y="390">UNREGISTERED</text><text fill="#eeeeee" stroke="none" font-family="Arial" font-size="24px" font-style="normal" font-weight="normal" text-decoration="none" x="0" y="420">UNREGISTERED</text><text fill="#eeeeee" stroke="none" font-family="Arial" font-size="24px" font-style="normal" font-weight="normal" text-decoration="none" x="0" y="450">UNREGISTERED</text><text fill="#eeeeee" stroke="none" font-family="Arial" font-size="24px" font-style="normal" font-weight="normal" text-decoration="none" x="0" y="480">UNREGISTERED</text><text fill="#eeeeee" stroke="none" font-family="Arial" font-size="24px" font-style="normal" font-weight="normal" text-decoration="none" x="0" y="510">UNREGISTERED</text><text fill="#eeeeee" stroke="none" font-family="Arial" font-size="24px" font-style="normal" font-weight="normal" text-decoration="none" x="0" y="540">UNREGISTERED</text><text fill="#eeeeee" stroke="none" font-family="Arial" font-size="24px" font-style="normal" font-weight="normal" text-decoration="none" x="0" y="570">UNREGISTERED</text><text fill="#eeeeee" stroke="none" font-family="Arial" font-size="24px" font-style="normal" font-weight="normal" text-decoration="none" x="0" y="600">UNREGISTERED</text><text fill="#eeeeee" stroke="none" font-family="Arial" font-size="24px" font-style="normal" font-weight="normal" text-decoration="none" x="200" y="0">UNREGISTERED</text><text fill="#eeeeee" stroke="none" font-family="Arial" font-size="24px" font-style="normal" font-weight="normal" text-decoration="none" x="200" y="30">UNREGISTERED</text><text fill="#eeeeee" stroke="none" font-family="Arial" font-size="24px" font-style="normal" font-weight="normal" text-decoration="none" x="200" y="60">UNREGISTERED</text><text fill="#eeeeee" stroke="none" font-family="Arial" font-size="24px" font-style="normal" font-weight="normal" text-decoration="none" x="200" y="90">UNREGISTERED</text><text fill="#eeeeee" stroke="none" font-family="Arial" font-size="24px" font-style="normal" font-weight="normal" text-decoration="none" x="200" y="120">UNREGISTERED</text><text fill="#eeeeee" stroke="none" font-family="Arial" font-size="24px" font-style="normal" font-weight="normal" text-decoration="none" x="200" y="150">UNREGISTERED</text><text fill="#eeeeee" stroke="none" font-family="Arial" font-size="24px" font-style="normal" font-weight="normal" text-decoration="none" x="200" y="180">UNREGISTERED</text><text fill="#eeeeee" stroke="none" font-family="Arial" font-size="24px" font-style="normal" font-weight="normal" text-decoration="none" x="200" y="210">UNREGISTERED</text><text fill="#eeeeee" stroke="none" font-family="Arial" font-size="24px" font-style="normal" font-weight="normal" text-decoration="none" x="200" y="240">UNREGISTERED</text><text fill="#eeeeee" stroke="none" font-family="Arial" font-size="24px" font-style="normal" font-weight="normal" text-decoration="none" x="200" y="270">UNREGISTERED</text><text fill="#eeeeee" stroke="none" font-family="Arial" font-size="24px" font-style="normal" font-weight="normal" text-decoration="none" x="200" y="300">UNREGISTERED</text><text fill="#eeeeee" stroke="none" font-family="Arial" font-size="24px" font-style="normal" font-weight="normal" text-decoration="none" x="200" y="330">UNREGISTERED</text><text fill="#eeeeee" stroke="none" font-family="Arial" font-size="24px" font-style="normal" font-weight="normal" text-decoration="none" x="200" y="360">UNREGISTERED</text><text fill="#eeeeee" stroke="none" font-family="Arial" font-size="24px" font-style="normal" font-weight="normal" text-decoration="none" x="200" y="390">UNREGISTERED</text><text fill="#eeeeee" stroke="none" font-family="Arial" font-size="24px" font-style="normal" font-weight="normal" text-decoration="none" x="200" y="420">UNREGISTERED</text><text fill="#eeeeee" stroke="none" font-family="Arial" font-size="24px" font-style="normal" font-weight="normal" text-decoration="none" x="200" y="450">UNREGISTERED</text><text fill="#eeeeee" stroke="none" font-family="Arial" font-size="24px" font-style="normal" font-weight="normal" text-decoration="none" x="200" y="480">UNREGISTERED</text><text fill="#eeeeee" stroke="none" font-family="Arial" font-size="24px" font-style="normal" font-weight="normal" text-decoration="none" x="200" y="510">UNREGISTERED</text><text fill="#eeeeee" stroke="none" font-family="Arial" font-size="24px" font-style="normal" font-weight="normal" text-decoration="none" x="200" y="540">UNREGISTERED</text><text fill="#eeeeee" stroke="none" font-family="Arial" font-size="24px" font-style="normal" font-weight="normal" text-decoration="none" x="200" y="570">UNREGISTERED</text><text fill="#eeeeee" stroke="none" font-family="Arial" font-size="24px" font-style="normal" font-weight="normal" text-decoration="none" x="200" y="600">UNREGISTERED</text><text fill="#eeeeee" stroke="none" font-family="Arial" font-size="24px" font-style="normal" font-weight="normal" text-decoration="none" x="400" y="0">UNREGISTERED</text><text fill="#eeeeee" stroke="none" font-family="Arial" font-size="24px" font-style="normal" font-weight="normal" text-decoration="none" x="400" y="30">UNREGISTERED</text><text fill="#eeeeee" stroke="none" font-family="Arial" font-size="24px" font-style="normal" font-weight="normal" text-decoration="none" x="400" y="60">UNREGISTERED</text><text fill="#eeeeee" stroke="none" font-family="Arial" font-size="24px" font-style="normal" font-weight="normal" text-decoration="none" x="400" y="90">UNREGISTERED</text><text fill="#eeeeee" stroke="none" font-family="Arial" font-size="24px" font-style="normal" font-weight="normal" text-decoration="none" x="400" y="120">UNREGISTERED</text><text fill="#eeeeee" stroke="none" font-family="Arial" font-size="24px" font-style="normal" font-weight="normal" text-decoration="none" x="400" y="150">UNREGISTERED</text><text fill="#eeeeee" stroke="none" font-family="Arial" font-size="24px" font-style="normal" font-weight="normal" text-decoration="none" x="400" y="180">UNREGISTERED</text><text fill="#eeeeee" stroke="none" font-family="Arial" font-size="24px" font-style="normal" font-weight="normal" text-decoration="none" x="400" y="210">UNREGISTERED</text><text fill="#eeeeee" stroke="none" font-family="Arial" font-size="24px" font-style="normal" font-weight="normal" text-decoration="none" x="400" y="240">UNREGISTERED</text><text fill="#eeeeee" stroke="none" font-family="Arial" font-size="24px" font-style="normal" font-weight="normal" text-decoration="none" x="400" y="270">UNREGISTERED</text><text fill="#eeeeee" stroke="none" font-family="Arial" font-size="24px" font-style="normal" font-weight="normal" text-decoration="none" x="400" y="300">UNREGISTERED</text><text fill="#eeeeee" stroke="none" font-family="Arial" font-size="24px" font-style="normal" font-weight="normal" text-decoration="none" x="400" y="330">UNREGISTERED</text><text fill="#eeeeee" stroke="none" font-family="Arial" font-size="24px" font-style="normal" font-weight="normal" text-decoration="none" x="400" y="360">UNREGISTERED</text><text fill="#eeeeee" stroke="none" font-family="Arial" font-size="24px" font-style="normal" font-weight="normal" text-decoration="none" x="400" y="390">UNREGISTERED</text><text fill="#eeeeee" stroke="none" font-family="Arial" font-size="24px" font-style="normal" font-weight="normal" text-decoration="none" x="400" y="420">UNREGISTERED</text><text fill="#eeeeee" stroke="none" font-family="Arial" font-size="24px" font-style="normal" font-weight="normal" text-decoration="none" x="400" y="450">UNREGISTERED</text><text fill="#eeeeee" stroke="none" font-family="Arial" font-size="24px" font-style="normal" font-weight="normal" text-decoration="none" x="400" y="480">UNREGISTERED</text><text fill="#eeeeee" stroke="none" font-family="Arial" font-size="24px" font-style="normal" font-weight="normal" text-decoration="none" x="400" y="510">UNREGISTERED</text><text fill="#eeeeee" stroke="none" font-family="Arial" font-size="24px" font-style="normal" font-weight="normal" text-decoration="none" x="400" y="540">UNREGISTERED</text><text fill="#eeeeee" stroke="none" font-family="Arial" font-size="24px" font-style="normal" font-weight="normal" text-decoration="none" x="400" y="570">UNREGISTERED</text><text fill="#eeeeee" stroke="none" font-family="Arial" font-size="24px" font-style="normal" font-weight="normal" text-decoration="none" x="400" y="600">UNREGISTERED</text><text fill="#eeeeee" stroke="none" font-family="Arial" font-size="24px" font-style="normal" font-weight="normal" text-decoration="none" x="600" y="0">UNREGISTERED</text><text fill="#eeeeee" stroke="none" font-family="Arial" font-size="24px" font-style="normal" font-weight="normal" text-decoration="none" x="600" y="30">UNREGISTERED</text><text fill="#eeeeee" stroke="none" font-family="Arial" font-size="24px" font-style="normal" font-weight="normal" text-decoration="none" x="600" y="60">UNREGISTERED</text><text fill="#eeeeee" stroke="none" font-family="Arial" font-size="24px" font-style="normal" font-weight="normal" text-decoration="none" x="600" y="90">UNREGISTERED</text><text fill="#eeeeee" stroke="none" font-family="Arial" font-size="24px" font-style="normal" font-weight="normal" text-decoration="none" x="600" y="120">UNREGISTERED</text><text fill="#eeeeee" stroke="none" font-family="Arial" font-size="24px" font-style="normal" font-weight="normal" text-decoration="none" x="600" y="150">UNREGISTERED</text><text fill="#eeeeee" stroke="none" font-family="Arial" font-size="24px" font-style="normal" font-weight="normal" text-decoration="none" x="600" y="180">UNREGISTERED</text><text fill="#eeeeee" stroke="none" font-family="Arial" font-size="24px" font-style="normal" font-weight="normal" text-decoration="none" x="600" y="210">UNREGISTERED</text><text fill="#eeeeee" stroke="none" font-family="Arial" font-size="24px" font-style="normal" font-weight="normal" text-decoration="none" x="600" y="240">UNREGISTERED</text><text fill="#eeeeee" stroke="none" font-family="Arial" font-size="24px" font-style="normal" font-weight="normal" text-decoration="none" x="600" y="270">UNREGISTERED</text><text fill="#eeeeee" stroke="none" font-family="Arial" font-size="24px" font-style="normal" font-weight="normal" text-decoration="none" x="600" y="300">UNREGISTERED</text><text fill="#eeeeee" stroke="none" font-family="Arial" font-size="24px" font-style="normal" font-weight="normal" text-decoration="none" x="600" y="330">UNREGISTERED</text><text fill="#eeeeee" stroke="none" font-family="Arial" font-size="24px" font-style="normal" font-weight="normal" text-decoration="none" x="600" y="360">UNREGISTERED</text><text fill="#eeeeee" stroke="none" font-family="Arial" font-size="24px" font-style="normal" font-weight="normal" text-decoration="none" x="600" y="390">UNREGISTERED</text><text fill="#eeeeee" stroke="none" font-family="Arial" font-size="24px" font-style="normal" font-weight="normal" text-decoration="none" x="600" y="420">UNREGISTERED</text><text fill="#eeeeee" stroke="none" font-family="Arial" font-size="24px" font-style="normal" font-weight="normal" text-decoration="none" x="600" y="450">UNREGISTERED</text><text fill="#eeeeee" stroke="none" font-family="Arial" font-size="24px" font-style="normal" font-weight="normal" text-decoration="none" x="600" y="480">UNREGISTERED</text><text fill="#eeeeee" stroke="none" font-family="Arial" font-size="24px" font-style="normal" font-weight="normal" text-decoration="none" x="600" y="510">UNREGISTERED</text><text fill="#eeeeee" stroke="none" font-family="Arial" font-size="24px" font-style="normal" font-weight="normal" text-decoration="none" x="600" y="540">UNREGISTERED</text><text fill="#eeeeee" stroke="none" font-family="Arial" font-size="24px" font-style="normal" font-weight="normal" text-decoration="none" x="600" y="570">UNREGISTERED</text><text fill="#eeeeee" stroke="none" font-family="Arial" font-size="24px" font-style="normal" font-weight="normal" text-decoration="none" x="600" y="600">UNREGISTERED</text><g transform="translate(-254,-294) scale(1,1)"><path fill="#C0C0C0" stroke="none" d="M 271 416.5 C 271 411.2532944 275.2532944 407 280.5 407 C 285.7467056 407 290 411.2532944 290 416.5 C 290 421.7467056 285.7467056 426 280.5 426 C 275.2532944 426 271 421.7467056 271 416.5 Z" opacity="0.2"/></g><g transform="translate(-254,-294) scale(1,1)"><path fill="#000000" stroke="none" d="M 264 409.5 C 264 404.2532944 268.2532944 400 273.5 400 C 278.7467056 400 283 404.2532944 283 409.5 C 283 414.7467056 278.7467056 419 273.5 419 C 268.2532944 419 264 414.7467056 264 409.5 Z"/></g><g transform="translate(-254,-294) scale(1,1)"><path fill="#C0C0C0" stroke="none" d="M 735 891.5 C 735 884.59644 740.59644 879 747.5 879 C 754.40356 879 760 884.59644 760 891.5 C 760 898.40356 754.40356 904 747.5 904 C 740.59644 904 735 898.40356 735 891.5 Z" opacity="0.2"/></g><g transform="translate(-254,-294) scale(1,1)"><path fill="none" stroke="#000000" d="M 728 884.5 C 728 877.59644 733.59644 872 740.5 872 C 747.40356 872 753 877.59644 753 884.5 C 753 891.40356 747.40356 897 740.5 897 C 733.59644 897 728 891.40356 728 884.5 Z" stroke-miterlimit="10"/></g><g transform="translate(-254,-294) scale(1,1)"><path fill="#000000" stroke="none" d="M 733 884.5 C 733 880.357864 736.357864 877 740.5 877 C 744.642136 877 748 880.357864 748 884.5 C 748 888.642136 744.642136 892 740.5 892 C 736.357864 892 733 888.642136 733 884.5 Z"/></g><g transform="translate(-254,-294) scale(1,1)"><path fill="none" stroke="#000000" d="M 577 617 L 578 655" stroke-miterlimit="10"/></g><g transform="translate(-254,-294) scale(1,1)"><path fill="none" stroke="#000000" d="M 573.5245928199677 644.9515806928197 L 578 655 L 581.9407146667412 644.7301038021151" stroke-miterlimit="10"/></g><g transform="translate(-254,-294) scale(1,1)"><rect fill="#ffffff" stroke="none" x="368" y="304" width="296" height="21"/></g><g transform="translate(-254,-294) scale(1,1)"><path fill="none" stroke="#000000" d="M 368 304 L 664 304 L 664 325 L 368 325 L 368 304 Z Z" stroke-miterlimit="10" stroke-width="2"/></g><g transform="translate(-254,-294) scale(1,1)"><path fill="none" stroke="#000000" d="M 368 799 L 368 304 L 664 304 L 664 799" stroke-miterlimit="10" stroke-width="2"/></g><g transform="translate(-254,-294) scale(1,1)"><g><path fill="none" stroke="none"/><text fill="#000000" stroke="none" font-family="Arial" font-size="13px" font-style="normal" font-weight="normal" text-decoration="none" x="503.35546875" y="316">user</text></g></g><g transform="translate(-254,-294) scale(1,1)"><rect fill="#ffffff" stroke="none" x="664" y="304" width="256" height="21"/></g><g transform="translate(-254,-294) scale(1,1)"><path fill="none" stroke="#000000" d="M 664 304 L 920 304 L 920 325 L 664 325 L 664 304 Z Z" stroke-miterlimit="10" stroke-width="2"/></g><g transform="translate(-254,-294) scale(1,1)"><path fill="none" stroke="#000000" d="M 664 799 L 664 304 L 920 304 L 920 799" stroke-miterlimit="10" stroke-width="2"/></g><g transform="translate(-254,-294) scale(1,1)"><g><path fill="none" stroke="none"/><text fill="#000000" stroke="none" font-family="Arial" font-size="13px" font-style="normal" font-weight="normal" text-decoration="none" x="771.41455078125" y="317">system</text></g></g><g transform="translate(-254,-294) scale(1,1)"><path fill="none" stroke="#000000" d="M 284 409 L 399 411" stroke-miterlimit="10"/></g><g transform="translate(-254,-294) scale(1,1)"><path fill="none" stroke="#000000" d="M 388.7656637466202 415.0321658513454 L 399 411 L 388.9120596179367 406.61440325064694" stroke-miterlimit="10"/></g><g transform="translate(-254,-294) scale(1,1)"><path fill="#C0C0C0" stroke="none" d="M 417 399 L 484.0000915527344 399 Q 494.0000915527344 399 494.0000915527344 409 L 494.0000915527344 429 Q 494.0000915527344 439 484.0000915527344 439 L 417 439 Q 407 439 407 429 L 407 409 Q 407 399 417 399 Z" opacity="0.2"/></g><g transform="translate(-254,-294) scale(1,1)"><path fill="#ffffff" stroke="none" d="M 410 392 L 477.0000915527344 392 Q 487.0000915527344 392 487.0000915527344 402 L 487.0000915527344 422 Q 487.0000915527344 432 477.0000915527344 432 L 410 432 Q 400 432 400 422 L 400 402 Q 400 392 410 392 Z"/></g><g transform="translate(-254,-294) scale(1,1)"><path fill="none" stroke="#000000" d="M 410 392 L 477.0000915527344 392 Q 487.0000915527344 392 487.0000915527344 402 L 487.0000915527344 422 Q 487.0000915527344 432 477.0000915527344 432 L 410 432 Q 400 432 400 422 L 400 402 Q 400 392 410 392 Z" stroke-miterlimit="10"/></g><g transform="translate(-254,-294) scale(1,1)"><g><path fill="none" stroke="none"/><text fill="#000000" stroke="none" font-family="Arial" font-size="13px" font-style="normal" font-weight="bold" text-decoration="none" x="404.5" y="410.5">进入个人页面</text></g></g><g transform="translate(-254,-294) scale(1,1)"><path fill="#C0C0C0" stroke="none" d="M 545 399 L 638.0001220703125 399 Q 648.0001220703125 399 648.0001220703125 409 L 648.0001220703125 429 Q 648.0001220703125 439 638.0001220703125 439 L 545 439 Q 535 439 535 429 L 535 409 Q 535 399 545 399 Z" opacity="0.2"/></g><g transform="translate(-254,-294) scale(1,1)"><path fill="#ffffff" stroke="none" d="M 538 392 L 631.0001220703125 392 Q 641.0001220703125 392 641.0001220703125 402 L 641.0001220703125 422 Q 641.0001220703125 432 631.0001220703125 432 L 538 432 Q 528 432 528 422 L 528 402 Q 528 392 538 392 Z"/></g><g transform="translate(-254,-294) scale(1,1)"><path fill="none" stroke="#000000" d="M 538 392 L 631.0001220703125 392 Q 641.0001220703125 392 641.0001220703125 402 L 641.0001220703125 422 Q 641.0001220703125 432 631.0001220703125 432 L 538 432 Q 528 432 528 422 L 528 402 Q 528 392 538 392 Z" stroke-miterlimit="10"/></g><g transform="translate(-254,-294) scale(1,1)"><g><path fill="none" stroke="none"/><text fill="#000000" stroke="none" font-family="Arial" font-size="13px" font-style="normal" font-weight="bold" text-decoration="none" x="532.5" y="410.5">进入专注记录板块</text></g></g><g transform="translate(-254,-294) scale(1,1)"><path fill="#C0C0C0" stroke="none" d="M 553 663 L 620.0000915527344 663 Q 630.0000915527344 663 630.0000915527344 673 L 630.0000915527344 693 Q 630.0000915527344 703 620.0000915527344 703 L 553 703 Q 543 703 543 693 L 543 673 Q 543 663 553 663 Z" opacity="0.2"/></g><g transform="translate(-254,-294) scale(1,1)"><path fill="#ffffff" stroke="none" d="M 546 656 L 613.0000915527344 656 Q 623.0000915527344 656 623.0000915527344 666 L 623.0000915527344 686 Q 623.0000915527344 696 613.0000915527344 696 L 546 696 Q 536 696 536 686 L 536 666 Q 536 656 546 656 Z"/></g><g transform="translate(-254,-294) scale(1,1)"><path fill="none" stroke="#000000" d="M 546 656 L 613.0000915527344 656 Q 623.0000915527344 656 623.0000915527344 666 L 623.0000915527344 686 Q 623.0000915527344 696 613.0000915527344 696 L 546 696 Q 536 696 536 686 L 536 666 Q 536 656 546 656 Z" stroke-miterlimit="10"/></g><g transform="translate(-254,-294) scale(1,1)"><g><path fill="none" stroke="none"/><text fill="#000000" stroke="none" font-family="Arial" font-size="13px" font-style="normal" font-weight="bold" text-decoration="none" x="540.5" y="675">填写添加内容</text></g></g><g transform="translate(-254,-294) scale(1,1)"><path fill="none" stroke="#000000" d="M 488 412 L 527 412" stroke-miterlimit="10"/></g><g transform="translate(-254,-294) scale(1,1)"><path fill="none" stroke="#000000" d="M 516.8373251423759 416.209517756016 L 527 412 L 516.8373251423758 407.790482243984" stroke-miterlimit="10"/></g><g transform="translate(-254,-294) scale(1,1)"><path fill="#C0C0C0" stroke="none" d="M 553 735 L 620.0000915527344 735 Q 630.0000915527344 735 630.0000915527344 745 L 630.0000915527344 765 Q 630.0000915527344 775 620.0000915527344 775 L 553 775 Q 543 775 543 765 L 543 745 Q 543 735 553 735 Z" opacity="0.2"/></g><g transform="translate(-254,-294) scale(1,1)"><path fill="#ffffff" stroke="none" d="M 546 728 L 613.0000915527344 728 Q 623.0000915527344 728 623.0000915527344 738 L 623.0000915527344 758 Q 623.0000915527344 768 613.0000915527344 768 L 546 768 Q 536 768 536 758 L 536 738 Q 536 728 546 728 Z"/></g><g transform="translate(-254,-294) scale(1,1)"><path fill="none" stroke="#000000" d="M 546 728 L 613.0000915527344 728 Q 623.0000915527344 728 623.0000915527344 738 L 623.0000915527344 758 Q 623.0000915527344 768 613.0000915527344 768 L 546 768 Q 536 768 536 758 L 536 738 Q 536 728 546 728 Z" stroke-miterlimit="10"/></g><g transform="translate(-254,-294) scale(1,1)"><g><path fill="none" stroke="none"/><text fill="#000000" stroke="none" font-family="Arial" font-size="13px" font-style="normal" font-weight="bold" text-decoration="none" x="540.5" y="747">分享专注记录</text></g></g><g transform="translate(-254,-294) scale(1,1)"><path fill="#C0C0C0" stroke="none" d="M 537 583 L 630.0001220703125 583 Q 640.0001220703125 583 640.0001220703125 593 L 640.0001220703125 613 Q 640.0001220703125 623 630.0001220703125 623 L 537 623 Q 527 623 527 613 L 527 593 Q 527 583 537 583 Z" opacity="0.2"/></g><g transform="translate(-254,-294) scale(1,1)"><path fill="#ffffff" stroke="none" d="M 530 576 L 623.0001220703125 576 Q 633.0001220703125 576 633.0001220703125 586 L 633.0001220703125 606 Q 633.0001220703125 616 623.0001220703125 616 L 530 616 Q 520 616 520 606 L 520 586 Q 520 576 530 576 Z"/></g><g transform="translate(-254,-294) scale(1,1)"><path fill="none" stroke="#000000" d="M 530 576 L 623.0001220703125 576 Q 633.0001220703125 576 633.0001220703125 586 L 633.0001220703125 606 Q 633.0001220703125 616 623.0001220703125 616 L 530 616 Q 520 616 520 606 L 520 586 Q 520 576 530 576 Z" stroke-miterlimit="10"/></g><g transform="translate(-254,-294) scale(1,1)"><g><path fill="none" stroke="none"/><text fill="#000000" stroke="none" font-family="Arial" font-size="13px" font-style="normal" font-weight="bold" text-decoration="none" x="524.5" y="594.5">选择目标专注记录</text></g></g><g transform="translate(-254,-294) scale(1,1)"><path fill="#C0C0C0" stroke="none" d="M 713 391 L 845 391 Q 855 391 855 401 L 855 421 Q 855 431 845 431 L 713 431 Q 703 431 703 421 L 703 401 Q 703 391 713 391 Z" opacity="0.2"/></g><g transform="translate(-254,-294) scale(1,1)"><path fill="#ffffff" stroke="none" d="M 706 384 L 838 384 Q 848 384 848 394 L 848 414 Q 848 424 838 424 L 706 424 Q 696 424 696 414 L 696 394 Q 696 384 706 384 Z"/></g><g transform="translate(-254,-294) scale(1,1)"><path fill="none" stroke="#000000" d="M 706 384 L 838 384 Q 848 384 848 394 L 848 414 Q 848 424 838 424 L 706 424 Q 696 424 696 414 L 696 394 Q 696 384 706 384 Z" stroke-miterlimit="10"/></g><g transform="translate(-254,-294) scale(1,1)"><g><path fill="none" stroke="none"/><text fill="#000000" stroke="none" font-family="Arial" font-size="13px" font-style="normal" font-weight="bold" text-decoration="none" x="719.9999389648438" y="403">检索用户专注记录</text></g></g><g transform="translate(-254,-294) scale(1,1)"><path fill="none" stroke="#000000" d="M 642 410 L 695 407" stroke-miterlimit="10"/></g><g transform="translate(-254,-294) scale(1,1)"><path fill="none" stroke="#000000" d="M 685.0914604549683 411.7771167124684 L 695 407 L 684.6156728741471 403.37153611795907" stroke-miterlimit="10"/></g><g transform="translate(-254,-294) scale(1,1)"><path fill="none" stroke="#000000" d="M 772 425 L 771 447" stroke-miterlimit="10"/></g><g transform="translate(-254,-294) scale(1,1)"><path fill="none" stroke="#000000" d="M 767.2562874862449 436.6566631779511 L 771 447 L 775.6666391016781 437.0389518877435" stroke-miterlimit="10"/></g><g transform="translate(-254,-294) scale(1,1)"><path fill="#C0C0C0" stroke="none" d="M 767 464.5 L 778.5 455 L 789 464.5 L 778.5 473 L 767 464.5" opacity="0.2"/></g><g transform="translate(-254,-294) scale(1,1)"><path fill="#ffffff" stroke="none" d="M 760 457 L 771 448 L 782 457 L 771 466 L 760 457"/></g><g transform="translate(-254,-294) scale(1,1)"><path fill="none" stroke="#000000" d="M 760 457 L 771 448 L 782 457 L 771 466 L 760 457 L 760 457" stroke-miterlimit="10"/></g><g transform="translate(-254,-294) scale(1,1)"><path fill="none" stroke="#000000" d="M 679 596 L 634 596" stroke-miterlimit="10"/></g><g transform="translate(-254,-294) scale(1,1)"><path fill="none" stroke="#000000" d="M 644.1626748576241 591.790482243984 L 634 596 L 644.1626748576241 600.209517756016" stroke-miterlimit="10"/></g><g transform="translate(-254,-294) scale(1,1)"><path fill="none" stroke="#000000" d="M 768 467 L 741 575" stroke-miterlimit="10"/></g><g transform="translate(-254,-294) scale(1,1)"><path fill="none" stroke="#000000" d="M 739.3809786184074 564.1197991854035 L 741 575 L 747.5486427788625 566.1617152255172" stroke-miterlimit="10"/></g><g transform="translate(-254,-294) scale(1,1)"><g><path fill="none" stroke="none"/><text fill="#000000" stroke="none" font-family="Arial" font-size="13px" font-style="normal" font-weight="normal" text-decoration="none" x="694.5" y="522.5">存在记录</text></g></g><g transform="translate(-254,-294) scale(1,1)"><path fill="#C0C0C0" stroke="none" d="M 697 583 L 790.0001220703125 583 Q 800.0001220703125 583 800.0001220703125 593 L 800.0001220703125 613 Q 800.0001220703125 623 790.0001220703125 623 L 697 623 Q 687 623 687 613 L 687 593 Q 687 583 697 583 Z" opacity="0.2"/></g><g transform="translate(-254,-294) scale(1,1)"><path fill="#ffffff" stroke="none" d="M 690 576 L 783.0001220703125 576 Q 793.0001220703125 576 793.0001220703125 586 L 793.0001220703125 606 Q 793.0001220703125 616 783.0001220703125 616 L 690 616 Q 680 616 680 606 L 680 586 Q 680 576 690 576 Z"/></g><g transform="translate(-254,-294) scale(1,1)"><path fill="none" stroke="#000000" d="M 690 576 L 783.0001220703125 576 Q 793.0001220703125 576 793.0001220703125 586 L 793.0001220703125 606 Q 793.0001220703125 616 783.0001220703125 616 L 690 616 Q 680 616 680 606 L 680 586 Q 680 576 690 576 Z" stroke-miterlimit="10"/></g><g transform="translate(-254,-294) scale(1,1)"><g><path fill="none" stroke="none"/><text fill="#000000" stroke="none" font-family="Arial" font-size="13px" font-style="normal" font-weight="bold" text-decoration="none" x="684.5" y="595">展示用户专注记录</text></g></g><g transform="translate(-254,-294) scale(1,1)"><path fill="none" stroke="#000000" d="M 775 467 L 842 639" stroke-miterlimit="10"/></g><g transform="translate(-254,-294) scale(1,1)"><path fill="none" stroke="#000000" d="M 834.3888297303465 631.0583322200974 L 842 639 L 842.2336970306624 628.0024827484627" stroke-miterlimit="10"/></g><g transform="translate(-254,-294) scale(1,1)"><g><path fill="none" stroke="none"/><text fill="#000000" stroke="none" font-family="Arial" font-size="13px" font-style="normal" font-weight="normal" text-decoration="none" x="788.5" y="552.5">不存在记录</text></g></g><g transform="translate(-254,-294) scale(1,1)"><path fill="#C0C0C0" stroke="none" d="M 817 647 L 897.0001068115234 647 Q 907.0001068115234 647 907.0001068115234 657 L 907.0001068115234 677 Q 907.0001068115234 687 897.0001068115234 687 L 817 687 Q 807 687 807 677 L 807 657 Q 807 647 817 647 Z" opacity="0.2"/></g><g transform="translate(-254,-294) scale(1,1)"><path fill="#ffffff" stroke="none" d="M 810 640 L 890.0001068115234 640 Q 900.0001068115234 640 900.0001068115234 650 L 900.0001068115234 670 Q 900.0001068115234 680 890.0001068115234 680 L 810 680 Q 800 680 800 670 L 800 650 Q 800 640 810 640 Z"/></g><g transform="translate(-254,-294) scale(1,1)"><path fill="none" stroke="#000000" d="M 810 640 L 890.0001068115234 640 Q 900.0001068115234 640 900.0001068115234 650 L 900.0001068115234 670 Q 900.0001068115234 680 890.0001068115234 680 L 810 680 Q 800 680 800 670 L 800 650 Q 800 640 810 640 Z" stroke-miterlimit="10"/></g><g transform="translate(-254,-294) scale(1,1)"><g><path fill="none" stroke="none"/><text fill="#000000" stroke="none" font-family="Arial" font-size="13px" font-style="normal" font-weight="bold" text-decoration="none" x="804.5" y="659">提示无记录消息</text></g></g><g transform="translate(-254,-294) scale(1,1)"><path fill="#C0C0C0" stroke="none" d="M 839 891.5 C 839 884.59644 844.59644 879 851.5 879 C 858.40356 879 864 884.59644 864 891.5 C 864 898.40356 858.40356 904 851.5 904 C 844.59644 904 839 898.40356 839 891.5 Z" opacity="0.2"/></g><g transform="translate(-254,-294) scale(1,1)"><path fill="#ffffff" stroke="none" d="M 832 884.5 C 832 877.59644 837.59644 872 844.5 872 C 851.40356 872 857 877.59644 857 884.5 C 857 891.40356 851.40356 897 844.5 897 C 837.59644 897 832 891.40356 832 884.5 Z"/></g><g transform="translate(-254,-294) scale(1,1)"><path fill="none" stroke="#000000" d="M 832 884.5 C 832 877.59644 837.59644 872 844.5 872 C 851.40356 872 857 877.59644 857 884.5 C 857 891.40356 851.40356 897 844.5 897 C 837.59644 897 832 891.40356 832 884.5 Z" stroke-miterlimit="10"/></g><g transform="translate(-254,-294) scale(1,1)"><path fill="none" stroke="#000000" d="M 835 875 L 853 893" stroke-miterlimit="10"/></g><g transform="translate(-254,-294) scale(1,1)"><path fill="none" stroke="#000000" d="M 853 875 L 835 893" stroke-miterlimit="10"/></g><g transform="translate(-254,-294) scale(1,1)"><path fill="none" stroke="#000000" d="M 849 681 L 844 871" stroke-miterlimit="10"/></g><g transform="translate(-254,-294) scale(1,1)"><path fill="none" stroke="#000000" d="M 840.0592853332588 860.7301038021151 L 844 871 L 848.4754071800323 860.9515806928197" stroke-miterlimit="10"/></g><g transform="translate(-254,-294) scale(1,1)"><path fill="none" stroke="#000000" d="M 579 697 L 579 727" stroke-miterlimit="10"/></g><g transform="translate(-254,-294) scale(1,1)"><path fill="none" stroke="#000000" d="M 574.790482243984 716.8373251423759 L 579 727 L 583.209517756016 716.8373251423759" stroke-miterlimit="10"/></g><g transform="translate(-254,-294) scale(1,1)"><path fill="#C0C0C0" stroke="none" d="M 713 735 L 793.0001068115234 735 Q 803.0001068115234 735 803.0001068115234 745 L 803.0001068115234 765 Q 803.0001068115234 775 793.0001068115234 775 L 713 775 Q 703 775 703 765 L 703 745 Q 703 735 713 735 Z" opacity="0.2"/></g><g transform="translate(-254,-294) scale(1,1)"><path fill="#ffffff" stroke="none" d="M 706 728 L 786.0001068115234 728 Q 796.0001068115234 728 796.0001068115234 738 L 796.0001068115234 758 Q 796.0001068115234 768 786.0001068115234 768 L 706 768 Q 696 768 696 758 L 696 738 Q 696 728 706 728 Z"/></g><g transform="translate(-254,-294) scale(1,1)"><path fill="none" stroke="#000000" d="M 706 728 L 786.0001068115234 728 Q 796.0001068115234 728 796.0001068115234 738 L 796.0001068115234 758 Q 796.0001068115234 768 786.0001068115234 768 L 706 768 Q 696 768 696 758 L 696 738 Q 696 728 706 728 Z" stroke-miterlimit="10"/></g><g transform="translate(-254,-294) scale(1,1)"><g><path fill="none" stroke="none"/><text fill="#000000" stroke="none" font-family="Arial" font-size="13px" font-style="normal" font-weight="bold" text-decoration="none" x="700.5" y="747">分享上传服务器</text></g></g><g transform="translate(-254,-294) scale(1,1)"><path fill="none" stroke="#000000" d="M 624 748 L 695 748" stroke-miterlimit="10"/></g><g transform="translate(-254,-294) scale(1,1)"><path fill="none" stroke="#000000" d="M 684.8373251423759 752.209517756016 L 695 748 L 684.8373251423758 743.790482243984" stroke-miterlimit="10"/></g><g transform="translate(-254,-294) scale(1,1)"><path fill="none" stroke="#000000" d="M 745 769 L 741 871" stroke-miterlimit="10"/></g><g transform="translate(-254,-294) scale(1,1)"><path fill="none" stroke="#000000" d="M 737.1919455344537 860.6801782385821 L 741 871 L 745.6045148124196 861.0100829161495" stroke-miterlimit="10"/></g></g></svg>