<svg version="1.1" xmlns="http://www.w3.org/2000/svg" xmlns:xlink="http://www.w3.org/1999/xlink" width="668" height="525"><defs/><g><text fill="#eeeeee" stroke="none" font-family="Arial" font-size="24px" font-style="normal" font-weight="normal" text-decoration="none" x="0" y="0">UNREGISTERED</text><text fill="#eeeeee" stroke="none" font-family="Arial" font-size="24px" font-style="normal" font-weight="normal" text-decoration="none" x="0" y="30">UNREGISTERED</text><text fill="#eeeeee" stroke="none" font-family="Arial" font-size="24px" font-style="normal" font-weight="normal" text-decoration="none" x="0" y="60">UNREGISTERED</text><text fill="#eeeeee" stroke="none" font-family="Arial" font-size="24px" font-style="normal" font-weight="normal" text-decoration="none" x="0" y="90">UNREGISTERED</text><text fill="#eeeeee" stroke="none" font-family="Arial" font-size="24px" font-style="normal" font-weight="normal" text-decoration="none" x="0" y="120">UNREGISTERED</text><text fill="#eeeeee" stroke="none" font-family="Arial" font-size="24px" font-style="normal" font-weight="normal" text-decoration="none" x="0" y="150">UNREGISTERED</text><text fill="#eeeeee" stroke="none" font-family="Arial" font-size="24px" font-style="normal" font-weight="normal" text-decoration="none" x="0" y="180">UNREGISTERED</text><text fill="#eeeeee" stroke="none" font-family="Arial" font-size="24px" font-style="normal" font-weight="normal" text-decoration="none" x="0" y="210">UNREGISTERED</text><text fill="#eeeeee" stroke="none" font-family="Arial" font-size="24px" font-style="normal" font-weight="normal" text-decoration="none" x="0" y="240">UNREGISTERED</text><text fill="#eeeeee" stroke="none" font-family="Arial" font-size="24px" font-style="normal" font-weight="normal" text-decoration="none" x="0" y="270">UNREGISTERED</text><text fill="#eeeeee" stroke="none" font-family="Arial" font-size="24px" font-style="normal" font-weight="normal" text-decoration="none" x="0" y="300">UNREGISTERED</text><text fill="#eeeeee" stroke="none" font-family="Arial" font-size="24px" font-style="normal" font-weight="normal" text-decoration="none" x="0" y="330">UNREGISTERED</text><text fill="#eeeeee" stroke="none" font-family="Arial" font-size="24px" font-style="normal" font-weight="normal" text-decoration="none" x="0" y="360">UNREGISTERED</text><text fill="#eeeeee" stroke="none" font-family="Arial" font-size="24px" font-style="normal" font-weight="normal" text-decoration="none" x="0" y="390">UNREGISTERED</text><text fill="#eeeeee" stroke="none" font-family="Arial" font-size="24px" font-style="normal" font-weight="normal" text-decoration="none" x="0" y="420">UNREGISTERED</text><text fill="#eeeeee" stroke="none" font-family="Arial" font-size="24px" font-style="normal" font-weight="normal" text-decoration="none" x="0" y="450">UNREGISTERED</text><text fill="#eeeeee" stroke="none" font-family="Arial" font-size="24px" font-style="normal" font-weight="normal" text-decoration="none" x="0" y="480">UNREGISTERED</text><text fill="#eeeeee" stroke="none" font-family="Arial" font-size="24px" font-style="normal" font-weight="normal" text-decoration="none" x="0" y="510">UNREGISTERED</text><text fill="#eeeeee" stroke="none" font-family="Arial" font-size="24px" font-style="normal" font-weight="normal" text-decoration="none" x="200" y="0">UNREGISTERED</text><text fill="#eeeeee" stroke="none" font-family="Arial" font-size="24px" font-style="normal" font-weight="normal" text-decoration="none" x="200" y="30">UNREGISTERED</text><text fill="#eeeeee" stroke="none" font-family="Arial" font-size="24px" font-style="normal" font-weight="normal" text-decoration="none" x="200" y="60">UNREGISTERED</text><text fill="#eeeeee" stroke="none" font-family="Arial" font-size="24px" font-style="normal" font-weight="normal" text-decoration="none" x="200" y="90">UNREGISTERED</text><text fill="#eeeeee" stroke="none" font-family="Arial" font-size="24px" font-style="normal" font-weight="normal" text-decoration="none" x="200" y="120">UNREGISTERED</text><text fill="#eeeeee" stroke="none" font-family="Arial" font-size="24px" font-style="normal" font-weight="normal" text-decoration="none" x="200" y="150">UNREGISTERED</text><text fill="#eeeeee" stroke="none" font-family="Arial" font-size="24px" font-style="normal" font-weight="normal" text-decoration="none" x="200" y="180">UNREGISTERED</text><text fill="#eeeeee" stroke="none" font-family="Arial" font-size="24px" font-style="normal" font-weight="normal" text-decoration="none" x="200" y="210">UNREGISTERED</text><text fill="#eeeeee" stroke="none" font-family="Arial" font-size="24px" font-style="normal" font-weight="normal" text-decoration="none" x="200" y="240">UNREGISTERED</text><text fill="#eeeeee" stroke="none" font-family="Arial" font-size="24px" font-style="normal" font-weight="normal" text-decoration="none" x="200" y="270">UNREGISTERED</text><text fill="#eeeeee" stroke="none" font-family="Arial" font-size="24px" font-style="normal" font-weight="normal" text-decoration="none" x="200" y="300">UNREGISTERED</text><text fill="#eeeeee" stroke="none" font-family="Arial" font-size="24px" font-style="normal" font-weight="normal" text-decoration="none" x="200" y="330">UNREGISTERED</text><text fill="#eeeeee" stroke="none" font-family="Arial" font-size="24px" font-style="normal" font-weight="normal" text-decoration="none" x="200" y="360">UNREGISTERED</text><text fill="#eeeeee" stroke="none" font-family="Arial" font-size="24px" font-style="normal" font-weight="normal" text-decoration="none" x="200" y="390">UNREGISTERED</text><text fill="#eeeeee" stroke="none" font-family="Arial" font-size="24px" font-style="normal" font-weight="normal" text-decoration="none" x="200" y="420">UNREGISTERED</text><text fill="#eeeeee" stroke="none" font-family="Arial" font-size="24px" font-style="normal" font-weight="normal" text-decoration="none" x="200" y="450">UNREGISTERED</text><text fill="#eeeeee" stroke="none" font-family="Arial" font-size="24px" font-style="normal" font-weight="normal" text-decoration="none" x="200" y="480">UNREGISTERED</text><text fill="#eeeeee" stroke="none" font-family="Arial" font-size="24px" font-style="normal" font-weight="normal" text-decoration="none" x="200" y="510">UNREGISTERED</text><text fill="#eeeeee" stroke="none" font-family="Arial" font-size="24px" font-style="normal" font-weight="normal" text-decoration="none" x="400" y="0">UNREGISTERED</text><text fill="#eeeeee" stroke="none" font-family="Arial" font-size="24px" font-style="normal" font-weight="normal" text-decoration="none" x="400" y="30">UNREGISTERED</text><text fill="#eeeeee" stroke="none" font-family="Arial" font-size="24px" font-style="normal" font-weight="normal" text-decoration="none" x="400" y="60">UNREGISTERED</text><text fill="#eeeeee" stroke="none" font-family="Arial" font-size="24px" font-style="normal" font-weight="normal" text-decoration="none" x="400" y="90">UNREGISTERED</text><text fill="#eeeeee" stroke="none" font-family="Arial" font-size="24px" font-style="normal" font-weight="normal" text-decoration="none" x="400" y="120">UNREGISTERED</text><text fill="#eeeeee" stroke="none" font-family="Arial" font-size="24px" font-style="normal" font-weight="normal" text-decoration="none" x="400" y="150">UNREGISTERED</text><text fill="#eeeeee" stroke="none" font-family="Arial" font-size="24px" font-style="normal" font-weight="normal" text-decoration="none" x="400" y="180">UNREGISTERED</text><text fill="#eeeeee" stroke="none" font-family="Arial" font-size="24px" font-style="normal" font-weight="normal" text-decoration="none" x="400" y="210">UNREGISTERED</text><text fill="#eeeeee" stroke="none" font-family="Arial" font-size="24px" font-style="normal" font-weight="normal" text-decoration="none" x="400" y="240">UNREGISTERED</text><text fill="#eeeeee" stroke="none" font-family="Arial" font-size="24px" font-style="normal" font-weight="normal" text-decoration="none" x="400" y="270">UNREGISTERED</text><text fill="#eeeeee" stroke="none" font-family="Arial" font-size="24px" font-style="normal" font-weight="normal" text-decoration="none" x="400" y="300">UNREGISTERED</text><text fill="#eeeeee" stroke="none" font-family="Arial" font-size="24px" font-style="normal" font-weight="normal" text-decoration="none" x="400" y="330">UNREGISTERED</text><text fill="#eeeeee" stroke="none" font-family="Arial" font-size="24px" font-style="normal" font-weight="normal" text-decoration="none" x="400" y="360">UNREGISTERED</text><text fill="#eeeeee" stroke="none" font-family="Arial" font-size="24px" font-style="normal" font-weight="normal" text-decoration="none" x="400" y="390">UNREGISTERED</text><text fill="#eeeeee" stroke="none" font-family="Arial" font-size="24px" font-style="normal" font-weight="normal" text-decoration="none" x="400" y="420">UNREGISTERED</text><text fill="#eeeeee" stroke="none" font-family="Arial" font-size="24px" font-style="normal" font-weight="normal" text-decoration="none" x="400" y="450">UNREGISTERED</text><text fill="#eeeeee" stroke="none" font-family="Arial" font-size="24px" font-style="normal" font-weight="normal" text-decoration="none" x="400" y="480">UNREGISTERED</text><text fill="#eeeeee" stroke="none" font-family="Arial" font-size="24px" font-style="normal" font-weight="normal" text-decoration="none" x="400" y="510">UNREGISTERED</text><text fill="#eeeeee" stroke="none" font-family="Arial" font-size="24px" font-style="normal" font-weight="normal" text-decoration="none" x="600" y="0">UNREGISTERED</text><text fill="#eeeeee" stroke="none" font-family="Arial" font-size="24px" font-style="normal" font-weight="normal" text-decoration="none" x="600" y="30">UNREGISTERED</text><text fill="#eeeeee" stroke="none" font-family="Arial" font-size="24px" font-style="normal" font-weight="normal" text-decoration="none" x="600" y="60">UNREGISTERED</text><text fill="#eeeeee" stroke="none" font-family="Arial" font-size="24px" font-style="normal" font-weight="normal" text-decoration="none" x="600" y="90">UNREGISTERED</text><text fill="#eeeeee" stroke="none" font-family="Arial" font-size="24px" font-style="normal" font-weight="normal" text-decoration="none" x="600" y="120">UNREGISTERED</text><text fill="#eeeeee" stroke="none" font-family="Arial" font-size="24px" font-style="normal" font-weight="normal" text-decoration="none" x="600" y="150">UNREGISTERED</text><text fill="#eeeeee" stroke="none" font-family="Arial" font-size="24px" font-style="normal" font-weight="normal" text-decoration="none" x="600" y="180">UNREGISTERED</text><text fill="#eeeeee" stroke="none" font-family="Arial" font-size="24px" font-style="normal" font-weight="normal" text-decoration="none" x="600" y="210">UNREGISTERED</text><text fill="#eeeeee" stroke="none" font-family="Arial" font-size="24px" font-style="normal" font-weight="normal" text-decoration="none" x="600" y="240">UNREGISTERED</text><text fill="#eeeeee" stroke="none" font-family="Arial" font-size="24px" font-style="normal" font-weight="normal" text-decoration="none" x="600" y="270">UNREGISTERED</text><text fill="#eeeeee" stroke="none" font-family="Arial" font-size="24px" font-style="normal" font-weight="normal" text-decoration="none" x="600" y="300">UNREGISTERED</text><text fill="#eeeeee" stroke="none" font-family="Arial" font-size="24px" font-style="normal" font-weight="normal" text-decoration="none" x="600" y="330">UNREGISTERED</text><text fill="#eeeeee" stroke="none" font-family="Arial" font-size="24px" font-style="normal" font-weight="normal" text-decoration="none" x="600" y="360">UNREGISTERED</text><text fill="#eeeeee" stroke="none" font-family="Arial" font-size="24px" font-style="normal" font-weight="normal" text-decoration="none" x="600" y="390">UNREGISTERED</text><text fill="#eeeeee" stroke="none" font-family="Arial" font-size="24px" font-style="normal" font-weight="normal" text-decoration="none" x="600" y="420">UNREGISTERED</text><text fill="#eeeeee" stroke="none" font-family="Arial" font-size="24px" font-style="normal" font-weight="normal" text-decoration="none" x="600" y="450">UNREGISTERED</text><text fill="#eeeeee" stroke="none" font-family="Arial" font-size="24px" font-style="normal" font-weight="normal" text-decoration="none" x="600" y="480">UNREGISTERED</text><text fill="#eeeeee" stroke="none" font-family="Arial" font-size="24px" font-style="normal" font-weight="normal" text-decoration="none" x="600" y="510">UNREGISTERED</text><g transform="translate(-70,-262) scale(1,1)"><path fill="#C0C0C0" stroke="none" d="M 87 384.5 C 87 379.2532944 91.2532944 375 96.5 375 C 101.7467056 375 106 379.2532944 106 384.5 C 106 389.7467056 101.7467056 394 96.5 394 C 91.2532944 394 87 389.7467056 87 384.5 Z" opacity="0.2"/></g><g transform="translate(-70,-262) scale(1,1)"><path fill="#000000" stroke="none" d="M 80 377.5 C 80 372.2532944 84.2532944 368 89.5 368 C 94.7467056 368 99 372.2532944 99 377.5 C 99 382.7467056 94.7467056 387 89.5 387 C 84.2532944 387 80 382.7467056 80 377.5 Z"/></g><g transform="translate(-70,-262) scale(1,1)"><path fill="#C0C0C0" stroke="none" d="M 639 763.5 C 639 756.59644 644.59644 751 651.5 751 C 658.40356 751 664 756.59644 664 763.5 C 664 770.40356 658.40356 776 651.5 776 C 644.59644 776 639 770.40356 639 763.5 Z" opacity="0.2"/></g><g transform="translate(-70,-262) scale(1,1)"><path fill="none" stroke="#000000" d="M 632 756.5 C 632 749.59644 637.59644 744 644.5 744 C 651.40356 744 657 749.59644 657 756.5 C 657 763.40356 651.40356 769 644.5 769 C 637.59644 769 632 763.40356 632 756.5 Z" stroke-miterlimit="10"/></g><g transform="translate(-70,-262) scale(1,1)"><path fill="#000000" stroke="none" d="M 637 756.5 C 637 752.357864 640.357864 749 644.5 749 C 648.642136 749 652 752.357864 652 756.5 C 652 760.642136 648.642136 764 644.5 764 C 640.357864 764 637 760.642136 637 756.5 Z"/></g><g transform="translate(-70,-262) scale(1,1)"><path fill="none" stroke="#000000" d="M 100 377 L 175 379" stroke-miterlimit="10"/></g><g transform="translate(-70,-262) scale(1,1)"><path fill="none" stroke="#000000" d="M 164.72872269624133 382.9371134793516 L 175 379 L 164.95315052751428 374.52106980661523" stroke-miterlimit="10"/></g><g transform="translate(-70,-262) scale(1,1)"><path fill="none" stroke="#000000" d="M 264 380 L 295 380" stroke-miterlimit="10"/></g><g transform="translate(-70,-262) scale(1,1)"><path fill="none" stroke="#000000" d="M 284.83732514237585 384.209517756016 L 295 380 L 284.83732514237585 375.790482243984" stroke-miterlimit="10"/></g><g transform="translate(-70,-262) scale(1,1)"><path fill="none" stroke="#000000" d="M 384 380 L 431 380" stroke-miterlimit="10"/></g><g transform="translate(-70,-262) scale(1,1)"><path fill="none" stroke="#000000" d="M 420.83732514237585 384.209517756016 L 431 380 L 420.83732514237585 375.790482243984" stroke-miterlimit="10"/></g><g transform="translate(-70,-262) scale(1,1)"><rect fill="#ffffff" stroke="none" x="152" y="272" width="408" height="21"/></g><g transform="translate(-70,-262) scale(1,1)"><path fill="none" stroke="#000000" d="M 152 272 L 560 272 L 560 293 L 152 293 L 152 272 Z Z" stroke-miterlimit="10" stroke-width="2"/></g><g transform="translate(-70,-262) scale(1,1)"><path fill="none" stroke="#000000" d="M 152 711 L 152 272 L 560 272 L 560 711" stroke-miterlimit="10" stroke-width="2"/></g><g transform="translate(-70,-262) scale(1,1)"><g><path fill="none" stroke="none"/><text fill="#000000" stroke="none" font-family="Arial" font-size="13px" font-style="normal" font-weight="normal" text-decoration="none" x="343.35546875" y="284">user</text></g></g><g transform="translate(-70,-262) scale(1,1)"><rect fill="#ffffff" stroke="none" x="560" y="272" width="168" height="21"/></g><g transform="translate(-70,-262) scale(1,1)"><path fill="none" stroke="#000000" d="M 560 272 L 728 272 L 728 293 L 560 293 L 560 272 Z Z" stroke-miterlimit="10" stroke-width="2"/></g><g transform="translate(-70,-262) scale(1,1)"><path fill="none" stroke="#000000" d="M 560 727 L 560 272 L 728 272 L 728 727" stroke-miterlimit="10" stroke-width="2"/></g><g transform="translate(-70,-262) scale(1,1)"><g><path fill="none" stroke="none"/><text fill="#000000" stroke="none" font-family="Arial" font-size="13px" font-style="normal" font-weight="normal" text-decoration="none" x="623.41455078125" y="285">system</text></g></g><g transform="translate(-70,-262) scale(1,1)"><path fill="#C0C0C0" stroke="none" d="M 313 367 L 380.0000915527344 367 Q 390.0000915527344 367 390.0000915527344 377 L 390.0000915527344 397 Q 390.0000915527344 407 380.0000915527344 407 L 313 407 Q 303 407 303 397 L 303 377 Q 303 367 313 367 Z" opacity="0.2"/></g><g transform="translate(-70,-262) scale(1,1)"><path fill="#ffffff" stroke="none" d="M 306 360 L 373.0000915527344 360 Q 383.0000915527344 360 383.0000915527344 370 L 383.0000915527344 390 Q 383.0000915527344 400 373.0000915527344 400 L 306 400 Q 296 400 296 390 L 296 370 Q 296 360 306 360 Z"/></g><g transform="translate(-70,-262) scale(1,1)"><path fill="none" stroke="#000000" d="M 306 360 L 373.0000915527344 360 Q 383.0000915527344 360 383.0000915527344 370 L 383.0000915527344 390 Q 383.0000915527344 400 373.0000915527344 400 L 306 400 Q 296 400 296 390 L 296 370 Q 296 360 306 360 Z" stroke-miterlimit="10"/></g><g transform="translate(-70,-262) scale(1,1)"><g><path fill="none" stroke="none"/><text fill="#000000" stroke="none" font-family="Arial" font-size="13px" font-style="normal" font-weight="bold" text-decoration="none" x="300.5" y="378.5">选择目标日程</text></g></g><g transform="translate(-70,-262) scale(1,1)"><path fill="#C0C0C0" stroke="none" d="M 193 367 L 260.0000915527344 367 Q 270.0000915527344 367 270.0000915527344 377 L 270.0000915527344 397 Q 270.0000915527344 407 260.0000915527344 407 L 193 407 Q 183 407 183 397 L 183 377 Q 183 367 193 367 Z" opacity="0.2"/></g><g transform="translate(-70,-262) scale(1,1)"><path fill="#ffffff" stroke="none" d="M 186 360 L 253.00009155273438 360 Q 263.0000915527344 360 263.0000915527344 370 L 263.0000915527344 390 Q 263.0000915527344 400 253.00009155273438 400 L 186 400 Q 176 400 176 390 L 176 370 Q 176 360 186 360 Z"/></g><g transform="translate(-70,-262) scale(1,1)"><path fill="none" stroke="#000000" d="M 186 360 L 253.00009155273438 360 Q 263.0000915527344 360 263.0000915527344 370 L 263.0000915527344 390 Q 263.0000915527344 400 253.00009155273438 400 L 186 400 Q 176 400 176 390 L 176 370 Q 176 360 186 360 Z" stroke-miterlimit="10"/></g><g transform="translate(-70,-262) scale(1,1)"><g><path fill="none" stroke="none"/><text fill="#000000" stroke="none" font-family="Arial" font-size="13px" font-style="normal" font-weight="bold" text-decoration="none" x="180.5" y="379">进入社交板块</text></g></g><g transform="translate(-70,-262) scale(1,1)"><path fill="#C0C0C0" stroke="none" d="M 449 367 L 516.0000915527344 367 Q 526.0000915527344 367 526.0000915527344 377 L 526.0000915527344 397 Q 526.0000915527344 407 516.0000915527344 407 L 449 407 Q 439 407 439 397 L 439 377 Q 439 367 449 367 Z" opacity="0.2"/></g><g transform="translate(-70,-262) scale(1,1)"><path fill="#ffffff" stroke="none" d="M 442 360 L 509.0000915527344 360 Q 519.0000915527344 360 519.0000915527344 370 L 519.0000915527344 390 Q 519.0000915527344 400 509.0000915527344 400 L 442 400 Q 432 400 432 390 L 432 370 Q 432 360 442 360 Z"/></g><g transform="translate(-70,-262) scale(1,1)"><path fill="none" stroke="#000000" d="M 442 360 L 509.0000915527344 360 Q 519.0000915527344 360 519.0000915527344 370 L 519.0000915527344 390 Q 519.0000915527344 400 509.0000915527344 400 L 442 400 Q 432 400 432 390 L 432 370 Q 432 360 442 360 Z" stroke-miterlimit="10"/></g><g transform="translate(-70,-262) scale(1,1)"><g><path fill="none" stroke="none"/><text fill="#000000" stroke="none" font-family="Arial" font-size="13px" font-style="normal" font-weight="bold" text-decoration="none" x="436.5" y="378.5">添加目标日程</text></g></g><g transform="translate(-70,-262) scale(1,1)"><path fill="#C0C0C0" stroke="none" d="M 433 479 L 539 479 Q 549 479 549 489 L 549 509 Q 549 519 539 519 L 433 519 Q 423 519 423 509 L 423 489 Q 423 479 433 479 Z" opacity="0.2"/></g><g transform="translate(-70,-262) scale(1,1)"><path fill="#ffffff" stroke="none" d="M 426 472 L 532 472 Q 542 472 542 482 L 542 502 Q 542 512 532 512 L 426 512 Q 416 512 416 502 L 416 482 Q 416 472 426 472 Z"/></g><g transform="translate(-70,-262) scale(1,1)"><path fill="none" stroke="#000000" d="M 426 472 L 532 472 Q 542 472 542 482 L 542 502 Q 542 512 532 512 L 426 512 Q 416 512 416 502 L 416 482 Q 416 472 426 472 Z" stroke-miterlimit="10"/></g><g transform="translate(-70,-262) scale(1,1)"><g><path fill="none" stroke="none"/><text fill="#000000" stroke="none" font-family="Arial" font-size="13px" font-style="normal" font-weight="bold" text-decoration="none" x="439.9999542236328" y="491">处理日程冲突</text></g></g><g transform="translate(-70,-262) scale(1,1)"><path fill="#C0C0C0" stroke="none" d="M 609 367 L 676.0000915527344 367 Q 686.0000915527344 367 686.0000915527344 377 L 686.0000915527344 397 Q 686.0000915527344 407 676.0000915527344 407 L 609 407 Q 599 407 599 397 L 599 377 Q 599 367 609 367 Z" opacity="0.2"/></g><g transform="translate(-70,-262) scale(1,1)"><path fill="#ffffff" stroke="none" d="M 602 360 L 669.0000915527344 360 Q 679.0000915527344 360 679.0000915527344 370 L 679.0000915527344 390 Q 679.0000915527344 400 669.0000915527344 400 L 602 400 Q 592 400 592 390 L 592 370 Q 592 360 602 360 Z"/></g><g transform="translate(-70,-262) scale(1,1)"><path fill="none" stroke="#000000" d="M 602 360 L 669.0000915527344 360 Q 679.0000915527344 360 679.0000915527344 370 L 679.0000915527344 390 Q 679.0000915527344 400 669.0000915527344 400 L 602 400 Q 592 400 592 390 L 592 370 Q 592 360 602 360 Z" stroke-miterlimit="10"/></g><g transform="translate(-70,-262) scale(1,1)"><g><path fill="none" stroke="none"/><text fill="#000000" stroke="none" font-family="Arial" font-size="13px" font-style="normal" font-weight="bold" text-decoration="none" x="596.5" y="379">判断日程冲突</text></g></g><g transform="translate(-70,-262) scale(1,1)"><path fill="none" stroke="#000000" d="M 520 380 L 591 380" stroke-miterlimit="10"/></g><g transform="translate(-70,-262) scale(1,1)"><path fill="none" stroke="#000000" d="M 580.8373251423759 384.209517756016 L 591 380 L 580.8373251423758 375.790482243984" stroke-miterlimit="10"/></g><g transform="translate(-70,-262) scale(1,1)"><path fill="none" stroke="#000000" d="M 623 489 L 543 491" stroke-miterlimit="10"/></g><g transform="translate(-70,-262) scale(1,1)"><path fill="none" stroke="#000000" d="M 553.0542954371787 486.5378095892344 L 543 491 L 553.26470558208 494.9542153852841" stroke-miterlimit="10"/></g><g transform="translate(-70,-262) scale(1,1)"><g><path fill="none" stroke="none"/><text fill="#000000" stroke="none" font-family="Arial" font-size="13px" font-style="normal" font-weight="normal" text-decoration="none" x="569.4999847412109" y="509.5">存在</text></g></g><g transform="translate(-70,-262) scale(1,1)"><path fill="none" stroke="#000000" d="M 635 401 L 635 479" stroke-miterlimit="10"/></g><g transform="translate(-70,-262) scale(1,1)"><path fill="none" stroke="#000000" d="M 630.790482243984 468.83732514237585 L 635 479 L 639.209517756016 468.83732514237585" stroke-miterlimit="10"/></g><g transform="translate(-70,-262) scale(1,1)"><path fill="#C0C0C0" stroke="none" d="M 631 496.5 L 642.5 487 L 653 496.5 L 642.5 505 L 631 496.5" opacity="0.2"/></g><g transform="translate(-70,-262) scale(1,1)"><path fill="#ffffff" stroke="none" d="M 624 489 L 635 480 L 646 489 L 635 498 L 624 489"/></g><g transform="translate(-70,-262) scale(1,1)"><path fill="none" stroke="#000000" d="M 624 489 L 635 480 L 646 489 L 635 498 L 624 489 L 624 489" stroke-miterlimit="10"/></g><g transform="translate(-70,-262) scale(1,1)"><path fill="#C0C0C0" stroke="none" d="M 449 639 L 516.0000915527344 639 Q 526.0000915527344 639 526.0000915527344 649 L 526.0000915527344 669 Q 526.0000915527344 679 516.0000915527344 679 L 449 679 Q 439 679 439 669 L 439 649 Q 439 639 449 639 Z" opacity="0.2"/></g><g transform="translate(-70,-262) scale(1,1)"><path fill="#ffffff" stroke="none" d="M 442 632 L 509.0000915527344 632 Q 519.0000915527344 632 519.0000915527344 642 L 519.0000915527344 662 Q 519.0000915527344 672 509.0000915527344 672 L 442 672 Q 432 672 432 662 L 432 642 Q 432 632 442 632 Z"/></g><g transform="translate(-70,-262) scale(1,1)"><path fill="none" stroke="#000000" d="M 442 632 L 509.0000915527344 632 Q 519.0000915527344 632 519.0000915527344 642 L 519.0000915527344 662 Q 519.0000915527344 672 509.0000915527344 672 L 442 672 Q 432 672 432 662 L 432 642 Q 432 632 442 632 Z" stroke-miterlimit="10"/></g><g transform="translate(-70,-262) scale(1,1)"><g><path fill="none" stroke="none"/><text fill="#000000" stroke="none" font-family="Arial" font-size="13px" font-style="normal" font-weight="bold" text-decoration="none" x="436.5" y="650.5">日程添加完毕</text></g></g><g transform="translate(-70,-262) scale(1,1)"><path fill="none" stroke="#000000" d="M 625 499 L 496 631" stroke-miterlimit="10"/></g><g transform="translate(-70,-262) scale(1,1)"><path fill="none" stroke="#000000" d="M 500.0924350683999 620.7896143456317 L 496 631 L 506.11362152316485 626.6739556536975" stroke-miterlimit="10"/></g><g transform="translate(-70,-262) scale(1,1)"><g><path fill="none" stroke="none"/><text fill="#000000" stroke="none" font-family="Arial" font-size="13px" font-style="normal" font-weight="normal" text-decoration="none" x="550.5" y="580.5">不存在</text></g></g><g transform="translate(-70,-262) scale(1,1)"><path fill="#C0C0C0" stroke="none" d="M 351 576.5 L 362.5 567 L 373 576.5 L 362.5 585 L 351 576.5" opacity="0.2"/></g><g transform="translate(-70,-262) scale(1,1)"><path fill="#ffffff" stroke="none" d="M 344 569 L 355 560 L 366 569 L 355 578 L 344 569"/></g><g transform="translate(-70,-262) scale(1,1)"><path fill="none" stroke="#000000" d="M 344 569 L 355 560 L 366 569 L 355 578 L 344 569 L 344 569" stroke-miterlimit="10"/></g><g transform="translate(-70,-262) scale(1,1)"><path fill="none" stroke="#000000" d="M 445 513 L 367 562" stroke-miterlimit="10"/></g><g transform="translate(-70,-262) scale(1,1)"><path fill="none" stroke="#000000" d="M 373.36626233353286 553.0294535338899 L 367 562 L 377.84476150398905 560.1584930297181" stroke-miterlimit="10"/></g><g transform="translate(-70,-262) scale(1,1)"><path fill="none" stroke="#000000" d="M 367 577 L 445 631" stroke-miterlimit="10"/></g><g transform="translate(-70,-262) scale(1,1)"><path fill="none" stroke="#000000" d="M 434.2482285730592 628.6763366890146 L 445 631 L 439.04042759863455 621.7542714298503" stroke-miterlimit="10"/></g><g transform="translate(-70,-262) scale(1,1)"><g><path fill="none" stroke="none"/><text fill="#000000" stroke="none" font-family="Arial" font-size="13px" font-style="normal" font-weight="normal" text-decoration="none" x="387.5" y="596.5">处理成功</text></g></g><g transform="translate(-70,-262) scale(1,1)"><path fill="#C0C0C0" stroke="none" d="M 217 639 L 284.0000915527344 639 Q 294.0000915527344 639 294.0000915527344 649 L 294.0000915527344 669 Q 294.0000915527344 679 284.0000915527344 679 L 217 679 Q 207 679 207 669 L 207 649 Q 207 639 217 639 Z" opacity="0.2"/></g><g transform="translate(-70,-262) scale(1,1)"><path fill="#ffffff" stroke="none" d="M 210 632 L 277.0000915527344 632 Q 287.0000915527344 632 287.0000915527344 642 L 287.0000915527344 662 Q 287.0000915527344 672 277.0000915527344 672 L 210 672 Q 200 672 200 662 L 200 642 Q 200 632 210 632 Z"/></g><g transform="translate(-70,-262) scale(1,1)"><path fill="none" stroke="#000000" d="M 210 632 L 277.0000915527344 632 Q 287.0000915527344 632 287.0000915527344 642 L 287.0000915527344 662 Q 287.0000915527344 672 277.0000915527344 672 L 210 672 Q 200 672 200 662 L 200 642 Q 200 632 210 632 Z" stroke-miterlimit="10"/></g><g transform="translate(-70,-262) scale(1,1)"><g><path fill="none" stroke="none"/><text fill="#000000" stroke="none" font-family="Arial" font-size="13px" font-style="normal" font-weight="bold" text-decoration="none" x="204.5" y="650.5">日程添加失败</text></g></g><g transform="translate(-70,-262) scale(1,1)"><path fill="none" stroke="#000000" d="M 343 578 L 271 631" stroke-miterlimit="10"/></g><g transform="translate(-70,-262) scale(1,1)"><path fill="none" stroke="#000000" d="M 276.68890141084626 621.5853093126926 L 271 631 L 281.67985239288 628.3654691373422" stroke-miterlimit="10"/></g><g transform="translate(-70,-262) scale(1,1)"><g><path fill="none" stroke="none"/><text fill="#000000" stroke="none" font-family="Arial" font-size="13px" font-style="normal" font-weight="normal" text-decoration="none" x="262.5" y="594.5">取消处理</text></g></g><g transform="translate(-70,-262) scale(1,1)"><path fill="#C0C0C0" stroke="none" d="M 617 639 L 684.0000915527344 639 Q 694.0000915527344 639 694.0000915527344 649 L 694.0000915527344 669 Q 694.0000915527344 679 684.0000915527344 679 L 617 679 Q 607 679 607 669 L 607 649 Q 607 639 617 639 Z" opacity="0.2"/></g><g transform="translate(-70,-262) scale(1,1)"><path fill="#ffffff" stroke="none" d="M 610 632 L 677.0000915527344 632 Q 687.0000915527344 632 687.0000915527344 642 L 687.0000915527344 662 Q 687.0000915527344 672 677.0000915527344 672 L 610 672 Q 600 672 600 662 L 600 642 Q 600 632 610 632 Z"/></g><g transform="translate(-70,-262) scale(1,1)"><path fill="none" stroke="#000000" d="M 610 632 L 677.0000915527344 632 Q 687.0000915527344 632 687.0000915527344 642 L 687.0000915527344 662 Q 687.0000915527344 672 677.0000915527344 672 L 610 672 Q 600 672 600 662 L 600 642 Q 600 632 610 632 Z" stroke-miterlimit="10"/></g><g transform="translate(-70,-262) scale(1,1)"><g><path fill="none" stroke="none"/><text fill="#000000" stroke="none" font-family="Arial" font-size="13px" font-style="normal" font-weight="bold" text-decoration="none" x="604.5" y="651">用户日程数据</text></g></g><g transform="translate(-70,-262) scale(1,1)"><path fill="none" stroke="#000000" d="M 520 652 L 599 652" stroke-miterlimit="10"/></g><g transform="translate(-70,-262) scale(1,1)"><path fill="none" stroke="#000000" d="M 588.8373251423759 656.209517756016 L 599 652 L 588.8373251423758 647.790482243984" stroke-miterlimit="10"/></g><g transform="translate(-70,-262) scale(1,1)"><path fill="none" stroke="#000000" d="M 643 673 L 644 743" stroke-miterlimit="10"/></g><g transform="translate(-70,-262) scale(1,1)"><path fill="none" stroke="#000000" d="M 639.6457454636101 732.8984918238746 L 644 743 L 648.063922021856 732.7782321587569" stroke-miterlimit="10"/></g><g transform="translate(-70,-262) scale(1,1)"><path fill="#C0C0C0" stroke="none" d="M 239 771.5 C 239 764.59644 244.59644 759 251.5 759 C 258.40356 759 264 764.59644 264 771.5 C 264 778.40356 258.40356 784 251.5 784 C 244.59644 784 239 778.40356 239 771.5 Z" opacity="0.2"/></g><g transform="translate(-70,-262) scale(1,1)"><path fill="#ffffff" stroke="none" d="M 232 764.5 C 232 757.59644 237.59644 752 244.5 752 C 251.40356 752 257 757.59644 257 764.5 C 257 771.40356 251.40356 777 244.5 777 C 237.59644 777 232 771.40356 232 764.5 Z"/></g><g transform="translate(-70,-262) scale(1,1)"><path fill="none" stroke="#000000" d="M 232 764.5 C 232 757.59644 237.59644 752 244.5 752 C 251.40356 752 257 757.59644 257 764.5 C 257 771.40356 251.40356 777 244.5 777 C 237.59644 777 232 771.40356 232 764.5 Z" stroke-miterlimit="10"/></g><g transform="translate(-70,-262) scale(1,1)"><path fill="none" stroke="#000000" d="M 235 755 L 253 773" stroke-miterlimit="10"/></g><g transform="translate(-70,-262) scale(1,1)"><path fill="none" stroke="#000000" d="M 253 755 L 235 773" stroke-miterlimit="10"/></g><g transform="translate(-70,-262) scale(1,1)"><path fill="none" stroke="#000000" d="M 243 673 L 244 751" stroke-miterlimit="10"/></g><g transform="translate(-70,-262) scale(1,1)"><path fill="none" stroke="#000000" d="M 239.66054815422046 740.8921239778992 L 244 751 L 248.07889185183717 740.7841964945964" stroke-miterlimit="10"/></g></g></svg>