<svg version="1.1" xmlns="http://www.w3.org/2000/svg" xmlns:xlink="http://www.w3.org/1999/xlink" width="764" height="580"><defs/><g><text fill="#eeeeee" stroke="none" font-family="Arial" font-size="24px" font-style="normal" font-weight="normal" text-decoration="none" x="0" y="0">UNREGISTERED</text><text fill="#eeeeee" stroke="none" font-family="Arial" font-size="24px" font-style="normal" font-weight="normal" text-decoration="none" x="0" y="30">UNREGISTERED</text><text fill="#eeeeee" stroke="none" font-family="Arial" font-size="24px" font-style="normal" font-weight="normal" text-decoration="none" x="0" y="60">UNREGISTERED</text><text fill="#eeeeee" stroke="none" font-family="Arial" font-size="24px" font-style="normal" font-weight="normal" text-decoration="none" x="0" y="90">UNREGISTERED</text><text fill="#eeeeee" stroke="none" font-family="Arial" font-size="24px" font-style="normal" font-weight="normal" text-decoration="none" x="0" y="120">UNREGISTERED</text><text fill="#eeeeee" stroke="none" font-family="Arial" font-size="24px" font-style="normal" font-weight="normal" text-decoration="none" x="0" y="150">UNREGISTERED</text><text fill="#eeeeee" stroke="none" font-family="Arial" font-size="24px" font-style="normal" font-weight="normal" text-decoration="none" x="0" y="180">UNREGISTERED</text><text fill="#eeeeee" stroke="none" font-family="Arial" font-size="24px" font-style="normal" font-weight="normal" text-decoration="none" x="0" y="210">UNREGISTERED</text><text fill="#eeeeee" stroke="none" font-family="Arial" font-size="24px" font-style="normal" font-weight="normal" text-decoration="none" x="0" y="240">UNREGISTERED</text><text fill="#eeeeee" stroke="none" font-family="Arial" font-size="24px" font-style="normal" font-weight="normal" text-decoration="none" x="0" y="270">UNREGISTERED</text><text fill="#eeeeee" stroke="none" font-family="Arial" font-size="24px" font-style="normal" font-weight="normal" text-decoration="none" x="0" y="300">UNREGISTERED</text><text fill="#eeeeee" stroke="none" font-family="Arial" font-size="24px" font-style="normal" font-weight="normal" text-decoration="none" x="0" y="330">UNREGISTERED</text><text fill="#eeeeee" stroke="none" font-family="Arial" font-size="24px" font-style="normal" font-weight="normal" text-decoration="none" x="0" y="360">UNREGISTERED</text><text fill="#eeeeee" stroke="none" font-family="Arial" font-size="24px" font-style="normal" font-weight="normal" text-decoration="none" x="0" y="390">UNREGISTERED</text><text fill="#eeeeee" stroke="none" font-family="Arial" font-size="24px" font-style="normal" font-weight="normal" text-decoration="none" x="0" y="420">UNREGISTERED</text><text fill="#eeeeee" stroke="none" font-family="Arial" font-size="24px" font-style="normal" font-weight="normal" text-decoration="none" x="0" y="450">UNREGISTERED</text><text fill="#eeeeee" stroke="none" font-family="Arial" font-size="24px" font-style="normal" font-weight="normal" text-decoration="none" x="0" y="480">UNREGISTERED</text><text fill="#eeeeee" stroke="none" font-family="Arial" font-size="24px" font-style="normal" font-weight="normal" text-decoration="none" x="0" y="510">UNREGISTERED</text><text fill="#eeeeee" stroke="none" font-family="Arial" font-size="24px" font-style="normal" font-weight="normal" text-decoration="none" x="0" y="540">UNREGISTERED</text><text fill="#eeeeee" stroke="none" font-family="Arial" font-size="24px" font-style="normal" font-weight="normal" text-decoration="none" x="0" y="570">UNREGISTERED</text><text fill="#eeeeee" stroke="none" font-family="Arial" font-size="24px" font-style="normal" font-weight="normal" text-decoration="none" x="200" y="0">UNREGISTERED</text><text fill="#eeeeee" stroke="none" font-family="Arial" font-size="24px" font-style="normal" font-weight="normal" text-decoration="none" x="200" y="30">UNREGISTERED</text><text fill="#eeeeee" stroke="none" font-family="Arial" font-size="24px" font-style="normal" font-weight="normal" text-decoration="none" x="200" y="60">UNREGISTERED</text><text fill="#eeeeee" stroke="none" font-family="Arial" font-size="24px" font-style="normal" font-weight="normal" text-decoration="none" x="200" y="90">UNREGISTERED</text><text fill="#eeeeee" stroke="none" font-family="Arial" font-size="24px" font-style="normal" font-weight="normal" text-decoration="none" x="200" y="120">UNREGISTERED</text><text fill="#eeeeee" stroke="none" font-family="Arial" font-size="24px" font-style="normal" font-weight="normal" text-decoration="none" x="200" y="150">UNREGISTERED</text><text fill="#eeeeee" stroke="none" font-family="Arial" font-size="24px" font-style="normal" font-weight="normal" text-decoration="none" x="200" y="180">UNREGISTERED</text><text fill="#eeeeee" stroke="none" font-family="Arial" font-size="24px" font-style="normal" font-weight="normal" text-decoration="none" x="200" y="210">UNREGISTERED</text><text fill="#eeeeee" stroke="none" font-family="Arial" font-size="24px" font-style="normal" font-weight="normal" text-decoration="none" x="200" y="240">UNREGISTERED</text><text fill="#eeeeee" stroke="none" font-family="Arial" font-size="24px" font-style="normal" font-weight="normal" text-decoration="none" x="200" y="270">UNREGISTERED</text><text fill="#eeeeee" stroke="none" font-family="Arial" font-size="24px" font-style="normal" font-weight="normal" text-decoration="none" x="200" y="300">UNREGISTERED</text><text fill="#eeeeee" stroke="none" font-family="Arial" font-size="24px" font-style="normal" font-weight="normal" text-decoration="none" x="200" y="330">UNREGISTERED</text><text fill="#eeeeee" stroke="none" font-family="Arial" font-size="24px" font-style="normal" font-weight="normal" text-decoration="none" x="200" y="360">UNREGISTERED</text><text fill="#eeeeee" stroke="none" font-family="Arial" font-size="24px" font-style="normal" font-weight="normal" text-decoration="none" x="200" y="390">UNREGISTERED</text><text fill="#eeeeee" stroke="none" font-family="Arial" font-size="24px" font-style="normal" font-weight="normal" text-decoration="none" x="200" y="420">UNREGISTERED</text><text fill="#eeeeee" stroke="none" font-family="Arial" font-size="24px" font-style="normal" font-weight="normal" text-decoration="none" x="200" y="450">UNREGISTERED</text><text fill="#eeeeee" stroke="none" font-family="Arial" font-size="24px" font-style="normal" font-weight="normal" text-decoration="none" x="200" y="480">UNREGISTERED</text><text fill="#eeeeee" stroke="none" font-family="Arial" font-size="24px" font-style="normal" font-weight="normal" text-decoration="none" x="200" y="510">UNREGISTERED</text><text fill="#eeeeee" stroke="none" font-family="Arial" font-size="24px" font-style="normal" font-weight="normal" text-decoration="none" x="200" y="540">UNREGISTERED</text><text fill="#eeeeee" stroke="none" font-family="Arial" font-size="24px" font-style="normal" font-weight="normal" text-decoration="none" x="200" y="570">UNREGISTERED</text><text fill="#eeeeee" stroke="none" font-family="Arial" font-size="24px" font-style="normal" font-weight="normal" text-decoration="none" x="400" y="0">UNREGISTERED</text><text fill="#eeeeee" stroke="none" font-family="Arial" font-size="24px" font-style="normal" font-weight="normal" text-decoration="none" x="400" y="30">UNREGISTERED</text><text fill="#eeeeee" stroke="none" font-family="Arial" font-size="24px" font-style="normal" font-weight="normal" text-decoration="none" x="400" y="60">UNREGISTERED</text><text fill="#eeeeee" stroke="none" font-family="Arial" font-size="24px" font-style="normal" font-weight="normal" text-decoration="none" x="400" y="90">UNREGISTERED</text><text fill="#eeeeee" stroke="none" font-family="Arial" font-size="24px" font-style="normal" font-weight="normal" text-decoration="none" x="400" y="120">UNREGISTERED</text><text fill="#eeeeee" stroke="none" font-family="Arial" font-size="24px" font-style="normal" font-weight="normal" text-decoration="none" x="400" y="150">UNREGISTERED</text><text fill="#eeeeee" stroke="none" font-family="Arial" font-size="24px" font-style="normal" font-weight="normal" text-decoration="none" x="400" y="180">UNREGISTERED</text><text fill="#eeeeee" stroke="none" font-family="Arial" font-size="24px" font-style="normal" font-weight="normal" text-decoration="none" x="400" y="210">UNREGISTERED</text><text fill="#eeeeee" stroke="none" font-family="Arial" font-size="24px" font-style="normal" font-weight="normal" text-decoration="none" x="400" y="240">UNREGISTERED</text><text fill="#eeeeee" stroke="none" font-family="Arial" font-size="24px" font-style="normal" font-weight="normal" text-decoration="none" x="400" y="270">UNREGISTERED</text><text fill="#eeeeee" stroke="none" font-family="Arial" font-size="24px" font-style="normal" font-weight="normal" text-decoration="none" x="400" y="300">UNREGISTERED</text><text fill="#eeeeee" stroke="none" font-family="Arial" font-size="24px" font-style="normal" font-weight="normal" text-decoration="none" x="400" y="330">UNREGISTERED</text><text fill="#eeeeee" stroke="none" font-family="Arial" font-size="24px" font-style="normal" font-weight="normal" text-decoration="none" x="400" y="360">UNREGISTERED</text><text fill="#eeeeee" stroke="none" font-family="Arial" font-size="24px" font-style="normal" font-weight="normal" text-decoration="none" x="400" y="390">UNREGISTERED</text><text fill="#eeeeee" stroke="none" font-family="Arial" font-size="24px" font-style="normal" font-weight="normal" text-decoration="none" x="400" y="420">UNREGISTERED</text><text fill="#eeeeee" stroke="none" font-family="Arial" font-size="24px" font-style="normal" font-weight="normal" text-decoration="none" x="400" y="450">UNREGISTERED</text><text fill="#eeeeee" stroke="none" font-family="Arial" font-size="24px" font-style="normal" font-weight="normal" text-decoration="none" x="400" y="480">UNREGISTERED</text><text fill="#eeeeee" stroke="none" font-family="Arial" font-size="24px" font-style="normal" font-weight="normal" text-decoration="none" x="400" y="510">UNREGISTERED</text><text fill="#eeeeee" stroke="none" font-family="Arial" font-size="24px" font-style="normal" font-weight="normal" text-decoration="none" x="400" y="540">UNREGISTERED</text><text fill="#eeeeee" stroke="none" font-family="Arial" font-size="24px" font-style="normal" font-weight="normal" text-decoration="none" x="400" y="570">UNREGISTERED</text><text fill="#eeeeee" stroke="none" font-family="Arial" font-size="24px" font-style="normal" font-weight="normal" text-decoration="none" x="600" y="0">UNREGISTERED</text><text fill="#eeeeee" stroke="none" font-family="Arial" font-size="24px" font-style="normal" font-weight="normal" text-decoration="none" x="600" y="30">UNREGISTERED</text><text fill="#eeeeee" stroke="none" font-family="Arial" font-size="24px" font-style="normal" font-weight="normal" text-decoration="none" x="600" y="60">UNREGISTERED</text><text fill="#eeeeee" stroke="none" font-family="Arial" font-size="24px" font-style="normal" font-weight="normal" text-decoration="none" x="600" y="90">UNREGISTERED</text><text fill="#eeeeee" stroke="none" font-family="Arial" font-size="24px" font-style="normal" font-weight="normal" text-decoration="none" x="600" y="120">UNREGISTERED</text><text fill="#eeeeee" stroke="none" font-family="Arial" font-size="24px" font-style="normal" font-weight="normal" text-decoration="none" x="600" y="150">UNREGISTERED</text><text fill="#eeeeee" stroke="none" font-family="Arial" font-size="24px" font-style="normal" font-weight="normal" text-decoration="none" x="600" y="180">UNREGISTERED</text><text fill="#eeeeee" stroke="none" font-family="Arial" font-size="24px" font-style="normal" font-weight="normal" text-decoration="none" x="600" y="210">UNREGISTERED</text><text fill="#eeeeee" stroke="none" font-family="Arial" font-size="24px" font-style="normal" font-weight="normal" text-decoration="none" x="600" y="240">UNREGISTERED</text><text fill="#eeeeee" stroke="none" font-family="Arial" font-size="24px" font-style="normal" font-weight="normal" text-decoration="none" x="600" y="270">UNREGISTERED</text><text fill="#eeeeee" stroke="none" font-family="Arial" font-size="24px" font-style="normal" font-weight="normal" text-decoration="none" x="600" y="300">UNREGISTERED</text><text fill="#eeeeee" stroke="none" font-family="Arial" font-size="24px" font-style="normal" font-weight="normal" text-decoration="none" x="600" y="330">UNREGISTERED</text><text fill="#eeeeee" stroke="none" font-family="Arial" font-size="24px" font-style="normal" font-weight="normal" text-decoration="none" x="600" y="360">UNREGISTERED</text><text fill="#eeeeee" stroke="none" font-family="Arial" font-size="24px" font-style="normal" font-weight="normal" text-decoration="none" x="600" y="390">UNREGISTERED</text><text fill="#eeeeee" stroke="none" font-family="Arial" font-size="24px" font-style="normal" font-weight="normal" text-decoration="none" x="600" y="420">UNREGISTERED</text><text fill="#eeeeee" stroke="none" font-family="Arial" font-size="24px" font-style="normal" font-weight="normal" text-decoration="none" x="600" y="450">UNREGISTERED</text><text fill="#eeeeee" stroke="none" font-family="Arial" font-size="24px" font-style="normal" font-weight="normal" text-decoration="none" x="600" y="480">UNREGISTERED</text><text fill="#eeeeee" stroke="none" font-family="Arial" font-size="24px" font-style="normal" font-weight="normal" text-decoration="none" x="600" y="510">UNREGISTERED</text><text fill="#eeeeee" stroke="none" font-family="Arial" font-size="24px" font-style="normal" font-weight="normal" text-decoration="none" x="600" y="540">UNREGISTERED</text><text fill="#eeeeee" stroke="none" font-family="Arial" font-size="24px" font-style="normal" font-weight="normal" text-decoration="none" x="600" y="570">UNREGISTERED</text><g transform="translate(-174,-126) scale(1,1)"><rect fill="#C0C0C0" stroke="none" x="191" y="143" width="744" height="560" opacity="0.2"/></g><g transform="translate(-174,-126) scale(1,1)"><rect fill="#ffffff" stroke="none" x="184" y="136" width="744" height="560"/></g><g transform="translate(-174,-126) scale(1,1)"><path fill="none" stroke="#000000" d="M 184 136 L 928 136 L 928 696 L 184 696 L 184 136 Z Z" stroke-miterlimit="10"/></g><g transform="translate(-174,-126) scale(1,1)"><g><path fill="none" stroke="none"/><text fill="#000000" stroke="none" font-family="Arial" font-size="13px" font-style="normal" font-weight="bold" text-decoration="none" x="530" y="154.5">时间管理</text></g></g><g transform="translate(-174,-126) scale(1,1)"><path fill="#ffffff" stroke="none" d="M 280.40935031960225 289.68 C 280.40935031960225 284.886167936 284.29519264454774 281 289.088623046875 281 C 293.88205344920226 281 297.76789577414775 284.886167936 297.76789577414775 289.68 C 297.76789577414775 294.473832064 293.88205344920226 298.36 289.088623046875 298.36 C 284.29519264454774 298.36 280.40935031960225 294.473832064 280.40935031960225 289.68 Z"/></g><g transform="translate(-174,-126) scale(1,1)"><path fill="none" stroke="#000000" d="M 280.40935031960225 289.68 C 280.40935031960225 284.886167936 284.29519264454774 281 289.088623046875 281 C 293.88205344920226 281 297.76789577414775 284.886167936 297.76789577414775 289.68 C 297.76789577414775 294.473832064 293.88205344920226 298.36 289.088623046875 298.36 C 284.29519264454774 298.36 280.40935031960225 294.473832064 280.40935031960225 289.68 Z" stroke-miterlimit="10"/></g><g transform="translate(-174,-126) scale(1,1)"><path fill="none" stroke="#000000" d="M 289.088623046875 298.36 L 289.088623046875 315.64" stroke-miterlimit="10"/></g><g transform="translate(-174,-126) scale(1,1)"><path fill="none" stroke="#000000" d="M 279.89880486505683 304.84 L 298.27844122869317 304.84" stroke-miterlimit="10"/></g><g transform="translate(-174,-126) scale(1,1)"><path fill="none" stroke="#000000" d="M 289.088623046875 315.64 L 276.32498668323865 333" stroke-miterlimit="10"/></g><g transform="translate(-174,-126) scale(1,1)"><path fill="none" stroke="#000000" d="M 289.088623046875 315.64 L 301.85225941051135 333" stroke-miterlimit="10"/></g><g transform="translate(-174,-126) scale(1,1)"><g><path fill="none" stroke="none"/><text fill="#000000" stroke="none" font-family="Arial" font-size="13px" font-style="normal" font-weight="bold" text-decoration="none" x="276.088623046875" y="352.5">用户</text></g></g><g transform="translate(-174,-126) scale(1,1)"><path fill="#C0C0C0" stroke="none" d="M 415 224 C 415 214.6111584 437.6096176 207 465.5 207 C 493.3903824 207 516 214.6111584 516 224 C 516 233.3888416 493.3903824 241 465.5 241 C 437.6096176 241 415 233.3888416 415 224 Z" opacity="0.2"/></g><g transform="translate(-174,-126) scale(1,1)"><path fill="#ffffff" stroke="none" d="M 408 217 C 408 207.6111584 430.6096176 200 458.5 200 C 486.3903824 200 509 207.6111584 509 217 C 509 226.3888416 486.3903824 234 458.5 234 C 430.6096176 234 408 226.3888416 408 217 Z"/></g><g transform="translate(-174,-126) scale(1,1)"><path fill="none" stroke="#000000" d="M 408 217 C 408 207.6111584 430.6096176 200 458.5 200 C 486.3903824 200 509 207.6111584 509 217 C 509 226.3888416 486.3903824 234 458.5 234 C 430.6096176 234 408 226.3888416 408 217 Z" stroke-miterlimit="10"/></g><g transform="translate(-174,-126) scale(1,1)"><g><path fill="none" stroke="none"/><text fill="#000000" stroke="none" font-family="Arial" font-size="13px" font-style="normal" font-weight="bold" text-decoration="none" x="432.5" y="223">创建日程</text></g></g><g transform="translate(-174,-126) scale(1,1)"><path fill="#C0C0C0" stroke="none" d="M 615 224 C 615 214.6111584 637.6096176 207 665.5 207 C 693.3903824 207 716 214.6111584 716 224 C 716 233.3888416 693.3903824 241 665.5 241 C 637.6096176 241 615 233.3888416 615 224 Z" opacity="0.2"/></g><g transform="translate(-174,-126) scale(1,1)"><path fill="#ffffff" stroke="none" d="M 608 217 C 608 207.6111584 630.6096176 200 658.5 200 C 686.3903824 200 709 207.6111584 709 217 C 709 226.3888416 686.3903824 234 658.5 234 C 630.6096176 234 608 226.3888416 608 217 Z"/></g><g transform="translate(-174,-126) scale(1,1)"><path fill="none" stroke="#000000" d="M 608 217 C 608 207.6111584 630.6096176 200 658.5 200 C 686.3903824 200 709 207.6111584 709 217 C 709 226.3888416 686.3903824 234 658.5 234 C 630.6096176 234 608 226.3888416 608 217 Z" stroke-miterlimit="10"/></g><g transform="translate(-174,-126) scale(1,1)"><g><path fill="none" stroke="none"/><text fill="#000000" stroke="none" font-family="Arial" font-size="13px" font-style="normal" font-weight="bold" text-decoration="none" x="632.5" y="223">规划日程</text></g></g><g transform="translate(-174,-126) scale(1,1)"><path fill="#C0C0C0" stroke="none" d="M 407 328 C 407 318.6111584 429.6096176 311 457.5 311 C 485.3903824 311 508 318.6111584 508 328 C 508 337.3888416 485.3903824 345 457.5 345 C 429.6096176 345 407 337.3888416 407 328 Z" opacity="0.2"/></g><g transform="translate(-174,-126) scale(1,1)"><path fill="#ffffff" stroke="none" d="M 400 321 C 400 311.6111584 422.6096176 304 450.5 304 C 478.3903824 304 501 311.6111584 501 321 C 501 330.3888416 478.3903824 338 450.5 338 C 422.6096176 338 400 330.3888416 400 321 Z"/></g><g transform="translate(-174,-126) scale(1,1)"><path fill="none" stroke="#000000" d="M 400 321 C 400 311.6111584 422.6096176 304 450.5 304 C 478.3903824 304 501 311.6111584 501 321 C 501 330.3888416 478.3903824 338 450.5 338 C 422.6096176 338 400 330.3888416 400 321 Z" stroke-miterlimit="10"/></g><g transform="translate(-174,-126) scale(1,1)"><g><path fill="none" stroke="none"/><text fill="#000000" stroke="none" font-family="Arial" font-size="13px" font-style="normal" font-weight="bold" text-decoration="none" x="424.5" y="327">专注模式</text></g></g><g transform="translate(-174,-126) scale(1,1)"><path fill="none" stroke="#000000" d="M 315 303 L 428 235" stroke-miterlimit="10"/></g><g transform="translate(-174,-126) scale(1,1)"><path fill="none" stroke="#000000" d="M 510 217 L 607 217" stroke-miterlimit="10" stroke-dasharray="3"/></g><g transform="translate(-174,-126) scale(1,1)"><path fill="none" stroke="#000000" d="M 596.8373251423759 221.209517756016 L 607 217 L 596.8373251423758 212.790482243984" stroke-miterlimit="10"/></g><g transform="translate(-174,-126) scale(1,1)"><g><path fill="none" stroke="none"/><text fill="#000000" stroke="none" font-family="Arial" font-size="13px" font-style="normal" font-weight="normal" text-decoration="none" x="531.178955078125" y="192">«extend»</text></g></g><g transform="translate(-174,-126) scale(1,1)"><path fill="none" stroke="#000000" d="M 315 319 L 399 320" stroke-miterlimit="10"/></g><g transform="translate(-174,-126) scale(1,1)"><path fill="#C0C0C0" stroke="none" d="M 415 512 C 415 502.6111584 437.6096176 495 465.5 495 C 493.3903824 495 516 502.6111584 516 512 C 516 521.3888416 493.3903824 529 465.5 529 C 437.6096176 529 415 521.3888416 415 512 Z" opacity="0.2"/></g><g transform="translate(-174,-126) scale(1,1)"><path fill="#ffffff" stroke="none" d="M 408 505 C 408 495.6111584 430.6096176 488 458.5 488 C 486.3903824 488 509 495.6111584 509 505 C 509 514.3888416 486.3903824 522 458.5 522 C 430.6096176 522 408 514.3888416 408 505 Z"/></g><g transform="translate(-174,-126) scale(1,1)"><path fill="none" stroke="#000000" d="M 408 505 C 408 495.6111584 430.6096176 488 458.5 488 C 486.3903824 488 509 495.6111584 509 505 C 509 514.3888416 486.3903824 522 458.5 522 C 430.6096176 522 408 514.3888416 408 505 Z" stroke-miterlimit="10"/></g><g transform="translate(-174,-126) scale(1,1)"><g><path fill="none" stroke="none"/><text fill="#000000" stroke="none" font-family="Arial" font-size="13px" font-style="normal" font-weight="bold" text-decoration="none" x="432.5" y="511">进程跟踪</text></g></g><g transform="translate(-174,-126) scale(1,1)"><path fill="none" stroke="#000000" d="M 315 348 L 442 487" stroke-miterlimit="10"/></g><g transform="translate(-174,-126) scale(1,1)"><path fill="#C0C0C0" stroke="none" d="M 415 424 C 415 414.6111584 437.6096176 407 465.5 407 C 493.3903824 407 516 414.6111584 516 424 C 516 433.3888416 493.3903824 441 465.5 441 C 437.6096176 441 415 433.3888416 415 424 Z" opacity="0.2"/></g><g transform="translate(-174,-126) scale(1,1)"><path fill="#ffffff" stroke="none" d="M 408 417 C 408 407.6111584 430.6096176 400 458.5 400 C 486.3903824 400 509 407.6111584 509 417 C 509 426.3888416 486.3903824 434 458.5 434 C 430.6096176 434 408 426.3888416 408 417 Z"/></g><g transform="translate(-174,-126) scale(1,1)"><path fill="none" stroke="#000000" d="M 408 417 C 408 407.6111584 430.6096176 400 458.5 400 C 486.3903824 400 509 407.6111584 509 417 C 509 426.3888416 486.3903824 434 458.5 434 C 430.6096176 434 408 426.3888416 408 417 Z" stroke-miterlimit="10"/></g><g transform="translate(-174,-126) scale(1,1)"><g><path fill="none" stroke="none"/><text fill="#000000" stroke="none" font-family="Arial" font-size="13px" font-style="normal" font-weight="bold" text-decoration="none" x="432.5" y="423">打卡功能</text></g></g><g transform="translate(-174,-126) scale(1,1)"><path fill="none" stroke="#000000" d="M 315 334 L 427 399" stroke-miterlimit="10"/></g><g transform="translate(-174,-126) scale(1,1)"><path fill="#C0C0C0" stroke="none" d="M 599 400 C 599 390.6111584 621.6096176 383 649.5 383 C 677.3903824 383 700 390.6111584 700 400 C 700 409.3888416 677.3903824 417 649.5 417 C 621.6096176 417 599 409.3888416 599 400 Z" opacity="0.2"/></g><g transform="translate(-174,-126) scale(1,1)"><path fill="#ffffff" stroke="none" d="M 592 393 C 592 383.6111584 614.6096176 376 642.5 376 C 670.3903824 376 693 383.6111584 693 393 C 693 402.3888416 670.3903824 410 642.5 410 C 614.6096176 410 592 402.3888416 592 393 Z"/></g><g transform="translate(-174,-126) scale(1,1)"><path fill="none" stroke="#000000" d="M 592 393 C 592 383.6111584 614.6096176 376 642.5 376 C 670.3903824 376 693 383.6111584 693 393 C 693 402.3888416 670.3903824 410 642.5 410 C 614.6096176 410 592 402.3888416 592 393 Z" stroke-miterlimit="10"/></g><g transform="translate(-174,-126) scale(1,1)"><g><path fill="none" stroke="none"/><text fill="#000000" stroke="none" font-family="Arial" font-size="13px" font-style="normal" font-weight="bold" text-decoration="none" x="616.5" y="399">获得奖励</text></g></g><g transform="translate(-174,-126) scale(1,1)"><path fill="none" stroke="#000000" d="M 498 339 L 594 375" stroke-miterlimit="10" stroke-dasharray="3"/></g><g transform="translate(-174,-126) scale(1,1)"><path fill="none" stroke="#000000" d="M 583.0063306467393 375.37314092669993 L 594 375 L 585.962451370579 367.49015232979445" stroke-miterlimit="10"/></g><g transform="translate(-174,-126) scale(1,1)"><g><path fill="none" stroke="none"/><text fill="#000000" stroke="none" font-family="Arial" font-size="13px" font-style="normal" font-weight="normal" text-decoration="none" x="491.470947265625" y="370">«include»</text></g></g><g transform="translate(-174,-126) scale(1,1)"><path fill="none" stroke="#000000" d="M 510 410 L 591 400" stroke-miterlimit="10" stroke-dasharray="3"/></g><g transform="translate(-174,-126) scale(1,1)"><path fill="none" stroke="#000000" d="M 581.4296763077033 405.42299773415635 L 591 400 L 580.3981207468455 397.067397691208" stroke-miterlimit="10"/></g><g transform="translate(-174,-126) scale(1,1)"><g><path fill="none" stroke="none"/><text fill="#000000" stroke="none" font-family="Arial" font-size="13px" font-style="normal" font-weight="normal" text-decoration="none" x="516.470947265625" y="391">«include»</text></g></g><g transform="translate(-174,-126) scale(1,1)"><path fill="#C0C0C0" stroke="none" d="M 687 448 C 687 438.6111584 718.5639216 431 757.5 431 C 796.4360784 431 828 438.6111584 828 448 C 828 457.3888416 796.4360784 465 757.5 465 C 718.5639216 465 687 457.3888416 687 448 Z" opacity="0.2"/></g><g transform="translate(-174,-126) scale(1,1)"><path fill="#ffffff" stroke="none" d="M 680 441 C 680 431.6111584 711.5639216 424 750.5 424 C 789.4360784 424 821 431.6111584 821 441 C 821 450.3888416 789.4360784 458 750.5 458 C 711.5639216 458 680 450.3888416 680 441 Z"/></g><g transform="translate(-174,-126) scale(1,1)"><path fill="none" stroke="#000000" d="M 680 441 C 680 431.6111584 711.5639216 424 750.5 424 C 789.4360784 424 821 431.6111584 821 441 C 821 450.3888416 789.4360784 458 750.5 458 C 711.5639216 458 680 450.3888416 680 441 Z" stroke-miterlimit="10"/></g><g transform="translate(-174,-126) scale(1,1)"><g><path fill="none" stroke="none"/><text fill="#000000" stroke="none" font-family="Arial" font-size="13px" font-style="normal" font-weight="bold" text-decoration="none" x="705" y="447">奖励设置与更新</text></g></g><g transform="translate(-174,-126) scale(1,1)"><path fill="#ffffff" stroke="none" d="M 864.4093503196023 337.68 C 864.4093503196023 332.886167936 868.2951926445477 329 873.088623046875 329 C 877.8820534492023 329 881.7678957741477 332.886167936 881.7678957741477 337.68 C 881.7678957741477 342.473832064 877.8820534492023 346.36 873.088623046875 346.36 C 868.2951926445477 346.36 864.4093503196023 342.473832064 864.4093503196023 337.68 Z"/></g><g transform="translate(-174,-126) scale(1,1)"><path fill="none" stroke="#000000" d="M 864.4093503196023 337.68 C 864.4093503196023 332.886167936 868.2951926445477 329 873.088623046875 329 C 877.8820534492023 329 881.7678957741477 332.886167936 881.7678957741477 337.68 C 881.7678957741477 342.473832064 877.8820534492023 346.36 873.088623046875 346.36 C 868.2951926445477 346.36 864.4093503196023 342.473832064 864.4093503196023 337.68 Z" stroke-miterlimit="10"/></g><g transform="translate(-174,-126) scale(1,1)"><path fill="none" stroke="#000000" d="M 873.088623046875 346.36 L 873.088623046875 363.64" stroke-miterlimit="10"/></g><g transform="translate(-174,-126) scale(1,1)"><path fill="none" stroke="#000000" d="M 863.8988048650568 352.84 L 882.2784412286932 352.84" stroke-miterlimit="10"/></g><g transform="translate(-174,-126) scale(1,1)"><path fill="none" stroke="#000000" d="M 873.088623046875 363.64 L 860.3249866832386 381" stroke-miterlimit="10"/></g><g transform="translate(-174,-126) scale(1,1)"><path fill="none" stroke="#000000" d="M 873.088623046875 363.64 L 885.8522594105114 381" stroke-miterlimit="10"/></g><g transform="translate(-174,-126) scale(1,1)"><g><path fill="none" stroke="none"/><text fill="#000000" stroke="none" font-family="Arial" font-size="13px" font-style="normal" font-weight="bold" text-decoration="none" x="853.588623046875" y="400.5">管理员</text></g></g><g transform="translate(-174,-126) scale(1,1)"><path fill="none" stroke="#000000" d="M 847 383 L 780 423" stroke-miterlimit="10"/></g><g transform="translate(-174,-126) scale(1,1)"><path fill="#C0C0C0" stroke="none" d="M 343 672 C 343 662.6111584 370.5344848 655 404.5 655 C 438.4655152 655 466 662.6111584 466 672 C 466 681.3888416 438.4655152 689 404.5 689 C 370.5344848 689 343 681.3888416 343 672 Z" opacity="0.2"/></g><g transform="translate(-174,-126) scale(1,1)"><path fill="#ffffff" stroke="none" d="M 336 665 C 336 655.6111584 363.5344848 648 397.5 648 C 431.4655152 648 459 655.6111584 459 665 C 459 674.3888416 431.4655152 682 397.5 682 C 363.5344848 682 336 674.3888416 336 665 Z"/></g><g transform="translate(-174,-126) scale(1,1)"><path fill="none" stroke="#000000" d="M 336 665 C 336 655.6111584 363.5344848 648 397.5 648 C 431.4655152 648 459 655.6111584 459 665 C 459 674.3888416 431.4655152 682 397.5 682 C 363.5344848 682 336 674.3888416 336 665 Z" stroke-miterlimit="10"/></g><g transform="translate(-174,-126) scale(1,1)"><g><path fill="none" stroke="none"/><text fill="#000000" stroke="none" font-family="Arial" font-size="13px" font-style="normal" font-weight="bold" text-decoration="none" x="358.5" y="671">查看专注时间</text></g></g><g transform="translate(-174,-126) scale(1,1)"><path fill="#C0C0C0" stroke="none" d="M 407 600 C 407 590.6111584 434.5344848 583 468.5 583 C 502.4655152 583 530 590.6111584 530 600 C 530 609.3888416 502.4655152 617 468.5 617 C 434.5344848 617 407 609.3888416 407 600 Z" opacity="0.2"/></g><g transform="translate(-174,-126) scale(1,1)"><path fill="#ffffff" stroke="none" d="M 400 593 C 400 583.6111584 427.5344848 576 461.5 576 C 495.4655152 576 523 583.6111584 523 593 C 523 602.3888416 495.4655152 610 461.5 610 C 427.5344848 610 400 602.3888416 400 593 Z"/></g><g transform="translate(-174,-126) scale(1,1)"><path fill="none" stroke="#000000" d="M 400 593 C 400 583.6111584 427.5344848 576 461.5 576 C 495.4655152 576 523 583.6111584 523 593 C 523 602.3888416 495.4655152 610 461.5 610 C 427.5344848 610 400 602.3888416 400 593 Z" stroke-miterlimit="10"/></g><g transform="translate(-174,-126) scale(1,1)"><g><path fill="none" stroke="none"/><text fill="#000000" stroke="none" font-family="Arial" font-size="13px" font-style="normal" font-weight="bold" text-decoration="none" x="422.5" y="599.5">查看累积成就</text></g></g><g transform="translate(-174,-126) scale(1,1)"><path fill="none" stroke="#000000" d="M 302 360 L 391 647" stroke-miterlimit="10"/></g><g transform="translate(-174,-126) scale(1,1)"><path fill="none" stroke="#000000" d="M 710 423 L 683 411" stroke-miterlimit="10"/></g><g transform="translate(-174,-126) scale(1,1)"><path fill="none" stroke="#000000" d="M 693.9964167340228 411.28074723810596 L 683 411 L 690.5771225655166 418.9741591172449" stroke-miterlimit="10"/></g><g transform="translate(-174,-126) scale(1,1)"><path fill="none" stroke="#000000" d="M 315 360 L 450 575" stroke-miterlimit="10"/></g></g></svg>