<svg version="1.1" xmlns="http://www.w3.org/2000/svg" xmlns:xlink="http://www.w3.org/1999/xlink" width="884" height="589"><defs/><g><text fill="#eeeeee" stroke="none" font-family="Arial" font-size="24px" font-style="normal" font-weight="normal" text-decoration="none" x="0" y="0">UNREGISTERED</text><text fill="#eeeeee" stroke="none" font-family="Arial" font-size="24px" font-style="normal" font-weight="normal" text-decoration="none" x="0" y="30">UNREGISTERED</text><text fill="#eeeeee" stroke="none" font-family="Arial" font-size="24px" font-style="normal" font-weight="normal" text-decoration="none" x="0" y="60">UNREGISTERED</text><text fill="#eeeeee" stroke="none" font-family="Arial" font-size="24px" font-style="normal" font-weight="normal" text-decoration="none" x="0" y="90">UNREGISTERED</text><text fill="#eeeeee" stroke="none" font-family="Arial" font-size="24px" font-style="normal" font-weight="normal" text-decoration="none" x="0" y="120">UNREGISTERED</text><text fill="#eeeeee" stroke="none" font-family="Arial" font-size="24px" font-style="normal" font-weight="normal" text-decoration="none" x="0" y="150">UNREGISTERED</text><text fill="#eeeeee" stroke="none" font-family="Arial" font-size="24px" font-style="normal" font-weight="normal" text-decoration="none" x="0" y="180">UNREGISTERED</text><text fill="#eeeeee" stroke="none" font-family="Arial" font-size="24px" font-style="normal" font-weight="normal" text-decoration="none" x="0" y="210">UNREGISTERED</text><text fill="#eeeeee" stroke="none" font-family="Arial" font-size="24px" font-style="normal" font-weight="normal" text-decoration="none" x="0" y="240">UNREGISTERED</text><text fill="#eeeeee" stroke="none" font-family="Arial" font-size="24px" font-style="normal" font-weight="normal" text-decoration="none" x="0" y="270">UNREGISTERED</text><text fill="#eeeeee" stroke="none" font-family="Arial" font-size="24px" font-style="normal" font-weight="normal" text-decoration="none" x="0" y="300">UNREGISTERED</text><text fill="#eeeeee" stroke="none" font-family="Arial" font-size="24px" font-style="normal" font-weight="normal" text-decoration="none" x="0" y="330">UNREGISTERED</text><text fill="#eeeeee" stroke="none" font-family="Arial" font-size="24px" font-style="normal" font-weight="normal" text-decoration="none" x="0" y="360">UNREGISTERED</text><text fill="#eeeeee" stroke="none" font-family="Arial" font-size="24px" font-style="normal" font-weight="normal" text-decoration="none" x="0" y="390">UNREGISTERED</text><text fill="#eeeeee" stroke="none" font-family="Arial" font-size="24px" font-style="normal" font-weight="normal" text-decoration="none" x="0" y="420">UNREGISTERED</text><text fill="#eeeeee" stroke="none" font-family="Arial" font-size="24px" font-style="normal" font-weight="normal" text-decoration="none" x="0" y="450">UNREGISTERED</text><text fill="#eeeeee" stroke="none" font-family="Arial" font-size="24px" font-style="normal" font-weight="normal" text-decoration="none" x="0" y="480">UNREGISTERED</text><text fill="#eeeeee" stroke="none" font-family="Arial" font-size="24px" font-style="normal" font-weight="normal" text-decoration="none" x="0" y="510">UNREGISTERED</text><text fill="#eeeeee" stroke="none" font-family="Arial" font-size="24px" font-style="normal" font-weight="normal" text-decoration="none" x="0" y="540">UNREGISTERED</text><text fill="#eeeeee" stroke="none" font-family="Arial" font-size="24px" font-style="normal" font-weight="normal" text-decoration="none" x="0" y="570">UNREGISTERED</text><text fill="#eeeeee" stroke="none" font-family="Arial" font-size="24px" font-style="normal" font-weight="normal" text-decoration="none" x="200" y="0">UNREGISTERED</text><text fill="#eeeeee" stroke="none" font-family="Arial" font-size="24px" font-style="normal" font-weight="normal" text-decoration="none" x="200" y="30">UNREGISTERED</text><text fill="#eeeeee" stroke="none" font-family="Arial" font-size="24px" font-style="normal" font-weight="normal" text-decoration="none" x="200" y="60">UNREGISTERED</text><text fill="#eeeeee" stroke="none" font-family="Arial" font-size="24px" font-style="normal" font-weight="normal" text-decoration="none" x="200" y="90">UNREGISTERED</text><text fill="#eeeeee" stroke="none" font-family="Arial" font-size="24px" font-style="normal" font-weight="normal" text-decoration="none" x="200" y="120">UNREGISTERED</text><text fill="#eeeeee" stroke="none" font-family="Arial" font-size="24px" font-style="normal" font-weight="normal" text-decoration="none" x="200" y="150">UNREGISTERED</text><text fill="#eeeeee" stroke="none" font-family="Arial" font-size="24px" font-style="normal" font-weight="normal" text-decoration="none" x="200" y="180">UNREGISTERED</text><text fill="#eeeeee" stroke="none" font-family="Arial" font-size="24px" font-style="normal" font-weight="normal" text-decoration="none" x="200" y="210">UNREGISTERED</text><text fill="#eeeeee" stroke="none" font-family="Arial" font-size="24px" font-style="normal" font-weight="normal" text-decoration="none" x="200" y="240">UNREGISTERED</text><text fill="#eeeeee" stroke="none" font-family="Arial" font-size="24px" font-style="normal" font-weight="normal" text-decoration="none" x="200" y="270">UNREGISTERED</text><text fill="#eeeeee" stroke="none" font-family="Arial" font-size="24px" font-style="normal" font-weight="normal" text-decoration="none" x="200" y="300">UNREGISTERED</text><text fill="#eeeeee" stroke="none" font-family="Arial" font-size="24px" font-style="normal" font-weight="normal" text-decoration="none" x="200" y="330">UNREGISTERED</text><text fill="#eeeeee" stroke="none" font-family="Arial" font-size="24px" font-style="normal" font-weight="normal" text-decoration="none" x="200" y="360">UNREGISTERED</text><text fill="#eeeeee" stroke="none" font-family="Arial" font-size="24px" font-style="normal" font-weight="normal" text-decoration="none" x="200" y="390">UNREGISTERED</text><text fill="#eeeeee" stroke="none" font-family="Arial" font-size="24px" font-style="normal" font-weight="normal" text-decoration="none" x="200" y="420">UNREGISTERED</text><text fill="#eeeeee" stroke="none" font-family="Arial" font-size="24px" font-style="normal" font-weight="normal" text-decoration="none" x="200" y="450">UNREGISTERED</text><text fill="#eeeeee" stroke="none" font-family="Arial" font-size="24px" font-style="normal" font-weight="normal" text-decoration="none" x="200" y="480">UNREGISTERED</text><text fill="#eeeeee" stroke="none" font-family="Arial" font-size="24px" font-style="normal" font-weight="normal" text-decoration="none" x="200" y="510">UNREGISTERED</text><text fill="#eeeeee" stroke="none" font-family="Arial" font-size="24px" font-style="normal" font-weight="normal" text-decoration="none" x="200" y="540">UNREGISTERED</text><text fill="#eeeeee" stroke="none" font-family="Arial" font-size="24px" font-style="normal" font-weight="normal" text-decoration="none" x="200" y="570">UNREGISTERED</text><text fill="#eeeeee" stroke="none" font-family="Arial" font-size="24px" font-style="normal" font-weight="normal" text-decoration="none" x="400" y="0">UNREGISTERED</text><text fill="#eeeeee" stroke="none" font-family="Arial" font-size="24px" font-style="normal" font-weight="normal" text-decoration="none" x="400" y="30">UNREGISTERED</text><text fill="#eeeeee" stroke="none" font-family="Arial" font-size="24px" font-style="normal" font-weight="normal" text-decoration="none" x="400" y="60">UNREGISTERED</text><text fill="#eeeeee" stroke="none" font-family="Arial" font-size="24px" font-style="normal" font-weight="normal" text-decoration="none" x="400" y="90">UNREGISTERED</text><text fill="#eeeeee" stroke="none" font-family="Arial" font-size="24px" font-style="normal" font-weight="normal" text-decoration="none" x="400" y="120">UNREGISTERED</text><text fill="#eeeeee" stroke="none" font-family="Arial" font-size="24px" font-style="normal" font-weight="normal" text-decoration="none" x="400" y="150">UNREGISTERED</text><text fill="#eeeeee" stroke="none" font-family="Arial" font-size="24px" font-style="normal" font-weight="normal" text-decoration="none" x="400" y="180">UNREGISTERED</text><text fill="#eeeeee" stroke="none" font-family="Arial" font-size="24px" font-style="normal" font-weight="normal" text-decoration="none" x="400" y="210">UNREGISTERED</text><text fill="#eeeeee" stroke="none" font-family="Arial" font-size="24px" font-style="normal" font-weight="normal" text-decoration="none" x="400" y="240">UNREGISTERED</text><text fill="#eeeeee" stroke="none" font-family="Arial" font-size="24px" font-style="normal" font-weight="normal" text-decoration="none" x="400" y="270">UNREGISTERED</text><text fill="#eeeeee" stroke="none" font-family="Arial" font-size="24px" font-style="normal" font-weight="normal" text-decoration="none" x="400" y="300">UNREGISTERED</text><text fill="#eeeeee" stroke="none" font-family="Arial" font-size="24px" font-style="normal" font-weight="normal" text-decoration="none" x="400" y="330">UNREGISTERED</text><text fill="#eeeeee" stroke="none" font-family="Arial" font-size="24px" font-style="normal" font-weight="normal" text-decoration="none" x="400" y="360">UNREGISTERED</text><text fill="#eeeeee" stroke="none" font-family="Arial" font-size="24px" font-style="normal" font-weight="normal" text-decoration="none" x="400" y="390">UNREGISTERED</text><text fill="#eeeeee" stroke="none" font-family="Arial" font-size="24px" font-style="normal" font-weight="normal" text-decoration="none" x="400" y="420">UNREGISTERED</text><text fill="#eeeeee" stroke="none" font-family="Arial" font-size="24px" font-style="normal" font-weight="normal" text-decoration="none" x="400" y="450">UNREGISTERED</text><text fill="#eeeeee" stroke="none" font-family="Arial" font-size="24px" font-style="normal" font-weight="normal" text-decoration="none" x="400" y="480">UNREGISTERED</text><text fill="#eeeeee" stroke="none" font-family="Arial" font-size="24px" font-style="normal" font-weight="normal" text-decoration="none" x="400" y="510">UNREGISTERED</text><text fill="#eeeeee" stroke="none" font-family="Arial" font-size="24px" font-style="normal" font-weight="normal" text-decoration="none" x="400" y="540">UNREGISTERED</text><text fill="#eeeeee" stroke="none" font-family="Arial" font-size="24px" font-style="normal" font-weight="normal" text-decoration="none" x="400" y="570">UNREGISTERED</text><text fill="#eeeeee" stroke="none" font-family="Arial" font-size="24px" font-style="normal" font-weight="normal" text-decoration="none" x="600" y="0">UNREGISTERED</text><text fill="#eeeeee" stroke="none" font-family="Arial" font-size="24px" font-style="normal" font-weight="normal" text-decoration="none" x="600" y="30">UNREGISTERED</text><text fill="#eeeeee" stroke="none" font-family="Arial" font-size="24px" font-style="normal" font-weight="normal" text-decoration="none" x="600" y="60">UNREGISTERED</text><text fill="#eeeeee" stroke="none" font-family="Arial" font-size="24px" font-style="normal" font-weight="normal" text-decoration="none" x="600" y="90">UNREGISTERED</text><text fill="#eeeeee" stroke="none" font-family="Arial" font-size="24px" font-style="normal" font-weight="normal" text-decoration="none" x="600" y="120">UNREGISTERED</text><text fill="#eeeeee" stroke="none" font-family="Arial" font-size="24px" font-style="normal" font-weight="normal" text-decoration="none" x="600" y="150">UNREGISTERED</text><text fill="#eeeeee" stroke="none" font-family="Arial" font-size="24px" font-style="normal" font-weight="normal" text-decoration="none" x="600" y="180">UNREGISTERED</text><text fill="#eeeeee" stroke="none" font-family="Arial" font-size="24px" font-style="normal" font-weight="normal" text-decoration="none" x="600" y="210">UNREGISTERED</text><text fill="#eeeeee" stroke="none" font-family="Arial" font-size="24px" font-style="normal" font-weight="normal" text-decoration="none" x="600" y="240">UNREGISTERED</text><text fill="#eeeeee" stroke="none" font-family="Arial" font-size="24px" font-style="normal" font-weight="normal" text-decoration="none" x="600" y="270">UNREGISTERED</text><text fill="#eeeeee" stroke="none" font-family="Arial" font-size="24px" font-style="normal" font-weight="normal" text-decoration="none" x="600" y="300">UNREGISTERED</text><text fill="#eeeeee" stroke="none" font-family="Arial" font-size="24px" font-style="normal" font-weight="normal" text-decoration="none" x="600" y="330">UNREGISTERED</text><text fill="#eeeeee" stroke="none" font-family="Arial" font-size="24px" font-style="normal" font-weight="normal" text-decoration="none" x="600" y="360">UNREGISTERED</text><text fill="#eeeeee" stroke="none" font-family="Arial" font-size="24px" font-style="normal" font-weight="normal" text-decoration="none" x="600" y="390">UNREGISTERED</text><text fill="#eeeeee" stroke="none" font-family="Arial" font-size="24px" font-style="normal" font-weight="normal" text-decoration="none" x="600" y="420">UNREGISTERED</text><text fill="#eeeeee" stroke="none" font-family="Arial" font-size="24px" font-style="normal" font-weight="normal" text-decoration="none" x="600" y="450">UNREGISTERED</text><text fill="#eeeeee" stroke="none" font-family="Arial" font-size="24px" font-style="normal" font-weight="normal" text-decoration="none" x="600" y="480">UNREGISTERED</text><text fill="#eeeeee" stroke="none" font-family="Arial" font-size="24px" font-style="normal" font-weight="normal" text-decoration="none" x="600" y="510">UNREGISTERED</text><text fill="#eeeeee" stroke="none" font-family="Arial" font-size="24px" font-style="normal" font-weight="normal" text-decoration="none" x="600" y="540">UNREGISTERED</text><text fill="#eeeeee" stroke="none" font-family="Arial" font-size="24px" font-style="normal" font-weight="normal" text-decoration="none" x="600" y="570">UNREGISTERED</text><text fill="#eeeeee" stroke="none" font-family="Arial" font-size="24px" font-style="normal" font-weight="normal" text-decoration="none" x="800" y="0">UNREGISTERED</text><text fill="#eeeeee" stroke="none" font-family="Arial" font-size="24px" font-style="normal" font-weight="normal" text-decoration="none" x="800" y="30">UNREGISTERED</text><text fill="#eeeeee" stroke="none" font-family="Arial" font-size="24px" font-style="normal" font-weight="normal" text-decoration="none" x="800" y="60">UNREGISTERED</text><text fill="#eeeeee" stroke="none" font-family="Arial" font-size="24px" font-style="normal" font-weight="normal" text-decoration="none" x="800" y="90">UNREGISTERED</text><text fill="#eeeeee" stroke="none" font-family="Arial" font-size="24px" font-style="normal" font-weight="normal" text-decoration="none" x="800" y="120">UNREGISTERED</text><text fill="#eeeeee" stroke="none" font-family="Arial" font-size="24px" font-style="normal" font-weight="normal" text-decoration="none" x="800" y="150">UNREGISTERED</text><text fill="#eeeeee" stroke="none" font-family="Arial" font-size="24px" font-style="normal" font-weight="normal" text-decoration="none" x="800" y="180">UNREGISTERED</text><text fill="#eeeeee" stroke="none" font-family="Arial" font-size="24px" font-style="normal" font-weight="normal" text-decoration="none" x="800" y="210">UNREGISTERED</text><text fill="#eeeeee" stroke="none" font-family="Arial" font-size="24px" font-style="normal" font-weight="normal" text-decoration="none" x="800" y="240">UNREGISTERED</text><text fill="#eeeeee" stroke="none" font-family="Arial" font-size="24px" font-style="normal" font-weight="normal" text-decoration="none" x="800" y="270">UNREGISTERED</text><text fill="#eeeeee" stroke="none" font-family="Arial" font-size="24px" font-style="normal" font-weight="normal" text-decoration="none" x="800" y="300">UNREGISTERED</text><text fill="#eeeeee" stroke="none" font-family="Arial" font-size="24px" font-style="normal" font-weight="normal" text-decoration="none" x="800" y="330">UNREGISTERED</text><text fill="#eeeeee" stroke="none" font-family="Arial" font-size="24px" font-style="normal" font-weight="normal" text-decoration="none" x="800" y="360">UNREGISTERED</text><text fill="#eeeeee" stroke="none" font-family="Arial" font-size="24px" font-style="normal" font-weight="normal" text-decoration="none" x="800" y="390">UNREGISTERED</text><text fill="#eeeeee" stroke="none" font-family="Arial" font-size="24px" font-style="normal" font-weight="normal" text-decoration="none" x="800" y="420">UNREGISTERED</text><text fill="#eeeeee" stroke="none" font-family="Arial" font-size="24px" font-style="normal" font-weight="normal" text-decoration="none" x="800" y="450">UNREGISTERED</text><text fill="#eeeeee" stroke="none" font-family="Arial" font-size="24px" font-style="normal" font-weight="normal" text-decoration="none" x="800" y="480">UNREGISTERED</text><text fill="#eeeeee" stroke="none" font-family="Arial" font-size="24px" font-style="normal" font-weight="normal" text-decoration="none" x="800" y="510">UNREGISTERED</text><text fill="#eeeeee" stroke="none" font-family="Arial" font-size="24px" font-style="normal" font-weight="normal" text-decoration="none" x="800" y="540">UNREGISTERED</text><text fill="#eeeeee" stroke="none" font-family="Arial" font-size="24px" font-style="normal" font-weight="normal" text-decoration="none" x="800" y="570">UNREGISTERED</text><g transform="translate(-62,-86) scale(1,1)"><path fill="#C0C0C0" stroke="none" d="M 79 168.5 C 79 163.2532944 83.2532944 159 88.5 159 C 93.7467056 159 98 163.2532944 98 168.5 C 98 173.7467056 93.7467056 178 88.5 178 C 83.2532944 178 79 173.7467056 79 168.5 Z" opacity="0.2"/></g><g transform="translate(-62,-86) scale(1,1)"><path fill="#000000" stroke="none" d="M 72 161.5 C 72 156.2532944 76.2532944 152 81.5 152 C 86.7467056 152 91 156.2532944 91 161.5 C 91 166.7467056 86.7467056 171 81.5 171 C 76.2532944 171 72 166.7467056 72 161.5 Z"/></g><g transform="translate(-62,-86) scale(1,1)"><rect fill="#ffffff" stroke="none" x="408" y="96" width="288" height="21"/></g><g transform="translate(-62,-86) scale(1,1)"><path fill="none" stroke="#000000" d="M 408 96 L 696 96 L 696 117 L 408 117 L 408 96 Z Z" stroke-miterlimit="10" stroke-width="2"/></g><g transform="translate(-62,-86) scale(1,1)"><path fill="none" stroke="#000000" d="M 408 655 L 408 96 L 696 96 L 696 655" stroke-miterlimit="10" stroke-width="2"/></g><g transform="translate(-62,-86) scale(1,1)"><g><path fill="none" stroke="none"/><text fill="#000000" stroke="none" font-family="Arial" font-size="13px" font-style="normal" font-weight="normal" text-decoration="none" x="531.41455078125" y="109">system</text></g></g><g transform="translate(-62,-86) scale(1,1)"><rect fill="#ffffff" stroke="none" x="120" y="96" width="288" height="21"/></g><g transform="translate(-62,-86) scale(1,1)"><path fill="none" stroke="#000000" d="M 120 96 L 408 96 L 408 117 L 120 117 L 120 96 Z Z" stroke-miterlimit="10" stroke-width="2"/></g><g transform="translate(-62,-86) scale(1,1)"><path fill="none" stroke="#000000" d="M 120 655 L 120 96 L 408 96 L 408 655" stroke-miterlimit="10" stroke-width="2"/></g><g transform="translate(-62,-86) scale(1,1)"><g><path fill="none" stroke="none"/><text fill="#000000" stroke="none" font-family="Arial" font-size="13px" font-style="normal" font-weight="normal" text-decoration="none" x="251.35546875" y="107">user</text></g></g><g transform="translate(-62,-86) scale(1,1)"><path fill="#C0C0C0" stroke="none" d="M 185 231 L 278 231 Q 288 231 288 241 L 288 261 Q 288 271 278 271 L 185 271 Q 175 271 175 261 L 175 241 Q 175 231 185 231 Z" opacity="0.2"/></g><g transform="translate(-62,-86) scale(1,1)"><path fill="#ffffff" stroke="none" d="M 178 224 L 271 224 Q 281 224 281 234 L 281 254 Q 281 264 271 264 L 178 264 Q 168 264 168 254 L 168 234 Q 168 224 178 224 Z"/></g><g transform="translate(-62,-86) scale(1,1)"><path fill="none" stroke="#000000" d="M 178 224 L 271 224 Q 281 224 281 234 L 281 254 Q 281 264 271 264 L 178 264 Q 168 264 168 254 L 168 234 Q 168 224 178 224 Z" stroke-miterlimit="10"/></g><g transform="translate(-62,-86) scale(1,1)"><g><path fill="none" stroke="none"/><text fill="#000000" stroke="none" font-family="Arial" font-size="13px" font-style="normal" font-weight="bold" text-decoration="none" x="179" y="242.5">点击“添加好友”</text></g></g><g transform="translate(-62,-86) scale(1,1)"><path fill="#C0C0C0" stroke="none" d="M 185 151 L 252 151 Q 262 151 262 161 L 262 181 Q 262 191 252 191 L 185 191 Q 175 191 175 181 L 175 161 Q 175 151 185 151 Z" opacity="0.2"/></g><g transform="translate(-62,-86) scale(1,1)"><path fill="#ffffff" stroke="none" d="M 178 144 L 245 144 Q 255 144 255 154 L 255 174 Q 255 184 245 184 L 178 184 Q 168 184 168 174 L 168 154 Q 168 144 178 144 Z"/></g><g transform="translate(-62,-86) scale(1,1)"><path fill="none" stroke="#000000" d="M 178 144 L 245 144 Q 255 144 255 154 L 255 174 Q 255 184 245 184 L 178 184 Q 168 184 168 174 L 168 154 Q 168 144 178 144 Z" stroke-miterlimit="10"/></g><g transform="translate(-62,-86) scale(1,1)"><g><path fill="none" stroke="none"/><text fill="#000000" stroke="none" font-family="Arial" font-size="13px" font-style="normal" font-weight="bold" text-decoration="none" x="172.5" y="162.5">进入社交页面</text></g></g><g transform="translate(-62,-86) scale(1,1)"><path fill="#C0C0C0" stroke="none" d="M 161 319 L 306 319 Q 316 319 316 329 L 316 349 Q 316 359 306 359 L 161 359 Q 151 359 151 349 L 151 329 Q 151 319 161 319 Z" opacity="0.2"/></g><g transform="translate(-62,-86) scale(1,1)"><path fill="#ffffff" stroke="none" d="M 154 312 L 299 312 Q 309 312 309 322 L 309 342 Q 309 352 299 352 L 154 352 Q 144 352 144 342 L 144 322 Q 144 312 154 312 Z"/></g><g transform="translate(-62,-86) scale(1,1)"><path fill="none" stroke="#000000" d="M 154 312 L 299 312 Q 309 312 309 322 L 309 342 Q 309 352 299 352 L 154 352 Q 144 352 144 342 L 144 322 Q 144 312 154 312 Z" stroke-miterlimit="10"/></g><g transform="translate(-62,-86) scale(1,1)"><g><path fill="none" stroke="none"/><text fill="#000000" stroke="none" font-family="Arial" font-size="13px" font-style="normal" font-weight="bold" text-decoration="none" x="148.5" y="330.5">输入目标用户名或邮箱地址</text></g></g><g transform="translate(-62,-86) scale(1,1)"><path fill="#C0C0C0" stroke="none" d="M 623 336.5 L 634.5 327 L 645 336.5 L 634.5 345 L 623 336.5" opacity="0.2"/></g><g transform="translate(-62,-86) scale(1,1)"><path fill="#ffffff" stroke="none" d="M 616 329 L 627 320 L 638 329 L 627 338 L 616 329"/></g><g transform="translate(-62,-86) scale(1,1)"><path fill="none" stroke="#000000" d="M 616 329 L 627 320 L 638 329 L 627 338 L 616 329 L 616 329" stroke-miterlimit="10"/></g><g transform="translate(-62,-86) scale(1,1)"><path fill="none" stroke="#000000" d="M 580 330 L 615 329" stroke-miterlimit="10"/></g><g transform="translate(-62,-86) scale(1,1)"><path fill="none" stroke="#000000" d="M 604.961693510381 333.4980443328709 L 615 329 L 604.7212477597106 325.0824430594122" stroke-miterlimit="10"/></g><g transform="translate(-62,-86) scale(1,1)"><path fill="none" stroke="#000000" d="M 619 339 L 568 407" stroke-miterlimit="10"/></g><g transform="translate(-62,-86) scale(1,1)"><path fill="none" stroke="#000000" d="M 570.7299907097618 396.3441494602911 L 568 407 L 577.4652191193873 401.39557076751026" stroke-miterlimit="10"/></g><g transform="translate(-62,-86) scale(1,1)"><g><path fill="none" stroke="none"/><text fill="#000000" stroke="none" font-family="Arial" font-size="13px" font-style="normal" font-weight="normal" text-decoration="none" x="540.5" y="373.5">用户存在</text></g></g><g transform="translate(-62,-86) scale(1,1)"><path fill="none" stroke="#000000" d="M 627 319 L 627 257" stroke-miterlimit="10"/></g><g transform="translate(-62,-86) scale(1,1)"><path fill="none" stroke="#000000" d="M 631.209517756016 267.16267485762415 L 627 257 L 622.790482243984 267.16267485762415" stroke-miterlimit="10"/></g><g transform="translate(-62,-86) scale(1,1)"><g><path fill="none" stroke="none"/><text fill="#000000" stroke="none" font-family="Arial" font-size="13px" font-style="normal" font-weight="normal" text-decoration="none" x="574.5" y="274.5">用户不存在</text></g></g><g transform="translate(-62,-86) scale(1,1)"><path fill="#C0C0C0" stroke="none" d="M 513 415 L 606 415 Q 616 415 616 425 L 616 445 Q 616 455 606 455 L 513 455 Q 503 455 503 445 L 503 425 Q 503 415 513 415 Z" opacity="0.2"/></g><g transform="translate(-62,-86) scale(1,1)"><path fill="#ffffff" stroke="none" d="M 506 408 L 599 408 Q 609 408 609 418 L 609 438 Q 609 448 599 448 L 506 448 Q 496 448 496 438 L 496 418 Q 496 408 506 408 Z"/></g><g transform="translate(-62,-86) scale(1,1)"><path fill="none" stroke="#000000" d="M 506 408 L 599 408 Q 609 408 609 418 L 609 438 Q 609 448 599 448 L 506 448 Q 496 448 496 438 L 496 418 Q 496 408 506 408 Z" stroke-miterlimit="10"/></g><g transform="translate(-62,-86) scale(1,1)"><g><path fill="none" stroke="none"/><text fill="#000000" stroke="none" font-family="Arial" font-size="13px" font-style="normal" font-weight="bold" text-decoration="none" x="500.5" y="426.5">显示目标好友信息</text></g></g><g transform="translate(-62,-86) scale(1,1)"><path fill="#C0C0C0" stroke="none" d="M 297 415 L 390 415 Q 400 415 400 425 L 400 445 Q 400 455 390 455 L 297 455 Q 287 455 287 445 L 287 425 Q 287 415 297 415 Z" opacity="0.2"/></g><g transform="translate(-62,-86) scale(1,1)"><path fill="#ffffff" stroke="none" d="M 290 408 L 383 408 Q 393 408 393 418 L 393 438 Q 393 448 383 448 L 290 448 Q 280 448 280 438 L 280 418 Q 280 408 290 408 Z"/></g><g transform="translate(-62,-86) scale(1,1)"><path fill="none" stroke="#000000" d="M 290 408 L 383 408 Q 393 408 393 418 L 393 438 Q 393 448 383 448 L 290 448 Q 280 448 280 438 L 280 418 Q 280 408 290 408 Z" stroke-miterlimit="10"/></g><g transform="translate(-62,-86) scale(1,1)"><g><path fill="none" stroke="none"/><text fill="#000000" stroke="none" font-family="Arial" font-size="13px" font-style="normal" font-weight="bold" text-decoration="none" x="291" y="426.5">点击“发送请求”</text></g></g><g transform="translate(-62,-86) scale(1,1)"><path fill="none" stroke="#000000" d="M 495 428 L 394 428" stroke-miterlimit="10"/></g><g transform="translate(-62,-86) scale(1,1)"><path fill="none" stroke="#000000" d="M 404.16267485762415 423.790482243984 L 394 428 L 404.16267485762415 432.209517756016" stroke-miterlimit="10"/></g><g transform="translate(-62,-86) scale(1,1)"><path fill="none" stroke="#000000" d="M 388 449 L 503 495" stroke-miterlimit="10"/></g><g transform="translate(-62,-86) scale(1,1)"><path fill="none" stroke="#000000" d="M 492.00081763111893 495.13411642738856 L 503 495 L 495.1275689241817 487.31723819473166" stroke-miterlimit="10"/></g><g transform="translate(-62,-86) scale(1,1)"><path fill="#C0C0C0" stroke="none" d="M 601 223 L 668 223 Q 678 223 678 233 L 678 253 Q 678 263 668 263 L 601 263 Q 591 263 591 253 L 591 233 Q 591 223 601 223 Z" opacity="0.2"/></g><g transform="translate(-62,-86) scale(1,1)"><path fill="#ffffff" stroke="none" d="M 594 216 L 661 216 Q 671 216 671 226 L 671 246 Q 671 256 661 256 L 594 256 Q 584 256 584 246 L 584 226 Q 584 216 594 216 Z"/></g><g transform="translate(-62,-86) scale(1,1)"><path fill="none" stroke="#000000" d="M 594 216 L 661 216 Q 671 216 671 226 L 671 246 Q 671 256 661 256 L 594 256 Q 584 256 584 246 L 584 226 Q 584 216 594 216 Z" stroke-miterlimit="10"/></g><g transform="translate(-62,-86) scale(1,1)"><g><path fill="none" stroke="none"/><text fill="#000000" stroke="none" font-family="Arial" font-size="13px" font-style="normal" font-weight="bold" text-decoration="none" x="588.5" y="234.5">提示失败信息</text></g></g><g transform="translate(-62,-86) scale(1,1)"><path fill="none" stroke="#000000" d="M 625 215 L 621 170" stroke-miterlimit="10"/></g><g transform="translate(-62,-86) scale(1,1)"><path fill="none" stroke="#000000" d="M 626.092786567894 179.7500525626213 L 621 170 L 617.7068156333388 180.49547220124842" stroke-miterlimit="10"/></g><g transform="translate(-62,-86) scale(1,1)"><path fill="#C0C0C0" stroke="none" d="M 521 503 L 601 503 Q 611 503 611 513 L 611 533 Q 611 543 601 543 L 521 543 Q 511 543 511 533 L 511 513 Q 511 503 521 503 Z" opacity="0.2"/></g><g transform="translate(-62,-86) scale(1,1)"><path fill="#ffffff" stroke="none" d="M 514 496 L 594 496 Q 604 496 604 506 L 604 526 Q 604 536 594 536 L 514 536 Q 504 536 504 526 L 504 506 Q 504 496 514 496 Z"/></g><g transform="translate(-62,-86) scale(1,1)"><path fill="none" stroke="#000000" d="M 514 496 L 594 496 Q 604 496 604 506 L 604 526 Q 604 536 594 536 L 514 536 Q 504 536 504 526 L 504 506 Q 504 496 514 496 Z" stroke-miterlimit="10"/></g><g transform="translate(-62,-86) scale(1,1)"><g><path fill="none" stroke="none"/><text fill="#000000" stroke="none" font-family="Arial" font-size="13px" font-style="normal" font-weight="bold" text-decoration="none" x="508.5" y="514.5">向目标发送请求</text></g></g><g transform="translate(-62,-86) scale(1,1)"><path fill="#C0C0C0" stroke="none" d="M 457 319 L 576 319 Q 586 319 586 329 L 586 349 Q 586 359 576 359 L 457 359 Q 447 359 447 349 L 447 329 Q 447 319 457 319 Z" opacity="0.2"/></g><g transform="translate(-62,-86) scale(1,1)"><path fill="#ffffff" stroke="none" d="M 450 312 L 569 312 Q 579 312 579 322 L 579 342 Q 579 352 569 352 L 450 352 Q 440 352 440 342 L 440 322 Q 440 312 450 312 Z"/></g><g transform="translate(-62,-86) scale(1,1)"><path fill="none" stroke="#000000" d="M 450 312 L 569 312 Q 579 312 579 322 L 579 342 Q 579 352 569 352 L 450 352 Q 440 352 440 342 L 440 322 Q 440 312 450 312 Z" stroke-miterlimit="10"/></g><g transform="translate(-62,-86) scale(1,1)"><g><path fill="none" stroke="none"/><text fill="#000000" stroke="none" font-family="Arial" font-size="13px" font-style="normal" font-weight="bold" text-decoration="none" x="444.5" y="330.5">检索用户名或邮箱地址</text></g></g><g transform="translate(-62,-86) scale(1,1)"><path fill="none" stroke="#000000" d="M 310 332 L 439 332" stroke-miterlimit="10"/></g><g transform="translate(-62,-86) scale(1,1)"><path fill="none" stroke="#000000" d="M 428.83732514237585 336.209517756016 L 439 332 L 428.83732514237585 327.790482243984" stroke-miterlimit="10"/></g><g transform="translate(-62,-86) scale(1,1)"><path fill="none" stroke="#000000" d="M 92 161 L 167 163" stroke-miterlimit="10"/></g><g transform="translate(-62,-86) scale(1,1)"><path fill="none" stroke="#000000" d="M 156.72872269624133 166.93711347935158 L 167 163 L 156.95315052751428 158.52106980661523" stroke-miterlimit="10"/></g><g transform="translate(-62,-86) scale(1,1)"><path fill="none" stroke="#000000" d="M 214 185 L 221 223" stroke-miterlimit="10"/></g><g transform="translate(-62,-86) scale(1,1)"><path fill="none" stroke="#000000" d="M 215.0190414732324 213.76809147028166 L 221 223 L 223.2987687923849 212.24287854306937" stroke-miterlimit="10"/></g><g transform="translate(-62,-86) scale(1,1)"><path fill="none" stroke="#000000" d="M 224 265 L 226 311" stroke-miterlimit="10"/></g><g transform="translate(-62,-86) scale(1,1)"><path fill="none" stroke="#000000" d="M 221.35301697510945 301.02976686499363 L 226 311 L 229.76410625081493 300.6640673312673" stroke-miterlimit="10"/></g><g transform="translate(-62,-86) scale(1,1)"><path fill="none" stroke="#000000" d="M 605 518 L 727 522" stroke-miterlimit="10"/></g><g transform="translate(-62,-86) scale(1,1)"><path fill="none" stroke="#000000" d="M 716.7048402250804 525.8742334995295 L 727 522 L 716.9807259303379 517.4597194891727" stroke-miterlimit="10"/></g><g transform="translate(-62,-86) scale(1,1)"><rect fill="#ffffff" stroke="none" x="696" y="96" width="240" height="21"/></g><g transform="translate(-62,-86) scale(1,1)"><path fill="none" stroke="#000000" d="M 696 96 L 936 96 L 936 117 L 696 117 L 696 96 Z Z" stroke-miterlimit="10" stroke-width="2"/></g><g transform="translate(-62,-86) scale(1,1)"><path fill="none" stroke="#000000" d="M 696 663 L 696 96 L 936 96 L 936 663" stroke-miterlimit="10" stroke-width="2"/></g><g transform="translate(-62,-86) scale(1,1)"><g><path fill="none" stroke="none"/><text fill="#000000" stroke="none" font-family="Arial" font-size="13px" font-style="normal" font-weight="normal" text-decoration="none" x="785.655029296875" y="110">targetUser</text></g></g><g transform="translate(-62,-86) scale(1,1)"><path fill="#C0C0C0" stroke="none" d="M 745 511 L 838 511 Q 848 511 848 521 L 848 541 Q 848 551 838 551 L 745 551 Q 735 551 735 541 L 735 521 Q 735 511 745 511 Z" opacity="0.2"/></g><g transform="translate(-62,-86) scale(1,1)"><path fill="#ffffff" stroke="none" d="M 738 504 L 831 504 Q 841 504 841 514 L 841 534 Q 841 544 831 544 L 738 544 Q 728 544 728 534 L 728 514 Q 728 504 738 504 Z"/></g><g transform="translate(-62,-86) scale(1,1)"><path fill="none" stroke="#000000" d="M 738 504 L 831 504 Q 841 504 841 514 L 841 534 Q 841 544 831 544 L 738 544 Q 728 544 728 534 L 728 514 Q 728 504 738 504 Z" stroke-miterlimit="10"/></g><g transform="translate(-62,-86) scale(1,1)"><g><path fill="none" stroke="none"/><text fill="#000000" stroke="none" font-family="Arial" font-size="13px" font-style="normal" font-weight="bold" text-decoration="none" x="732.5" y="522.5">对方用户接受消息</text></g></g><g transform="translate(-62,-86) scale(1,1)"><path fill="#C0C0C0" stroke="none" d="M 615 163.5 C 615 156.59644 620.59644 151 627.5 151 C 634.40356 151 640 156.59644 640 163.5 C 640 170.40356 634.40356 176 627.5 176 C 620.59644 176 615 170.40356 615 163.5 Z" opacity="0.2"/></g><g transform="translate(-62,-86) scale(1,1)"><path fill="#ffffff" stroke="none" d="M 608 156.5 C 608 149.59644 613.59644 144 620.5 144 C 627.40356 144 633 149.59644 633 156.5 C 633 163.40356 627.40356 169 620.5 169 C 613.59644 169 608 163.40356 608 156.5 Z"/></g><g transform="translate(-62,-86) scale(1,1)"><path fill="none" stroke="#000000" d="M 608 156.5 C 608 149.59644 613.59644 144 620.5 144 C 627.40356 144 633 149.59644 633 156.5 C 633 163.40356 627.40356 169 620.5 169 C 613.59644 169 608 163.40356 608 156.5 Z" stroke-miterlimit="10"/></g><g transform="translate(-62,-86) scale(1,1)"><path fill="none" stroke="#000000" d="M 611 147 L 629 165" stroke-miterlimit="10"/></g><g transform="translate(-62,-86) scale(1,1)"><path fill="none" stroke="#000000" d="M 629 147 L 611 165" stroke-miterlimit="10"/></g><g transform="translate(-62,-86) scale(1,1)"><path fill="none" stroke="#000000" d="M 793 545 L 807 575" stroke-miterlimit="10"/></g><g transform="translate(-62,-86) scale(1,1)"><path fill="none" stroke="#000000" d="M 798.8877584958122 567.5708992618397 L 807 575 L 806.5169465318371 564.0106115116947" stroke-miterlimit="10"/></g><g transform="translate(-62,-86) scale(1,1)"><path fill="none" stroke="#000000" d="M 805 595 L 780 639" stroke-miterlimit="10"/></g><g transform="translate(-62,-86) scale(1,1)"><path fill="none" stroke="#000000" d="M 781.3604641697137 628.0844543314169 L 780 639 L 788.6804498025725 632.2435370773593" stroke-miterlimit="10"/></g><g transform="translate(-62,-86) scale(1,1)"><g><path fill="none" stroke="none"/><text fill="#000000" stroke="none" font-family="Arial" font-size="13px" font-style="normal" font-weight="normal" text-decoration="none" x="739.5" y="601.5">接受邀请</text></g></g><g transform="translate(-62,-86) scale(1,1)"><path fill="none" stroke="#000000" d="M 818 595 L 850 639" stroke-miterlimit="10"/></g><g transform="translate(-62,-86) scale(1,1)"><path fill="none" stroke="#000000" d="M 840.6182133692665 633.2569973345478 L 850 639 L 847.4269911828768 628.3051589246494" stroke-miterlimit="10"/></g><g transform="translate(-62,-86) scale(1,1)"><g><path fill="none" stroke="none"/><text fill="#000000" stroke="none" font-family="Arial" font-size="13px" font-style="normal" font-weight="normal" text-decoration="none" x="820.5" y="599.5">拒绝邀请</text></g></g><g transform="translate(-62,-86) scale(1,1)"><path fill="#C0C0C0" stroke="none" d="M 807 592.5 L 818.5 583 L 829 592.5 L 818.5 601 L 807 592.5" opacity="0.2"/></g><g transform="translate(-62,-86) scale(1,1)"><path fill="#ffffff" stroke="none" d="M 800 585 L 811 576 L 822 585 L 811 594 L 800 585"/></g><g transform="translate(-62,-86) scale(1,1)"><path fill="none" stroke="#000000" d="M 800 585 L 811 576 L 822 585 L 811 594 L 800 585 L 800 585" stroke-miterlimit="10"/></g><g transform="translate(-62,-86) scale(1,1)"><path fill="#C0C0C0" stroke="none" d="M 767 659.5 C 767 652.59644 772.59644 647 779.5 647 C 786.40356 647 792 652.59644 792 659.5 C 792 666.40356 786.40356 672 779.5 672 C 772.59644 672 767 666.40356 767 659.5 Z" opacity="0.2"/></g><g transform="translate(-62,-86) scale(1,1)"><path fill="none" stroke="#000000" d="M 760 652.5 C 760 645.59644 765.59644 640 772.5 640 C 779.40356 640 785 645.59644 785 652.5 C 785 659.40356 779.40356 665 772.5 665 C 765.59644 665 760 659.40356 760 652.5 Z" stroke-miterlimit="10"/></g><g transform="translate(-62,-86) scale(1,1)"><path fill="#000000" stroke="none" d="M 765 652.5 C 765 648.357864 768.357864 645 772.5 645 C 776.642136 645 780 648.357864 780 652.5 C 780 656.642136 776.642136 660 772.5 660 C 768.357864 660 765 656.642136 765 652.5 Z"/></g><g transform="translate(-62,-86) scale(1,1)"><path fill="#C0C0C0" stroke="none" d="M 855 659.5 C 855 652.59644 860.59644 647 867.5 647 C 874.40356 647 880 652.59644 880 659.5 C 880 666.40356 874.40356 672 867.5 672 C 860.59644 672 855 666.40356 855 659.5 Z" opacity="0.2"/></g><g transform="translate(-62,-86) scale(1,1)"><path fill="none" stroke="#000000" d="M 848 652.5 C 848 645.59644 853.59644 640 860.5 640 C 867.40356 640 873 645.59644 873 652.5 C 873 659.40356 867.40356 665 860.5 665 C 853.59644 665 848 659.40356 848 652.5 Z" stroke-miterlimit="10"/></g><g transform="translate(-62,-86) scale(1,1)"><path fill="#000000" stroke="none" d="M 853 652.5 C 853 648.357864 856.357864 645 860.5 645 C 864.642136 645 868 648.357864 868 652.5 C 868 656.642136 864.642136 660 860.5 660 C 856.357864 660 853 656.642136 853 652.5 Z"/></g></g></svg>