<svg version="1.1" xmlns="http://www.w3.org/2000/svg" xmlns:xlink="http://www.w3.org/1999/xlink" width="395" height="427"><defs/><g><text fill="#eeeeee" stroke="none" font-family="Arial" font-size="24px" font-style="normal" font-weight="normal" text-decoration="none" x="0" y="0">UNREGISTERED</text><text fill="#eeeeee" stroke="none" font-family="Arial" font-size="24px" font-style="normal" font-weight="normal" text-decoration="none" x="0" y="30">UNREGISTERED</text><text fill="#eeeeee" stroke="none" font-family="Arial" font-size="24px" font-style="normal" font-weight="normal" text-decoration="none" x="0" y="60">UNREGISTERED</text><text fill="#eeeeee" stroke="none" font-family="Arial" font-size="24px" font-style="normal" font-weight="normal" text-decoration="none" x="0" y="90">UNREGISTERED</text><text fill="#eeeeee" stroke="none" font-family="Arial" font-size="24px" font-style="normal" font-weight="normal" text-decoration="none" x="0" y="120">UNREGISTERED</text><text fill="#eeeeee" stroke="none" font-family="Arial" font-size="24px" font-style="normal" font-weight="normal" text-decoration="none" x="0" y="150">UNREGISTERED</text><text fill="#eeeeee" stroke="none" font-family="Arial" font-size="24px" font-style="normal" font-weight="normal" text-decoration="none" x="0" y="180">UNREGISTERED</text><text fill="#eeeeee" stroke="none" font-family="Arial" font-size="24px" font-style="normal" font-weight="normal" text-decoration="none" x="0" y="210">UNREGISTERED</text><text fill="#eeeeee" stroke="none" font-family="Arial" font-size="24px" font-style="normal" font-weight="normal" text-decoration="none" x="0" y="240">UNREGISTERED</text><text fill="#eeeeee" stroke="none" font-family="Arial" font-size="24px" font-style="normal" font-weight="normal" text-decoration="none" x="0" y="270">UNREGISTERED</text><text fill="#eeeeee" stroke="none" font-family="Arial" font-size="24px" font-style="normal" font-weight="normal" text-decoration="none" x="0" y="300">UNREGISTERED</text><text fill="#eeeeee" stroke="none" font-family="Arial" font-size="24px" font-style="normal" font-weight="normal" text-decoration="none" x="0" y="330">UNREGISTERED</text><text fill="#eeeeee" stroke="none" font-family="Arial" font-size="24px" font-style="normal" font-weight="normal" text-decoration="none" x="0" y="360">UNREGISTERED</text><text fill="#eeeeee" stroke="none" font-family="Arial" font-size="24px" font-style="normal" font-weight="normal" text-decoration="none" x="0" y="390">UNREGISTERED</text><text fill="#eeeeee" stroke="none" font-family="Arial" font-size="24px" font-style="normal" font-weight="normal" text-decoration="none" x="0" y="420">UNREGISTERED</text><text fill="#eeeeee" stroke="none" font-family="Arial" font-size="24px" font-style="normal" font-weight="normal" text-decoration="none" x="200" y="0">UNREGISTERED</text><text fill="#eeeeee" stroke="none" font-family="Arial" font-size="24px" font-style="normal" font-weight="normal" text-decoration="none" x="200" y="30">UNREGISTERED</text><text fill="#eeeeee" stroke="none" font-family="Arial" font-size="24px" font-style="normal" font-weight="normal" text-decoration="none" x="200" y="60">UNREGISTERED</text><text fill="#eeeeee" stroke="none" font-family="Arial" font-size="24px" font-style="normal" font-weight="normal" text-decoration="none" x="200" y="90">UNREGISTERED</text><text fill="#eeeeee" stroke="none" font-family="Arial" font-size="24px" font-style="normal" font-weight="normal" text-decoration="none" x="200" y="120">UNREGISTERED</text><text fill="#eeeeee" stroke="none" font-family="Arial" font-size="24px" font-style="normal" font-weight="normal" text-decoration="none" x="200" y="150">UNREGISTERED</text><text fill="#eeeeee" stroke="none" font-family="Arial" font-size="24px" font-style="normal" font-weight="normal" text-decoration="none" x="200" y="180">UNREGISTERED</text><text fill="#eeeeee" stroke="none" font-family="Arial" font-size="24px" font-style="normal" font-weight="normal" text-decoration="none" x="200" y="210">UNREGISTERED</text><text fill="#eeeeee" stroke="none" font-family="Arial" font-size="24px" font-style="normal" font-weight="normal" text-decoration="none" x="200" y="240">UNREGISTERED</text><text fill="#eeeeee" stroke="none" font-family="Arial" font-size="24px" font-style="normal" font-weight="normal" text-decoration="none" x="200" y="270">UNREGISTERED</text><text fill="#eeeeee" stroke="none" font-family="Arial" font-size="24px" font-style="normal" font-weight="normal" text-decoration="none" x="200" y="300">UNREGISTERED</text><text fill="#eeeeee" stroke="none" font-family="Arial" font-size="24px" font-style="normal" font-weight="normal" text-decoration="none" x="200" y="330">UNREGISTERED</text><text fill="#eeeeee" stroke="none" font-family="Arial" font-size="24px" font-style="normal" font-weight="normal" text-decoration="none" x="200" y="360">UNREGISTERED</text><text fill="#eeeeee" stroke="none" font-family="Arial" font-size="24px" font-style="normal" font-weight="normal" text-decoration="none" x="200" y="390">UNREGISTERED</text><text fill="#eeeeee" stroke="none" font-family="Arial" font-size="24px" font-style="normal" font-weight="normal" text-decoration="none" x="200" y="420">UNREGISTERED</text><g transform="translate(-190,-102) scale(1,1)"><rect fill="#C0C0C0" stroke="none" x="207" y="119" width="375" height="295" opacity="0.2"/></g><g transform="translate(-190,-102) scale(1,1)"><rect fill="#ffffff" stroke="none" x="200" y="112" width="375" height="295"/></g><g transform="translate(-190,-102) scale(1,1)"><path fill="none" stroke="#000000" d="M 200 112 L 575 112 L 575 407 L 200 407 L 200 112 Z Z" stroke-miterlimit="10"/></g><g transform="translate(-190,-102) scale(1,1)"><g><path fill="none" stroke="none"/><text fill="#000000" stroke="none" font-family="Arial" font-size="13px" font-style="normal" font-weight="bold" text-decoration="none" x="361.5" y="130.5">用户认证</text></g></g><g transform="translate(-190,-102) scale(1,1)"><path fill="#ffffff" stroke="none" d="M 256.40935031960225 249.68 C 256.40935031960225 244.886167936 260.29519264454774 241 265.088623046875 241 C 269.88205344920226 241 273.76789577414775 244.886167936 273.76789577414775 249.68 C 273.76789577414775 254.47383206400002 269.88205344920226 258.36 265.088623046875 258.36 C 260.29519264454774 258.36 256.40935031960225 254.47383206400002 256.40935031960225 249.68 Z"/></g><g transform="translate(-190,-102) scale(1,1)"><path fill="none" stroke="#000000" d="M 256.40935031960225 249.68 C 256.40935031960225 244.886167936 260.29519264454774 241 265.088623046875 241 C 269.88205344920226 241 273.76789577414775 244.886167936 273.76789577414775 249.68 C 273.76789577414775 254.47383206400002 269.88205344920226 258.36 265.088623046875 258.36 C 260.29519264454774 258.36 256.40935031960225 254.47383206400002 256.40935031960225 249.68 Z" stroke-miterlimit="10"/></g><g transform="translate(-190,-102) scale(1,1)"><path fill="none" stroke="#000000" d="M 265.088623046875 258.36 L 265.088623046875 275.64" stroke-miterlimit="10"/></g><g transform="translate(-190,-102) scale(1,1)"><path fill="none" stroke="#000000" d="M 255.89880486505683 264.84 L 274.27844122869317 264.84" stroke-miterlimit="10"/></g><g transform="translate(-190,-102) scale(1,1)"><path fill="none" stroke="#000000" d="M 265.088623046875 275.64 L 252.32498668323865 293" stroke-miterlimit="10"/></g><g transform="translate(-190,-102) scale(1,1)"><path fill="none" stroke="#000000" d="M 265.088623046875 275.64 L 277.85225941051135 293" stroke-miterlimit="10"/></g><g transform="translate(-190,-102) scale(1,1)"><g><path fill="none" stroke="none"/><text fill="#000000" stroke="none" font-family="Arial" font-size="13px" font-style="normal" font-weight="bold" text-decoration="none" x="252.088623046875" y="312.5">用户</text></g></g><g transform="translate(-190,-102) scale(1,1)"><path fill="#C0C0C0" stroke="none" d="M 343 232 C 343 222.6111584 365.6096176 215 393.5 215 C 421.3903824 215 444 222.6111584 444 232 C 444 241.3888416 421.3903824 249 393.5 249 C 365.6096176 249 343 241.3888416 343 232 Z" opacity="0.2"/></g><g transform="translate(-190,-102) scale(1,1)"><path fill="#ffffff" stroke="none" d="M 336 225 C 336 215.6111584 358.6096176 208 386.5 208 C 414.3903824 208 437 215.6111584 437 225 C 437 234.3888416 414.3903824 242 386.5 242 C 358.6096176 242 336 234.3888416 336 225 Z"/></g><g transform="translate(-190,-102) scale(1,1)"><path fill="none" stroke="#000000" d="M 336 225 C 336 215.6111584 358.6096176 208 386.5 208 C 414.3903824 208 437 215.6111584 437 225 C 437 234.3888416 414.3903824 242 386.5 242 C 358.6096176 242 336 234.3888416 336 225 Z" stroke-miterlimit="10"/></g><g transform="translate(-190,-102) scale(1,1)"><g><path fill="none" stroke="none"/><text fill="#000000" stroke="none" font-family="Arial" font-size="13px" font-style="normal" font-weight="bold" text-decoration="none" x="373.5" y="231">注册</text></g></g><g transform="translate(-190,-102) scale(1,1)"><path fill="#C0C0C0" stroke="none" d="M 343 320 C 343 310.6111584 365.6096176 303 393.5 303 C 421.3903824 303 444 310.6111584 444 320 C 444 329.3888416 421.3903824 337 393.5 337 C 365.6096176 337 343 329.3888416 343 320 Z" opacity="0.2"/></g><g transform="translate(-190,-102) scale(1,1)"><path fill="#ffffff" stroke="none" d="M 336 313 C 336 303.6111584 358.6096176 296 386.5 296 C 414.3903824 296 437 303.6111584 437 313 C 437 322.3888416 414.3903824 330 386.5 330 C 358.6096176 330 336 322.3888416 336 313 Z"/></g><g transform="translate(-190,-102) scale(1,1)"><path fill="none" stroke="#000000" d="M 336 313 C 336 303.6111584 358.6096176 296 386.5 296 C 414.3903824 296 437 303.6111584 437 313 C 437 322.3888416 414.3903824 330 386.5 330 C 358.6096176 330 336 322.3888416 336 313 Z" stroke-miterlimit="10"/></g><g transform="translate(-190,-102) scale(1,1)"><g><path fill="none" stroke="none"/><text fill="#000000" stroke="none" font-family="Arial" font-size="13px" font-style="normal" font-weight="bold" text-decoration="none" x="373.5" y="319">登录</text></g></g><g transform="translate(-190,-102) scale(1,1)"><path fill="none" stroke="#000000" d="M 291 267 L 346 243" stroke-miterlimit="10"/></g><g transform="translate(-190,-102) scale(1,1)"><path fill="none" stroke="#000000" d="M 291 286 L 335 299" stroke-miterlimit="10"/></g><g transform="translate(-190,-102) scale(1,1)"><path fill="#ffffff" stroke="none" d="M 248.40935031960228 449.68 C 248.40935031960228 444.886167936 252.2951926445477 441 257.088623046875 441 C 261.88205344920226 441 265.76789577414775 444.886167936 265.76789577414775 449.68 C 265.76789577414775 454.473832064 261.88205344920226 458.36 257.088623046875 458.36 C 252.2951926445477 458.36 248.40935031960228 454.473832064 248.40935031960228 449.68 Z"/></g><g transform="translate(-190,-102) scale(1,1)"><path fill="none" stroke="#000000" d="M 248.40935031960228 449.68 C 248.40935031960228 444.886167936 252.2951926445477 441 257.088623046875 441 C 261.88205344920226 441 265.76789577414775 444.886167936 265.76789577414775 449.68 C 265.76789577414775 454.473832064 261.88205344920226 458.36 257.088623046875 458.36 C 252.2951926445477 458.36 248.40935031960228 454.473832064 248.40935031960228 449.68 Z" stroke-miterlimit="10"/></g><g transform="translate(-190,-102) scale(1,1)"><path fill="none" stroke="#000000" d="M 257.088623046875 458.36 L 257.088623046875 475.64" stroke-miterlimit="10"/></g><g transform="translate(-190,-102) scale(1,1)"><path fill="none" stroke="#000000" d="M 247.89880486505683 464.84 L 266.27844122869317 464.84" stroke-miterlimit="10"/></g><g transform="translate(-190,-102) scale(1,1)"><path fill="none" stroke="#000000" d="M 257.088623046875 475.64 L 244.32498668323865 493" stroke-miterlimit="10"/></g><g transform="translate(-190,-102) scale(1,1)"><path fill="none" stroke="#000000" d="M 257.088623046875 475.64 L 269.85225941051135 493" stroke-miterlimit="10"/></g><g transform="translate(-190,-102) scale(1,1)"><g><path fill="none" stroke="none"/><text fill="#000000" stroke="none" font-family="Arial" font-size="13px" font-style="normal" font-weight="bold" text-decoration="none" x="244.088623046875" y="512.5">访客</text></g></g><g transform="translate(-190,-102) scale(1,1)"><path fill="#C0C0C0" stroke="none" d="M 351 456 C 351 446.6111584 373.6096176 439 401.5 439 C 429.3903824 439 452 446.6111584 452 456 C 452 465.3888416 429.3903824 473 401.5 473 C 373.6096176 473 351 465.3888416 351 456 Z" opacity="0.2"/></g><g transform="translate(-190,-102) scale(1,1)"><path fill="#ffffff" stroke="none" d="M 344 449 C 344 439.6111584 366.6096176 432 394.5 432 C 422.3903824 432 445 439.6111584 445 449 C 445 458.3888416 422.3903824 466 394.5 466 C 366.6096176 466 344 458.3888416 344 449 Z"/></g><g transform="translate(-190,-102) scale(1,1)"><path fill="none" stroke="#000000" d="M 344 449 C 344 439.6111584 366.6096176 432 394.5 432 C 422.3903824 432 445 439.6111584 445 449 C 445 458.3888416 422.3903824 466 394.5 466 C 366.6096176 466 344 458.3888416 344 449 Z" stroke-miterlimit="10"/></g><g transform="translate(-190,-102) scale(1,1)"><g><path fill="none" stroke="none"/><text fill="#000000" stroke="none" font-family="Arial" font-size="13px" font-style="normal" font-weight="bold" text-decoration="none" x="381.5" y="455">浏览</text></g></g><g transform="translate(-190,-102) scale(1,1)"><path fill="none" stroke="#000000" d="M 283 473 L 343 460" stroke-miterlimit="10"/></g><g transform="translate(-190,-102) scale(1,1)"><path fill="none" stroke="#000000" d="M 291 313 L 380 431" stroke-miterlimit="10"/></g></g></svg>