<svg version="1.1" xmlns="http://www.w3.org/2000/svg" xmlns:xlink="http://www.w3.org/1999/xlink" width="627" height="507"><defs/><g><text fill="#eeeeee" stroke="none" font-family="Arial" font-size="24px" font-style="normal" font-weight="normal" text-decoration="none" x="0" y="0">UNREGISTERED</text><text fill="#eeeeee" stroke="none" font-family="Arial" font-size="24px" font-style="normal" font-weight="normal" text-decoration="none" x="0" y="30">UNREGISTERED</text><text fill="#eeeeee" stroke="none" font-family="Arial" font-size="24px" font-style="normal" font-weight="normal" text-decoration="none" x="0" y="60">UNREGISTERED</text><text fill="#eeeeee" stroke="none" font-family="Arial" font-size="24px" font-style="normal" font-weight="normal" text-decoration="none" x="0" y="90">UNREGISTERED</text><text fill="#eeeeee" stroke="none" font-family="Arial" font-size="24px" font-style="normal" font-weight="normal" text-decoration="none" x="0" y="120">UNREGISTERED</text><text fill="#eeeeee" stroke="none" font-family="Arial" font-size="24px" font-style="normal" font-weight="normal" text-decoration="none" x="0" y="150">UNREGISTERED</text><text fill="#eeeeee" stroke="none" font-family="Arial" font-size="24px" font-style="normal" font-weight="normal" text-decoration="none" x="0" y="180">UNREGISTERED</text><text fill="#eeeeee" stroke="none" font-family="Arial" font-size="24px" font-style="normal" font-weight="normal" text-decoration="none" x="0" y="210">UNREGISTERED</text><text fill="#eeeeee" stroke="none" font-family="Arial" font-size="24px" font-style="normal" font-weight="normal" text-decoration="none" x="0" y="240">UNREGISTERED</text><text fill="#eeeeee" stroke="none" font-family="Arial" font-size="24px" font-style="normal" font-weight="normal" text-decoration="none" x="0" y="270">UNREGISTERED</text><text fill="#eeeeee" stroke="none" font-family="Arial" font-size="24px" font-style="normal" font-weight="normal" text-decoration="none" x="0" y="300">UNREGISTERED</text><text fill="#eeeeee" stroke="none" font-family="Arial" font-size="24px" font-style="normal" font-weight="normal" text-decoration="none" x="0" y="330">UNREGISTERED</text><text fill="#eeeeee" stroke="none" font-family="Arial" font-size="24px" font-style="normal" font-weight="normal" text-decoration="none" x="0" y="360">UNREGISTERED</text><text fill="#eeeeee" stroke="none" font-family="Arial" font-size="24px" font-style="normal" font-weight="normal" text-decoration="none" x="0" y="390">UNREGISTERED</text><text fill="#eeeeee" stroke="none" font-family="Arial" font-size="24px" font-style="normal" font-weight="normal" text-decoration="none" x="0" y="420">UNREGISTERED</text><text fill="#eeeeee" stroke="none" font-family="Arial" font-size="24px" font-style="normal" font-weight="normal" text-decoration="none" x="0" y="450">UNREGISTERED</text><text fill="#eeeeee" stroke="none" font-family="Arial" font-size="24px" font-style="normal" font-weight="normal" text-decoration="none" x="0" y="480">UNREGISTERED</text><text fill="#eeeeee" stroke="none" font-family="Arial" font-size="24px" font-style="normal" font-weight="normal" text-decoration="none" x="200" y="0">UNREGISTERED</text><text fill="#eeeeee" stroke="none" font-family="Arial" font-size="24px" font-style="normal" font-weight="normal" text-decoration="none" x="200" y="30">UNREGISTERED</text><text fill="#eeeeee" stroke="none" font-family="Arial" font-size="24px" font-style="normal" font-weight="normal" text-decoration="none" x="200" y="60">UNREGISTERED</text><text fill="#eeeeee" stroke="none" font-family="Arial" font-size="24px" font-style="normal" font-weight="normal" text-decoration="none" x="200" y="90">UNREGISTERED</text><text fill="#eeeeee" stroke="none" font-family="Arial" font-size="24px" font-style="normal" font-weight="normal" text-decoration="none" x="200" y="120">UNREGISTERED</text><text fill="#eeeeee" stroke="none" font-family="Arial" font-size="24px" font-style="normal" font-weight="normal" text-decoration="none" x="200" y="150">UNREGISTERED</text><text fill="#eeeeee" stroke="none" font-family="Arial" font-size="24px" font-style="normal" font-weight="normal" text-decoration="none" x="200" y="180">UNREGISTERED</text><text fill="#eeeeee" stroke="none" font-family="Arial" font-size="24px" font-style="normal" font-weight="normal" text-decoration="none" x="200" y="210">UNREGISTERED</text><text fill="#eeeeee" stroke="none" font-family="Arial" font-size="24px" font-style="normal" font-weight="normal" text-decoration="none" x="200" y="240">UNREGISTERED</text><text fill="#eeeeee" stroke="none" font-family="Arial" font-size="24px" font-style="normal" font-weight="normal" text-decoration="none" x="200" y="270">UNREGISTERED</text><text fill="#eeeeee" stroke="none" font-family="Arial" font-size="24px" font-style="normal" font-weight="normal" text-decoration="none" x="200" y="300">UNREGISTERED</text><text fill="#eeeeee" stroke="none" font-family="Arial" font-size="24px" font-style="normal" font-weight="normal" text-decoration="none" x="200" y="330">UNREGISTERED</text><text fill="#eeeeee" stroke="none" font-family="Arial" font-size="24px" font-style="normal" font-weight="normal" text-decoration="none" x="200" y="360">UNREGISTERED</text><text fill="#eeeeee" stroke="none" font-family="Arial" font-size="24px" font-style="normal" font-weight="normal" text-decoration="none" x="200" y="390">UNREGISTERED</text><text fill="#eeeeee" stroke="none" font-family="Arial" font-size="24px" font-style="normal" font-weight="normal" text-decoration="none" x="200" y="420">UNREGISTERED</text><text fill="#eeeeee" stroke="none" font-family="Arial" font-size="24px" font-style="normal" font-weight="normal" text-decoration="none" x="200" y="450">UNREGISTERED</text><text fill="#eeeeee" stroke="none" font-family="Arial" font-size="24px" font-style="normal" font-weight="normal" text-decoration="none" x="200" y="480">UNREGISTERED</text><text fill="#eeeeee" stroke="none" font-family="Arial" font-size="24px" font-style="normal" font-weight="normal" text-decoration="none" x="400" y="0">UNREGISTERED</text><text fill="#eeeeee" stroke="none" font-family="Arial" font-size="24px" font-style="normal" font-weight="normal" text-decoration="none" x="400" y="30">UNREGISTERED</text><text fill="#eeeeee" stroke="none" font-family="Arial" font-size="24px" font-style="normal" font-weight="normal" text-decoration="none" x="400" y="60">UNREGISTERED</text><text fill="#eeeeee" stroke="none" font-family="Arial" font-size="24px" font-style="normal" font-weight="normal" text-decoration="none" x="400" y="90">UNREGISTERED</text><text fill="#eeeeee" stroke="none" font-family="Arial" font-size="24px" font-style="normal" font-weight="normal" text-decoration="none" x="400" y="120">UNREGISTERED</text><text fill="#eeeeee" stroke="none" font-family="Arial" font-size="24px" font-style="normal" font-weight="normal" text-decoration="none" x="400" y="150">UNREGISTERED</text><text fill="#eeeeee" stroke="none" font-family="Arial" font-size="24px" font-style="normal" font-weight="normal" text-decoration="none" x="400" y="180">UNREGISTERED</text><text fill="#eeeeee" stroke="none" font-family="Arial" font-size="24px" font-style="normal" font-weight="normal" text-decoration="none" x="400" y="210">UNREGISTERED</text><text fill="#eeeeee" stroke="none" font-family="Arial" font-size="24px" font-style="normal" font-weight="normal" text-decoration="none" x="400" y="240">UNREGISTERED</text><text fill="#eeeeee" stroke="none" font-family="Arial" font-size="24px" font-style="normal" font-weight="normal" text-decoration="none" x="400" y="270">UNREGISTERED</text><text fill="#eeeeee" stroke="none" font-family="Arial" font-size="24px" font-style="normal" font-weight="normal" text-decoration="none" x="400" y="300">UNREGISTERED</text><text fill="#eeeeee" stroke="none" font-family="Arial" font-size="24px" font-style="normal" font-weight="normal" text-decoration="none" x="400" y="330">UNREGISTERED</text><text fill="#eeeeee" stroke="none" font-family="Arial" font-size="24px" font-style="normal" font-weight="normal" text-decoration="none" x="400" y="360">UNREGISTERED</text><text fill="#eeeeee" stroke="none" font-family="Arial" font-size="24px" font-style="normal" font-weight="normal" text-decoration="none" x="400" y="390">UNREGISTERED</text><text fill="#eeeeee" stroke="none" font-family="Arial" font-size="24px" font-style="normal" font-weight="normal" text-decoration="none" x="400" y="420">UNREGISTERED</text><text fill="#eeeeee" stroke="none" font-family="Arial" font-size="24px" font-style="normal" font-weight="normal" text-decoration="none" x="400" y="450">UNREGISTERED</text><text fill="#eeeeee" stroke="none" font-family="Arial" font-size="24px" font-style="normal" font-weight="normal" text-decoration="none" x="400" y="480">UNREGISTERED</text><text fill="#eeeeee" stroke="none" font-family="Arial" font-size="24px" font-style="normal" font-weight="normal" text-decoration="none" x="600" y="0">UNREGISTERED</text><text fill="#eeeeee" stroke="none" font-family="Arial" font-size="24px" font-style="normal" font-weight="normal" text-decoration="none" x="600" y="30">UNREGISTERED</text><text fill="#eeeeee" stroke="none" font-family="Arial" font-size="24px" font-style="normal" font-weight="normal" text-decoration="none" x="600" y="60">UNREGISTERED</text><text fill="#eeeeee" stroke="none" font-family="Arial" font-size="24px" font-style="normal" font-weight="normal" text-decoration="none" x="600" y="90">UNREGISTERED</text><text fill="#eeeeee" stroke="none" font-family="Arial" font-size="24px" font-style="normal" font-weight="normal" text-decoration="none" x="600" y="120">UNREGISTERED</text><text fill="#eeeeee" stroke="none" font-family="Arial" font-size="24px" font-style="normal" font-weight="normal" text-decoration="none" x="600" y="150">UNREGISTERED</text><text fill="#eeeeee" stroke="none" font-family="Arial" font-size="24px" font-style="normal" font-weight="normal" text-decoration="none" x="600" y="180">UNREGISTERED</text><text fill="#eeeeee" stroke="none" font-family="Arial" font-size="24px" font-style="normal" font-weight="normal" text-decoration="none" x="600" y="210">UNREGISTERED</text><text fill="#eeeeee" stroke="none" font-family="Arial" font-size="24px" font-style="normal" font-weight="normal" text-decoration="none" x="600" y="240">UNREGISTERED</text><text fill="#eeeeee" stroke="none" font-family="Arial" font-size="24px" font-style="normal" font-weight="normal" text-decoration="none" x="600" y="270">UNREGISTERED</text><text fill="#eeeeee" stroke="none" font-family="Arial" font-size="24px" font-style="normal" font-weight="normal" text-decoration="none" x="600" y="300">UNREGISTERED</text><text fill="#eeeeee" stroke="none" font-family="Arial" font-size="24px" font-style="normal" font-weight="normal" text-decoration="none" x="600" y="330">UNREGISTERED</text><text fill="#eeeeee" stroke="none" font-family="Arial" font-size="24px" font-style="normal" font-weight="normal" text-decoration="none" x="600" y="360">UNREGISTERED</text><text fill="#eeeeee" stroke="none" font-family="Arial" font-size="24px" font-style="normal" font-weight="normal" text-decoration="none" x="600" y="390">UNREGISTERED</text><text fill="#eeeeee" stroke="none" font-family="Arial" font-size="24px" font-style="normal" font-weight="normal" text-decoration="none" x="600" y="420">UNREGISTERED</text><text fill="#eeeeee" stroke="none" font-family="Arial" font-size="24px" font-style="normal" font-weight="normal" text-decoration="none" x="600" y="450">UNREGISTERED</text><text fill="#eeeeee" stroke="none" font-family="Arial" font-size="24px" font-style="normal" font-weight="normal" text-decoration="none" x="600" y="480">UNREGISTERED</text><g transform="translate(-190,-70) scale(1,1)"><rect fill="#C0C0C0" stroke="none" x="207" y="87" width="607" height="487" opacity="0.2"/></g><g transform="translate(-190,-70) scale(1,1)"><rect fill="#ffffff" stroke="none" x="200" y="80" width="607" height="487"/></g><g transform="translate(-190,-70) scale(1,1)"><path fill="none" stroke="#000000" d="M 200 80 L 807 80 L 807 567 L 200 567 L 200 80 Z Z" stroke-miterlimit="10"/></g><g transform="translate(-190,-70) scale(1,1)"><g><path fill="none" stroke="none"/><text fill="#000000" stroke="none" font-family="Arial" font-size="13px" font-style="normal" font-weight="bold" text-decoration="none" x="477.5" y="99">社交分享</text></g></g><g transform="translate(-190,-70) scale(1,1)"><path fill="#ffffff" stroke="none" d="M 240.40935031960228 185.68 C 240.40935031960228 180.886167936 244.2951926445477 177 249.088623046875 177 C 253.8820534492023 177 257.76789577414775 180.886167936 257.76789577414775 185.68 C 257.76789577414775 190.47383206400002 253.8820534492023 194.36 249.088623046875 194.36 C 244.2951926445477 194.36 240.40935031960228 190.47383206400002 240.40935031960228 185.68 Z"/></g><g transform="translate(-190,-70) scale(1,1)"><path fill="none" stroke="#000000" d="M 240.40935031960228 185.68 C 240.40935031960228 180.886167936 244.2951926445477 177 249.088623046875 177 C 253.8820534492023 177 257.76789577414775 180.886167936 257.76789577414775 185.68 C 257.76789577414775 190.47383206400002 253.8820534492023 194.36 249.088623046875 194.36 C 244.2951926445477 194.36 240.40935031960228 190.47383206400002 240.40935031960228 185.68 Z" stroke-miterlimit="10"/></g><g transform="translate(-190,-70) scale(1,1)"><path fill="none" stroke="#000000" d="M 249.088623046875 194.36 L 249.088623046875 211.64" stroke-miterlimit="10"/></g><g transform="translate(-190,-70) scale(1,1)"><path fill="none" stroke="#000000" d="M 239.89880486505683 200.84 L 258.27844122869317 200.84" stroke-miterlimit="10"/></g><g transform="translate(-190,-70) scale(1,1)"><path fill="none" stroke="#000000" d="M 249.088623046875 211.64 L 236.32498668323865 229" stroke-miterlimit="10"/></g><g transform="translate(-190,-70) scale(1,1)"><path fill="none" stroke="#000000" d="M 249.088623046875 211.64 L 261.85225941051135 229" stroke-miterlimit="10"/></g><g transform="translate(-190,-70) scale(1,1)"><g><path fill="none" stroke="none"/><text fill="#000000" stroke="none" font-family="Arial" font-size="13px" font-style="normal" font-weight="bold" text-decoration="none" x="236.088623046875" y="248.5">用户</text></g></g><g transform="translate(-190,-70) scale(1,1)"><path fill="#ffffff" stroke="none" d="M 648.4093503196023 169.68 C 648.4093503196023 164.886167936 652.2951926445477 161 657.088623046875 161 C 661.8820534492023 161 665.7678957741477 164.886167936 665.7678957741477 169.68 C 665.7678957741477 174.47383206400002 661.8820534492023 178.36 657.088623046875 178.36 C 652.2951926445477 178.36 648.4093503196023 174.47383206400002 648.4093503196023 169.68 Z"/></g><g transform="translate(-190,-70) scale(1,1)"><path fill="none" stroke="#000000" d="M 648.4093503196023 169.68 C 648.4093503196023 164.886167936 652.2951926445477 161 657.088623046875 161 C 661.8820534492023 161 665.7678957741477 164.886167936 665.7678957741477 169.68 C 665.7678957741477 174.47383206400002 661.8820534492023 178.36 657.088623046875 178.36 C 652.2951926445477 178.36 648.4093503196023 174.47383206400002 648.4093503196023 169.68 Z" stroke-miterlimit="10"/></g><g transform="translate(-190,-70) scale(1,1)"><path fill="none" stroke="#000000" d="M 657.088623046875 178.36 L 657.088623046875 195.64" stroke-miterlimit="10"/></g><g transform="translate(-190,-70) scale(1,1)"><path fill="none" stroke="#000000" d="M 647.8988048650568 184.84 L 666.2784412286932 184.84" stroke-miterlimit="10"/></g><g transform="translate(-190,-70) scale(1,1)"><path fill="none" stroke="#000000" d="M 657.088623046875 195.64 L 644.3249866832386 213" stroke-miterlimit="10"/></g><g transform="translate(-190,-70) scale(1,1)"><path fill="none" stroke="#000000" d="M 657.088623046875 195.64 L 669.8522594105114 213" stroke-miterlimit="10"/></g><g transform="translate(-190,-70) scale(1,1)"><g><path fill="none" stroke="none"/><text fill="#000000" stroke="none" font-family="Arial" font-size="13px" font-style="normal" font-weight="bold" text-decoration="none" x="644.088623046875" y="232.5">好友</text></g></g><g transform="translate(-190,-70) scale(1,1)"><path fill="#C0C0C0" stroke="none" d="M 383 224 C 383 214.6111584 405.6096176 207 433.5 207 C 461.3903824 207 484 214.6111584 484 224 C 484 233.3888416 461.3903824 241 433.5 241 C 405.6096176 241 383 233.3888416 383 224 Z" opacity="0.2"/></g><g transform="translate(-190,-70) scale(1,1)"><path fill="#ffffff" stroke="none" d="M 376 217 C 376 207.6111584 398.6096176 200 426.5 200 C 454.3903824 200 477 207.6111584 477 217 C 477 226.3888416 454.3903824 234 426.5 234 C 398.6096176 234 376 226.3888416 376 217 Z"/></g><g transform="translate(-190,-70) scale(1,1)"><path fill="none" stroke="#000000" d="M 376 217 C 376 207.6111584 398.6096176 200 426.5 200 C 454.3903824 200 477 207.6111584 477 217 C 477 226.3888416 454.3903824 234 426.5 234 C 398.6096176 234 376 226.3888416 376 217 Z" stroke-miterlimit="10"/></g><g transform="translate(-190,-70) scale(1,1)"><g><path fill="none" stroke="none"/><text fill="#000000" stroke="none" font-family="Arial" font-size="13px" font-style="normal" font-weight="bold" text-decoration="none" x="400.5" y="223">添加好友</text></g></g><g transform="translate(-190,-70) scale(1,1)"><path fill="none" stroke="#000000" d="M 275 215 L 375 216" stroke-miterlimit="10"/></g><g transform="translate(-190,-70) scale(1,1)"><path fill="none" stroke="#000000" d="M 631 201 L 478 213" stroke-miterlimit="10"/></g><g transform="translate(-190,-70) scale(1,1)"><path fill="#C0C0C0" stroke="none" d="M 375 128 C 375 118.6111584 397.6096176 111 425.5 111 C 453.3903824 111 476 118.6111584 476 128 C 476 137.3888416 453.3903824 145 425.5 145 C 397.6096176 145 375 137.3888416 375 128 Z" opacity="0.2"/></g><g transform="translate(-190,-70) scale(1,1)"><path fill="#ffffff" stroke="none" d="M 368 121 C 368 111.6111584 390.6096176 104 418.5 104 C 446.3903824 104 469 111.6111584 469 121 C 469 130.3888416 446.3903824 138 418.5 138 C 390.6096176 138 368 130.3888416 368 121 Z"/></g><g transform="translate(-190,-70) scale(1,1)"><path fill="none" stroke="#000000" d="M 368 121 C 368 111.6111584 390.6096176 104 418.5 104 C 446.3903824 104 469 111.6111584 469 121 C 469 130.3888416 446.3903824 138 418.5 138 C 390.6096176 138 368 130.3888416 368 121 Z" stroke-miterlimit="10"/></g><g transform="translate(-190,-70) scale(1,1)"><g><path fill="none" stroke="none"/><text fill="#000000" stroke="none" font-family="Arial" font-size="13px" font-style="normal" font-weight="bold" text-decoration="none" x="392.5" y="127">好友私聊</text></g></g><g transform="translate(-190,-70) scale(1,1)"><path fill="none" stroke="#000000" d="M 425 199 L 420 139" stroke-miterlimit="10" stroke-dasharray="3"/></g><g transform="translate(-190,-70) scale(1,1)"><path fill="none" stroke="#000000" d="M 425.03894127416316 148.77798909978605 L 420 139 L 416.6489871461347 149.4771519437884" stroke-miterlimit="10"/></g><g transform="translate(-190,-70) scale(1,1)"><g><path fill="none" stroke="none"/><text fill="#000000" stroke="none" font-family="Arial" font-size="13px" font-style="normal" font-weight="normal" text-decoration="none" x="365.178955078125" y="175">«extend»</text></g></g><g transform="translate(-190,-70) scale(1,1)"><path fill="#C0C0C0" stroke="none" d="M 383 400 C 383 390.6111584 405.6096176 383 433.5 383 C 461.3903824 383 484 390.6111584 484 400 C 484 409.3888416 461.3903824 417 433.5 417 C 405.6096176 417 383 409.3888416 383 400 Z" opacity="0.2"/></g><g transform="translate(-190,-70) scale(1,1)"><path fill="#ffffff" stroke="none" d="M 376 393 C 376 383.6111584 398.6096176 376 426.5 376 C 454.3903824 376 477 383.6111584 477 393 C 477 402.3888416 454.3903824 410 426.5 410 C 398.6096176 410 376 402.3888416 376 393 Z"/></g><g transform="translate(-190,-70) scale(1,1)"><path fill="none" stroke="#000000" d="M 376 393 C 376 383.6111584 398.6096176 376 426.5 376 C 454.3903824 376 477 383.6111584 477 393 C 477 402.3888416 454.3903824 410 426.5 410 C 398.6096176 410 376 402.3888416 376 393 Z" stroke-miterlimit="10"/></g><g transform="translate(-190,-70) scale(1,1)"><g><path fill="none" stroke="none"/><text fill="#000000" stroke="none" font-family="Arial" font-size="13px" font-style="normal" font-weight="bold" text-decoration="none" x="400.5" y="399.5">专注分享</text></g></g><g transform="translate(-190,-70) scale(1,1)"><path fill="#C0C0C0" stroke="none" d="M 391 296 C 391 286.6111584 413.6096176 279 441.5 279 C 469.3903824 279 492 286.6111584 492 296 C 492 305.3888416 469.3903824 313 441.5 313 C 413.6096176 313 391 305.3888416 391 296 Z" opacity="0.2"/></g><g transform="translate(-190,-70) scale(1,1)"><path fill="#ffffff" stroke="none" d="M 384 289 C 384 279.6111584 406.6096176 272 434.5 272 C 462.3903824 272 485 279.6111584 485 289 C 485 298.3888416 462.3903824 306 434.5 306 C 406.6096176 306 384 298.3888416 384 289 Z"/></g><g transform="translate(-190,-70) scale(1,1)"><path fill="none" stroke="#000000" d="M 384 289 C 384 279.6111584 406.6096176 272 434.5 272 C 462.3903824 272 485 279.6111584 485 289 C 485 298.3888416 462.3903824 306 434.5 306 C 406.6096176 306 384 298.3888416 384 289 Z" stroke-miterlimit="10"/></g><g transform="translate(-190,-70) scale(1,1)"><g><path fill="none" stroke="none"/><text fill="#000000" stroke="none" font-family="Arial" font-size="13px" font-style="normal" font-weight="bold" text-decoration="none" x="408.5" y="295">共同专注</text></g></g><g transform="translate(-190,-70) scale(1,1)"><path fill="none" stroke="#000000" d="M 275 225 L 389 271" stroke-miterlimit="10"/></g><g transform="translate(-190,-70) scale(1,1)"><path fill="none" stroke="#000000" d="M 378.0004626436568 271.1008858087662 L 389 271 L 381.1508155059109 263.29348958491903" stroke-miterlimit="10"/></g><g transform="translate(-190,-70) scale(1,1)"><path fill="none" stroke="#000000" d="M 631 209 L 479 271" stroke-miterlimit="10"/></g><g transform="translate(-190,-70) scale(1,1)"><path fill="none" stroke="#000000" d="M 486.82010550804074 263.26398359340476 L 479 271 L 489.9998392948038 271.059459973856" stroke-miterlimit="10"/></g><g transform="translate(-190,-70) scale(1,1)"><path fill="none" stroke="#000000" d="M 275 241 L 408 375" stroke-miterlimit="10"/></g><g transform="translate(-190,-70) scale(1,1)"><path fill="#C0C0C0" stroke="none" d="M 543 368 C 543 358.6111584 565.6096176 351 593.5 351 C 621.3903824 351 644 358.6111584 644 368 C 644 377.3888416 621.3903824 385 593.5 385 C 565.6096176 385 543 377.3888416 543 368 Z" opacity="0.2"/></g><g transform="translate(-190,-70) scale(1,1)"><path fill="#ffffff" stroke="none" d="M 536 361 C 536 351.6111584 558.6096176 344 586.5 344 C 614.3903824 344 637 351.6111584 637 361 C 637 370.3888416 614.3903824 378 586.5 378 C 558.6096176 378 536 370.3888416 536 361 Z"/></g><g transform="translate(-190,-70) scale(1,1)"><path fill="none" stroke="#000000" d="M 536 361 C 536 351.6111584 558.6096176 344 586.5 344 C 614.3903824 344 637 351.6111584 637 361 C 637 370.3888416 614.3903824 378 586.5 378 C 558.6096176 378 536 370.3888416 536 361 Z" stroke-miterlimit="10"/></g><g transform="translate(-190,-70) scale(1,1)"><g><path fill="none" stroke="none"/><text fill="#000000" stroke="none" font-family="Arial" font-size="13px" font-style="normal" font-weight="bold" text-decoration="none" x="560.5" y="367.5">安排共享</text></g></g><g transform="translate(-190,-70) scale(1,1)"><path fill="none" stroke="#000000" d="M 535 371 L 478 383" stroke-miterlimit="10" stroke-dasharray="3"/></g><g transform="translate(-190,-70) scale(1,1)"><path fill="none" stroke="#000000" d="M 487.07747851891367 376.7871597687804 L 478 383 L 488.8118880747231 385.02560515887507" stroke-miterlimit="10"/></g><g transform="translate(-190,-70) scale(1,1)"><path fill="#C0C0C0" stroke="none" d="M 423 472 C 423 462.6111584 445.6096176 455 473.5 455 C 501.3903824 455 524 462.6111584 524 472 C 524 481.3888416 501.3903824 489 473.5 489 C 445.6096176 489 423 481.3888416 423 472 Z" opacity="0.2"/></g><g transform="translate(-190,-70) scale(1,1)"><path fill="#ffffff" stroke="none" d="M 416 465 C 416 455.6111584 438.6096176 448 466.5 448 C 494.3903824 448 517 455.6111584 517 465 C 517 474.3888416 494.3903824 482 466.5 482 C 438.6096176 482 416 474.3888416 416 465 Z"/></g><g transform="translate(-190,-70) scale(1,1)"><path fill="none" stroke="#000000" d="M 416 465 C 416 455.6111584 438.6096176 448 466.5 448 C 494.3903824 448 517 455.6111584 517 465 C 517 474.3888416 494.3903824 482 466.5 482 C 438.6096176 482 416 474.3888416 416 465 Z" stroke-miterlimit="10"/></g><g transform="translate(-190,-70) scale(1,1)"><g><path fill="none" stroke="none"/><text fill="#000000" stroke="none" font-family="Arial" font-size="13px" font-style="normal" font-weight="bold" text-decoration="none" x="440.5" y="471">社区交流</text></g></g><g transform="translate(-190,-70) scale(1,1)"><path fill="none" stroke="#000000" d="M 436 411 L 456 447" stroke-miterlimit="10" stroke-dasharray="3"/></g><g transform="translate(-190,-70) scale(1,1)"><path fill="none" stroke="#000000" d="M 447.38478821814385 440.1605463702305 L 456 447 L 454.7443493689122 436.07190128647034" stroke-miterlimit="10"/></g><g transform="translate(-190,-70) scale(1,1)"><g><path fill="none" stroke="none"/><text fill="#000000" stroke="none" font-family="Arial" font-size="13px" font-style="normal" font-weight="normal" text-decoration="none" x="439.178955078125" y="427">«extend»</text></g></g><g transform="translate(-190,-70) scale(1,1)"><path fill="#C0C0C0" stroke="none" d="M 375 552 C 375 542.6111584 402.5344848 535 436.5 535 C 470.4655152 535 498 542.6111584 498 552 C 498 561.3888416 470.4655152 569 436.5 569 C 402.5344848 569 375 561.3888416 375 552 Z" opacity="0.2"/></g><g transform="translate(-190,-70) scale(1,1)"><path fill="#ffffff" stroke="none" d="M 368 545 C 368 535.6111584 395.5344848 528 429.5 528 C 463.4655152 528 491 535.6111584 491 545 C 491 554.3888416 463.4655152 562 429.5 562 C 395.5344848 562 368 554.3888416 368 545 Z"/></g><g transform="translate(-190,-70) scale(1,1)"><path fill="none" stroke="#000000" d="M 368 545 C 368 535.6111584 395.5344848 528 429.5 528 C 463.4655152 528 491 535.6111584 491 545 C 491 554.3888416 463.4655152 562 429.5 562 C 395.5344848 562 368 554.3888416 368 545 Z" stroke-miterlimit="10"/></g><g transform="translate(-190,-70) scale(1,1)"><g><path fill="none" stroke="none"/><text fill="#000000" stroke="none" font-family="Arial" font-size="13px" font-style="normal" font-weight="bold" text-decoration="none" x="390.5" y="551">修改个人信息</text></g></g><g transform="translate(-190,-70) scale(1,1)"><path fill="none" stroke="#000000" d="M 271 256 L 419 527" stroke-miterlimit="10"/></g><g transform="translate(-190,-70) scale(1,1)"><path fill="#ffffff" stroke="none" d="M 712.4093503196023 417.68 C 712.4093503196023 412.886167936 716.2951926445477 409 721.088623046875 409 C 725.8820534492023 409 729.7678957741477 412.886167936 729.7678957741477 417.68 C 729.7678957741477 422.473832064 725.8820534492023 426.36 721.088623046875 426.36 C 716.2951926445477 426.36 712.4093503196023 422.473832064 712.4093503196023 417.68 Z"/></g><g transform="translate(-190,-70) scale(1,1)"><path fill="none" stroke="#000000" d="M 712.4093503196023 417.68 C 712.4093503196023 412.886167936 716.2951926445477 409 721.088623046875 409 C 725.8820534492023 409 729.7678957741477 412.886167936 729.7678957741477 417.68 C 729.7678957741477 422.473832064 725.8820534492023 426.36 721.088623046875 426.36 C 716.2951926445477 426.36 712.4093503196023 422.473832064 712.4093503196023 417.68 Z" stroke-miterlimit="10"/></g><g transform="translate(-190,-70) scale(1,1)"><path fill="none" stroke="#000000" d="M 721.088623046875 426.36 L 721.088623046875 443.64" stroke-miterlimit="10"/></g><g transform="translate(-190,-70) scale(1,1)"><path fill="none" stroke="#000000" d="M 711.8988048650568 432.84 L 730.2784412286932 432.84" stroke-miterlimit="10"/></g><g transform="translate(-190,-70) scale(1,1)"><path fill="none" stroke="#000000" d="M 721.088623046875 443.64 L 708.3249866832386 461" stroke-miterlimit="10"/></g><g transform="translate(-190,-70) scale(1,1)"><path fill="none" stroke="#000000" d="M 721.088623046875 443.64 L 733.8522594105114 461" stroke-miterlimit="10"/></g><g transform="translate(-190,-70) scale(1,1)"><g><path fill="none" stroke="none"/><text fill="#000000" stroke="none" font-family="Arial" font-size="13px" font-style="normal" font-weight="bold" text-decoration="none" x="701.588623046875" y="480.5">管理员</text></g></g><g transform="translate(-190,-70) scale(1,1)"><path fill="#C0C0C0" stroke="none" d="M 567 464 C 567 454.6111584 589.6096176 447 617.5 447 C 645.3903824 447 668 454.6111584 668 464 C 668 473.3888416 645.3903824 481 617.5 481 C 589.6096176 481 567 473.3888416 567 464 Z" opacity="0.2"/></g><g transform="translate(-190,-70) scale(1,1)"><path fill="#ffffff" stroke="none" d="M 560 457 C 560 447.6111584 582.6096176 440 610.5 440 C 638.3903824 440 661 447.6111584 661 457 C 661 466.3888416 638.3903824 474 610.5 474 C 582.6096176 474 560 466.3888416 560 457 Z"/></g><g transform="translate(-190,-70) scale(1,1)"><path fill="none" stroke="#000000" d="M 560 457 C 560 447.6111584 582.6096176 440 610.5 440 C 638.3903824 440 661 447.6111584 661 457 C 661 466.3888416 638.3903824 474 610.5 474 C 582.6096176 474 560 466.3888416 560 457 Z" stroke-miterlimit="10"/></g><g transform="translate(-190,-70) scale(1,1)"><g><path fill="none" stroke="none"/><text fill="#000000" stroke="none" font-family="Arial" font-size="13px" font-style="normal" font-weight="bold" text-decoration="none" x="584.5" y="463">管理社区</text></g></g><g transform="translate(-190,-70) scale(1,1)"><path fill="none" stroke="#000000" d="M 662 452 L 695 449" stroke-miterlimit="10"/></g><g transform="translate(-190,-70) scale(1,1)"><path fill="none" stroke="#000000" d="M 559 460 L 518 462" stroke-miterlimit="10"/></g><g transform="translate(-190,-70) scale(1,1)"><path fill="none" stroke="#000000" d="M 527.9455067132864 457.30033020138916 L 518 462 L 528.3557036232365 465.70936685536583" stroke-miterlimit="10"/></g></g></svg>