<svg version="1.1" xmlns="http://www.w3.org/2000/svg" xmlns:xlink="http://www.w3.org/1999/xlink" width="548" height="541"><defs/><g><text fill="#eeeeee" stroke="none" font-family="Arial" font-size="24px" font-style="normal" font-weight="normal" text-decoration="none" x="0" y="0">UNREGISTERED</text><text fill="#eeeeee" stroke="none" font-family="Arial" font-size="24px" font-style="normal" font-weight="normal" text-decoration="none" x="0" y="30">UNREGISTERED</text><text fill="#eeeeee" stroke="none" font-family="Arial" font-size="24px" font-style="normal" font-weight="normal" text-decoration="none" x="0" y="60">UNREGISTERED</text><text fill="#eeeeee" stroke="none" font-family="Arial" font-size="24px" font-style="normal" font-weight="normal" text-decoration="none" x="0" y="90">UNREGISTERED</text><text fill="#eeeeee" stroke="none" font-family="Arial" font-size="24px" font-style="normal" font-weight="normal" text-decoration="none" x="0" y="120">UNREGISTERED</text><text fill="#eeeeee" stroke="none" font-family="Arial" font-size="24px" font-style="normal" font-weight="normal" text-decoration="none" x="0" y="150">UNREGISTERED</text><text fill="#eeeeee" stroke="none" font-family="Arial" font-size="24px" font-style="normal" font-weight="normal" text-decoration="none" x="0" y="180">UNREGISTERED</text><text fill="#eeeeee" stroke="none" font-family="Arial" font-size="24px" font-style="normal" font-weight="normal" text-decoration="none" x="0" y="210">UNREGISTERED</text><text fill="#eeeeee" stroke="none" font-family="Arial" font-size="24px" font-style="normal" font-weight="normal" text-decoration="none" x="0" y="240">UNREGISTERED</text><text fill="#eeeeee" stroke="none" font-family="Arial" font-size="24px" font-style="normal" font-weight="normal" text-decoration="none" x="0" y="270">UNREGISTERED</text><text fill="#eeeeee" stroke="none" font-family="Arial" font-size="24px" font-style="normal" font-weight="normal" text-decoration="none" x="0" y="300">UNREGISTERED</text><text fill="#eeeeee" stroke="none" font-family="Arial" font-size="24px" font-style="normal" font-weight="normal" text-decoration="none" x="0" y="330">UNREGISTERED</text><text fill="#eeeeee" stroke="none" font-family="Arial" font-size="24px" font-style="normal" font-weight="normal" text-decoration="none" x="0" y="360">UNREGISTERED</text><text fill="#eeeeee" stroke="none" font-family="Arial" font-size="24px" font-style="normal" font-weight="normal" text-decoration="none" x="0" y="390">UNREGISTERED</text><text fill="#eeeeee" stroke="none" font-family="Arial" font-size="24px" font-style="normal" font-weight="normal" text-decoration="none" x="0" y="420">UNREGISTERED</text><text fill="#eeeeee" stroke="none" font-family="Arial" font-size="24px" font-style="normal" font-weight="normal" text-decoration="none" x="0" y="450">UNREGISTERED</text><text fill="#eeeeee" stroke="none" font-family="Arial" font-size="24px" font-style="normal" font-weight="normal" text-decoration="none" x="0" y="480">UNREGISTERED</text><text fill="#eeeeee" stroke="none" font-family="Arial" font-size="24px" font-style="normal" font-weight="normal" text-decoration="none" x="0" y="510">UNREGISTERED</text><text fill="#eeeeee" stroke="none" font-family="Arial" font-size="24px" font-style="normal" font-weight="normal" text-decoration="none" x="0" y="540">UNREGISTERED</text><text fill="#eeeeee" stroke="none" font-family="Arial" font-size="24px" font-style="normal" font-weight="normal" text-decoration="none" x="200" y="0">UNREGISTERED</text><text fill="#eeeeee" stroke="none" font-family="Arial" font-size="24px" font-style="normal" font-weight="normal" text-decoration="none" x="200" y="30">UNREGISTERED</text><text fill="#eeeeee" stroke="none" font-family="Arial" font-size="24px" font-style="normal" font-weight="normal" text-decoration="none" x="200" y="60">UNREGISTERED</text><text fill="#eeeeee" stroke="none" font-family="Arial" font-size="24px" font-style="normal" font-weight="normal" text-decoration="none" x="200" y="90">UNREGISTERED</text><text fill="#eeeeee" stroke="none" font-family="Arial" font-size="24px" font-style="normal" font-weight="normal" text-decoration="none" x="200" y="120">UNREGISTERED</text><text fill="#eeeeee" stroke="none" font-family="Arial" font-size="24px" font-style="normal" font-weight="normal" text-decoration="none" x="200" y="150">UNREGISTERED</text><text fill="#eeeeee" stroke="none" font-family="Arial" font-size="24px" font-style="normal" font-weight="normal" text-decoration="none" x="200" y="180">UNREGISTERED</text><text fill="#eeeeee" stroke="none" font-family="Arial" font-size="24px" font-style="normal" font-weight="normal" text-decoration="none" x="200" y="210">UNREGISTERED</text><text fill="#eeeeee" stroke="none" font-family="Arial" font-size="24px" font-style="normal" font-weight="normal" text-decoration="none" x="200" y="240">UNREGISTERED</text><text fill="#eeeeee" stroke="none" font-family="Arial" font-size="24px" font-style="normal" font-weight="normal" text-decoration="none" x="200" y="270">UNREGISTERED</text><text fill="#eeeeee" stroke="none" font-family="Arial" font-size="24px" font-style="normal" font-weight="normal" text-decoration="none" x="200" y="300">UNREGISTERED</text><text fill="#eeeeee" stroke="none" font-family="Arial" font-size="24px" font-style="normal" font-weight="normal" text-decoration="none" x="200" y="330">UNREGISTERED</text><text fill="#eeeeee" stroke="none" font-family="Arial" font-size="24px" font-style="normal" font-weight="normal" text-decoration="none" x="200" y="360">UNREGISTERED</text><text fill="#eeeeee" stroke="none" font-family="Arial" font-size="24px" font-style="normal" font-weight="normal" text-decoration="none" x="200" y="390">UNREGISTERED</text><text fill="#eeeeee" stroke="none" font-family="Arial" font-size="24px" font-style="normal" font-weight="normal" text-decoration="none" x="200" y="420">UNREGISTERED</text><text fill="#eeeeee" stroke="none" font-family="Arial" font-size="24px" font-style="normal" font-weight="normal" text-decoration="none" x="200" y="450">UNREGISTERED</text><text fill="#eeeeee" stroke="none" font-family="Arial" font-size="24px" font-style="normal" font-weight="normal" text-decoration="none" x="200" y="480">UNREGISTERED</text><text fill="#eeeeee" stroke="none" font-family="Arial" font-size="24px" font-style="normal" font-weight="normal" text-decoration="none" x="200" y="510">UNREGISTERED</text><text fill="#eeeeee" stroke="none" font-family="Arial" font-size="24px" font-style="normal" font-weight="normal" text-decoration="none" x="200" y="540">UNREGISTERED</text><text fill="#eeeeee" stroke="none" font-family="Arial" font-size="24px" font-style="normal" font-weight="normal" text-decoration="none" x="400" y="0">UNREGISTERED</text><text fill="#eeeeee" stroke="none" font-family="Arial" font-size="24px" font-style="normal" font-weight="normal" text-decoration="none" x="400" y="30">UNREGISTERED</text><text fill="#eeeeee" stroke="none" font-family="Arial" font-size="24px" font-style="normal" font-weight="normal" text-decoration="none" x="400" y="60">UNREGISTERED</text><text fill="#eeeeee" stroke="none" font-family="Arial" font-size="24px" font-style="normal" font-weight="normal" text-decoration="none" x="400" y="90">UNREGISTERED</text><text fill="#eeeeee" stroke="none" font-family="Arial" font-size="24px" font-style="normal" font-weight="normal" text-decoration="none" x="400" y="120">UNREGISTERED</text><text fill="#eeeeee" stroke="none" font-family="Arial" font-size="24px" font-style="normal" font-weight="normal" text-decoration="none" x="400" y="150">UNREGISTERED</text><text fill="#eeeeee" stroke="none" font-family="Arial" font-size="24px" font-style="normal" font-weight="normal" text-decoration="none" x="400" y="180">UNREGISTERED</text><text fill="#eeeeee" stroke="none" font-family="Arial" font-size="24px" font-style="normal" font-weight="normal" text-decoration="none" x="400" y="210">UNREGISTERED</text><text fill="#eeeeee" stroke="none" font-family="Arial" font-size="24px" font-style="normal" font-weight="normal" text-decoration="none" x="400" y="240">UNREGISTERED</text><text fill="#eeeeee" stroke="none" font-family="Arial" font-size="24px" font-style="normal" font-weight="normal" text-decoration="none" x="400" y="270">UNREGISTERED</text><text fill="#eeeeee" stroke="none" font-family="Arial" font-size="24px" font-style="normal" font-weight="normal" text-decoration="none" x="400" y="300">UNREGISTERED</text><text fill="#eeeeee" stroke="none" font-family="Arial" font-size="24px" font-style="normal" font-weight="normal" text-decoration="none" x="400" y="330">UNREGISTERED</text><text fill="#eeeeee" stroke="none" font-family="Arial" font-size="24px" font-style="normal" font-weight="normal" text-decoration="none" x="400" y="360">UNREGISTERED</text><text fill="#eeeeee" stroke="none" font-family="Arial" font-size="24px" font-style="normal" font-weight="normal" text-decoration="none" x="400" y="390">UNREGISTERED</text><text fill="#eeeeee" stroke="none" font-family="Arial" font-size="24px" font-style="normal" font-weight="normal" text-decoration="none" x="400" y="420">UNREGISTERED</text><text fill="#eeeeee" stroke="none" font-family="Arial" font-size="24px" font-style="normal" font-weight="normal" text-decoration="none" x="400" y="450">UNREGISTERED</text><text fill="#eeeeee" stroke="none" font-family="Arial" font-size="24px" font-style="normal" font-weight="normal" text-decoration="none" x="400" y="480">UNREGISTERED</text><text fill="#eeeeee" stroke="none" font-family="Arial" font-size="24px" font-style="normal" font-weight="normal" text-decoration="none" x="400" y="510">UNREGISTERED</text><text fill="#eeeeee" stroke="none" font-family="Arial" font-size="24px" font-style="normal" font-weight="normal" text-decoration="none" x="400" y="540">UNREGISTERED</text><g transform="translate(-54,-126) scale(1,1)"><path fill="#C0C0C0" stroke="none" d="M 71 208.5 C 71 203.2532944 75.2532944 199 80.5 199 C 85.7467056 199 90 203.2532944 90 208.5 C 90 213.7467056 85.7467056 218 80.5 218 C 75.2532944 218 71 213.7467056 71 208.5 Z" opacity="0.2"/></g><g transform="translate(-54,-126) scale(1,1)"><path fill="#000000" stroke="none" d="M 64 201.5 C 64 196.2532944 68.2532944 192 73.5 192 C 78.7467056 192 83 196.2532944 83 201.5 C 83 206.7467056 78.7467056 211 73.5 211 C 68.2532944 211 64 206.7467056 64 201.5 Z"/></g><g transform="translate(-54,-126) scale(1,1)"><rect fill="#ffffff" stroke="none" x="120" y="136" width="271" height="21"/></g><g transform="translate(-54,-126) scale(1,1)"><path fill="none" stroke="#000000" d="M 120 136 L 391 136 L 391 157 L 120 157 L 120 136 Z Z" stroke-miterlimit="10" stroke-width="2"/></g><g transform="translate(-54,-126) scale(1,1)"><path fill="none" stroke="#000000" d="M 120 615 L 120 136 L 391 136 L 391 615" stroke-miterlimit="10" stroke-width="2"/></g><g transform="translate(-54,-126) scale(1,1)"><g><path fill="none" stroke="none"/><text fill="#000000" stroke="none" font-family="Arial" font-size="13px" font-style="normal" font-weight="normal" text-decoration="none" x="242.85546875" y="147">user</text></g></g><g transform="translate(-54,-126) scale(1,1)"><path fill="#C0C0C0" stroke="none" d="M 161 191 L 228 191 Q 238 191 238 201 L 238 221 Q 238 231 228 231 L 161 231 Q 151 231 151 221 L 151 201 Q 151 191 161 191 Z" opacity="0.2"/></g><g transform="translate(-54,-126) scale(1,1)"><path fill="#ffffff" stroke="none" d="M 154 184 L 221 184 Q 231 184 231 194 L 231 214 Q 231 224 221 224 L 154 224 Q 144 224 144 214 L 144 194 Q 144 184 154 184 Z"/></g><g transform="translate(-54,-126) scale(1,1)"><path fill="none" stroke="#000000" d="M 154 184 L 221 184 Q 231 184 231 194 L 231 214 Q 231 224 221 224 L 154 224 Q 144 224 144 214 L 144 194 Q 144 184 154 184 Z" stroke-miterlimit="10"/></g><g transform="translate(-54,-126) scale(1,1)"><g><path fill="none" stroke="none"/><text fill="#000000" stroke="none" font-family="Arial" font-size="13px" font-style="normal" font-weight="bold" text-decoration="none" x="148.5" y="202.5">进入社交页面</text></g></g><g transform="translate(-54,-126) scale(1,1)"><path fill="#C0C0C0" stroke="none" d="M 297 191 L 364 191 Q 374 191 374 201 L 374 221 Q 374 231 364 231 L 297 231 Q 287 231 287 221 L 287 201 Q 287 191 297 191 Z" opacity="0.2"/></g><g transform="translate(-54,-126) scale(1,1)"><path fill="#ffffff" stroke="none" d="M 290 184 L 357 184 Q 367 184 367 194 L 367 214 Q 367 224 357 224 L 290 224 Q 280 224 280 214 L 280 194 Q 280 184 290 184 Z"/></g><g transform="translate(-54,-126) scale(1,1)"><path fill="none" stroke="#000000" d="M 290 184 L 357 184 Q 367 184 367 194 L 367 214 Q 367 224 357 224 L 290 224 Q 280 224 280 214 L 280 194 Q 280 184 290 184 Z" stroke-miterlimit="10"/></g><g transform="translate(-54,-126) scale(1,1)"><g><path fill="none" stroke="none"/><text fill="#000000" stroke="none" font-family="Arial" font-size="13px" font-style="normal" font-weight="bold" text-decoration="none" x="284.5" y="202.5">选择好友列表</text></g></g><g transform="translate(-54,-126) scale(1,1)"><path fill="#C0C0C0" stroke="none" d="M 273 263 L 379 263 Q 389 263 389 273 L 389 293 Q 389 303 379 303 L 273 303 Q 263 303 263 293 L 263 273 Q 263 263 273 263 Z" opacity="0.2"/></g><g transform="translate(-54,-126) scale(1,1)"><path fill="#ffffff" stroke="none" d="M 266 256 L 372 256 Q 382 256 382 266 L 382 286 Q 382 296 372 296 L 266 296 Q 256 296 256 286 L 256 266 Q 256 256 266 256 Z"/></g><g transform="translate(-54,-126) scale(1,1)"><path fill="none" stroke="#000000" d="M 266 256 L 372 256 Q 382 256 382 266 L 382 286 Q 382 296 372 296 L 266 296 Q 256 296 256 286 L 256 266 Q 256 256 266 256 Z" stroke-miterlimit="10"/></g><g transform="translate(-54,-126) scale(1,1)"><g><path fill="none" stroke="none"/><text fill="#000000" stroke="none" font-family="Arial" font-size="13px" font-style="normal" font-weight="bold" text-decoration="none" x="260.5" y="274.5">选择并点击目标好友</text></g></g><g transform="translate(-54,-126) scale(1,1)"><path fill="#C0C0C0" stroke="none" d="M 161 335 L 228 335 Q 238 335 238 345 L 238 365 Q 238 375 228 375 L 161 375 Q 151 375 151 365 L 151 345 Q 151 335 161 335 Z" opacity="0.2"/></g><g transform="translate(-54,-126) scale(1,1)"><path fill="#ffffff" stroke="none" d="M 154 328 L 221 328 Q 231 328 231 338 L 231 358 Q 231 368 221 368 L 154 368 Q 144 368 144 358 L 144 338 Q 144 328 154 328 Z"/></g><g transform="translate(-54,-126) scale(1,1)"><path fill="none" stroke="#000000" d="M 154 328 L 221 328 Q 231 328 231 338 L 231 358 Q 231 368 221 368 L 154 368 Q 144 368 144 358 L 144 338 Q 144 328 154 328 Z" stroke-miterlimit="10"/></g><g transform="translate(-54,-126) scale(1,1)"><g><path fill="none" stroke="none"/><text fill="#000000" stroke="none" font-family="Arial" font-size="13px" font-style="normal" font-weight="bold" text-decoration="none" x="148.5" y="346.5">进入私聊界面</text></g></g><g transform="translate(-54,-126) scale(1,1)"><path fill="#C0C0C0" stroke="none" d="M 289 399 L 369 399 Q 379 399 379 409 L 379 429 Q 379 439 369 439 L 289 439 Q 279 439 279 429 L 279 409 Q 279 399 289 399 Z" opacity="0.2"/></g><g transform="translate(-54,-126) scale(1,1)"><path fill="#ffffff" stroke="none" d="M 282 392 L 362 392 Q 372 392 372 402 L 372 422 Q 372 432 362 432 L 282 432 Q 272 432 272 422 L 272 402 Q 272 392 282 392 Z"/></g><g transform="translate(-54,-126) scale(1,1)"><path fill="none" stroke="#000000" d="M 282 392 L 362 392 Q 372 392 372 402 L 372 422 Q 372 432 362 432 L 282 432 Q 272 432 272 422 L 272 402 Q 272 392 282 392 Z" stroke-miterlimit="10"/></g><g transform="translate(-54,-126) scale(1,1)"><g><path fill="none" stroke="none"/><text fill="#000000" stroke="none" font-family="Arial" font-size="13px" font-style="normal" font-weight="bold" text-decoration="none" x="283" y="410.5">输入发送信息</text></g></g><g transform="translate(-54,-126) scale(1,1)"><rect fill="#ffffff" stroke="none" x="392" y="136" width="200" height="21"/></g><g transform="translate(-54,-126) scale(1,1)"><path fill="none" stroke="#000000" d="M 392 136 L 592 136 L 592 157 L 392 157 L 392 136 Z Z" stroke-miterlimit="10" stroke-width="2"/></g><g transform="translate(-54,-126) scale(1,1)"><path fill="none" stroke="#000000" d="M 392 623 L 392 136 L 592 136 L 592 623" stroke-miterlimit="10" stroke-width="2"/></g><g transform="translate(-54,-126) scale(1,1)"><g><path fill="none" stroke="none"/><text fill="#000000" stroke="none" font-family="Arial" font-size="13px" font-style="normal" font-weight="normal" text-decoration="none" x="471.41455078125" y="149">system</text></g></g><g transform="translate(-54,-126) scale(1,1)"><path fill="#C0C0C0" stroke="none" d="M 457 399 L 524 399 Q 534 399 534 409 L 534 429 Q 534 439 524 439 L 457 439 Q 447 439 447 429 L 447 409 Q 447 399 457 399 Z" opacity="0.2"/></g><g transform="translate(-54,-126) scale(1,1)"><path fill="#ffffff" stroke="none" d="M 450 392 L 517 392 Q 527 392 527 402 L 527 422 Q 527 432 517 432 L 450 432 Q 440 432 440 422 L 440 402 Q 440 392 450 392 Z"/></g><g transform="translate(-54,-126) scale(1,1)"><path fill="none" stroke="#000000" d="M 450 392 L 517 392 Q 527 392 527 402 L 527 422 Q 527 432 517 432 L 450 432 Q 440 432 440 422 L 440 402 Q 440 392 450 392 Z" stroke-miterlimit="10"/></g><g transform="translate(-54,-126) scale(1,1)"><g><path fill="none" stroke="none"/><text fill="#000000" stroke="none" font-family="Arial" font-size="13px" font-style="normal" font-weight="bold" text-decoration="none" x="444.5" y="410.5">接受用户信息</text></g></g><g transform="translate(-54,-126) scale(1,1)"><path fill="#C0C0C0" stroke="none" d="M 441 471 L 547 471 Q 557 471 557 481 L 557 501 Q 557 511 547 511 L 441 511 Q 431 511 431 501 L 431 481 Q 431 471 441 471 Z" opacity="0.2"/></g><g transform="translate(-54,-126) scale(1,1)"><path fill="#ffffff" stroke="none" d="M 434 464 L 540 464 Q 550 464 550 474 L 550 494 Q 550 504 540 504 L 434 504 Q 424 504 424 494 L 424 474 Q 424 464 434 464 Z"/></g><g transform="translate(-54,-126) scale(1,1)"><path fill="none" stroke="#000000" d="M 434 464 L 540 464 Q 550 464 550 474 L 550 494 Q 550 504 540 504 L 434 504 Q 424 504 424 494 L 424 474 Q 424 464 434 464 Z" stroke-miterlimit="10"/></g><g transform="translate(-54,-126) scale(1,1)"><g><path fill="none" stroke="none"/><text fill="#000000" stroke="none" font-family="Arial" font-size="13px" font-style="normal" font-weight="bold" text-decoration="none" x="428.5" y="482.5">向目标用户发送信息</text></g></g><g transform="translate(-54,-126) scale(1,1)"><path fill="#C0C0C0" stroke="none" d="M 457 535 L 524 535 Q 534 535 534 545 L 534 565 Q 534 575 524 575 L 457 575 Q 447 575 447 565 L 447 545 Q 447 535 457 535 Z" opacity="0.2"/></g><g transform="translate(-54,-126) scale(1,1)"><path fill="#ffffff" stroke="none" d="M 450 528 L 517 528 Q 527 528 527 538 L 527 558 Q 527 568 517 568 L 450 568 Q 440 568 440 558 L 440 538 Q 440 528 450 528 Z"/></g><g transform="translate(-54,-126) scale(1,1)"><path fill="none" stroke="#000000" d="M 450 528 L 517 528 Q 527 528 527 538 L 527 558 Q 527 568 517 568 L 450 568 Q 440 568 440 558 L 440 538 Q 440 528 450 528 Z" stroke-miterlimit="10"/></g><g transform="translate(-54,-126) scale(1,1)"><g><path fill="none" stroke="none"/><text fill="#000000" stroke="none" font-family="Arial" font-size="13px" font-style="normal" font-weight="bold" text-decoration="none" x="444.5" y="547">提示成功信息</text></g></g><g transform="translate(-54,-126) scale(1,1)"><path fill="none" stroke="#000000" d="M 232 204 L 279 204" stroke-miterlimit="10"/></g><g transform="translate(-54,-126) scale(1,1)"><path fill="none" stroke="#000000" d="M 268.83732514237585 208.209517756016 L 279 204 L 268.83732514237585 199.790482243984" stroke-miterlimit="10"/></g><g transform="translate(-54,-126) scale(1,1)"><path fill="none" stroke="#000000" d="M 322 225 L 320 255" stroke-miterlimit="10"/></g><g transform="translate(-54,-126) scale(1,1)"><path fill="none" stroke="#000000" d="M 316.4758167371174 244.57982090702765 L 320 255 L 324.8762054144906 245.13984681885253" stroke-miterlimit="10"/></g><g transform="translate(-54,-126) scale(1,1)"><path fill="none" stroke="#000000" d="M 281 297 L 226 327" stroke-miterlimit="10"/></g><g transform="translate(-54,-126) scale(1,1)"><path fill="none" stroke="#000000" d="M 232.9060307198706 318.43806448890183 L 226 327 L 236.93750381308251 325.8290984931237" stroke-miterlimit="10"/></g><g transform="translate(-54,-126) scale(1,1)"><path fill="none" stroke="#000000" d="M 231 369 L 278 391" stroke-miterlimit="10"/></g><g transform="translate(-54,-126) scale(1,1)"><path fill="none" stroke="#000000" d="M 267.0111813018596 390.50415363326897 L 278 391 L 270.5803481096576 382.87911545297317" stroke-miterlimit="10"/></g><g transform="translate(-54,-126) scale(1,1)"><path fill="none" stroke="#000000" d="M 373 412 L 439 412" stroke-miterlimit="10"/></g><g transform="translate(-54,-126) scale(1,1)"><path fill="none" stroke="#000000" d="M 428.83732514237585 416.209517756016 L 439 412 L 428.83732514237585 407.790482243984" stroke-miterlimit="10"/></g><g transform="translate(-54,-126) scale(1,1)"><path fill="none" stroke="#000000" d="M 484 433 L 486 463" stroke-miterlimit="10"/></g><g transform="translate(-54,-126) scale(1,1)"><path fill="none" stroke="#000000" d="M 481.1237945855094 453.13984681885256 L 486 463 L 489.5241832628826 452.5798209070277" stroke-miterlimit="10"/></g><g transform="translate(-54,-126) scale(1,1)"><path fill="none" stroke="#000000" d="M 486 505 L 484 527" stroke-miterlimit="10"/></g><g transform="translate(-54,-126) scale(1,1)"><path fill="none" stroke="#000000" d="M 480.72785521430103 516.4979493192318 L 484 527 L 489.11231548574403 517.260172980272" stroke-miterlimit="10"/></g><g transform="translate(-54,-126) scale(1,1)"><path fill="none" stroke="#000000" d="M 84 201 L 143 203" stroke-miterlimit="10"/></g><g transform="translate(-54,-126) scale(1,1)"><path fill="none" stroke="#000000" d="M 132.70054545256147 206.8628015772555 L 143 203 L 132.9857726573281 198.44859903663905" stroke-miterlimit="10"/></g><g transform="translate(-54,-126) scale(1,1)"><path fill="none" stroke="#000000" d="M 483 569 L 484 631" stroke-miterlimit="10"/></g><g transform="translate(-54,-126) scale(1,1)"><path fill="none" stroke="#000000" d="M 479.62713688711733 620.9065333905545 L 484 631 L 488.04507752489906 620.7707601544613" stroke-miterlimit="10"/></g><g transform="translate(-54,-126) scale(1,1)"><path fill="#C0C0C0" stroke="none" d="M 479 651.5 C 479 644.59644 484.59644 639 491.5 639 C 498.40356 639 504 644.59644 504 651.5 C 504 658.40356 498.40356 664 491.5 664 C 484.59644 664 479 658.40356 479 651.5 Z" opacity="0.2"/></g><g transform="translate(-54,-126) scale(1,1)"><path fill="none" stroke="#000000" d="M 472 644.5 C 472 637.59644 477.59644 632 484.5 632 C 491.40356 632 497 637.59644 497 644.5 C 497 651.40356 491.40356 657 484.5 657 C 477.59644 657 472 651.40356 472 644.5 Z" stroke-miterlimit="10"/></g><g transform="translate(-54,-126) scale(1,1)"><path fill="#000000" stroke="none" d="M 477 644.5 C 477 640.357864 480.357864 637 484.5 637 C 488.642136 637 492 640.357864 492 644.5 C 492 648.642136 488.642136 652 484.5 652 C 480.357864 652 477 648.642136 477 644.5 Z"/></g></g></svg>