<svg id="图层_1" data-name="图层 1" xmlns="http://www.w3.org/2000/svg" viewBox="0 0 1024 1024"><defs><style>.cls-1,.cls-2{fill:#069aff;}.cls-1{fill-rule:evenodd;}</style></defs><g id="图层_1-2" data-name="图层 1-2"><path class="cls-1" d="M51,147q.38,352,.18,704V386.09c0-77.33,1.65-154.72-.67-232-1.17-39.08,14.38-51.18,51.35-51h1.56c103.17.71,201.38,44,273.08,118.22C479,327.34,576.85,437.66,679.11,543.79c14.32,14.84,16.51,33.16,16.51,52.37,0,90.07-1,180.15.62,270.18.67,39.53-12.63,56.58-54.43,55.57q-138.16-3.35-276.46,0c-41.88,1-55.1-16.34-54.14-55.75,1.69-73.29,1.56-146.64,0-219.91-.77-37.06,12.36-52.28,51-52.48,41.32-.26,49.64,20.54,48,54.87-1.18,25.08-.13,50.26-.15,75.41,0,98.73,0,98.73,98.79,98.44,88.33-.27,82-.84,90.12-89.62,8.78-95.9-21.58-166.55-91.13-232.2-91.23-86.12-174.42-180.9-259.06-273.75C221.34,196.84,190.22,184,154,197.2c-34.2,12.56-19.53,47.24-19.69,72.12-1.2,192.69-.23,385.39-1.09,578.09-.15,32.6,13.37,73.73-46.67,74.68-57.68.88-38.13-36.37-38.15-71.56"/></g><g id="图层_1-2-2" data-name="图层 1-2"><path class="cls-2" d="M923.22,927.82q-3.74,0-7.68-.22c-48.11-2.9-48-36.19-47.85-62.92v-4.86q-.26-199.53-.17-399.11V339.35c0-7.63.13-15.29.28-22.93.28-17.08.58-34.74-.69-51.84a134.21,134.21,0,0,1,.51-19.44c1.58-21.36,1.64-34.8-16.36-41.49-31.35-11.63-59.43-3.84-83.48,23.14-21.39,24-43.76,47.79-65.35,70.81-20.53,21.92-41.89,44.59-62.26,67.35-14.12,15.76-26,22.41-38,22.41-11.11-.28-21.73-6.86-32.45-20.09-2.88-3.55-6.14-7-9.34-10.37-9.89-10.3-20.1-21-19.81-35.14.21-9.78,5.51-19.49,16.21-29.7,26.46-25.28,51.31-53.16,75.34-80.14,34.65-39.19,70.63-79.66,112.56-113.38l1.78-1.42,13.07.24c46.39,1.18,91.8,2,137.15-.86,28-1.74,48.17,3.57,61.5,16.21,9.81,9.33,15.6,22.59,17.24,39.6h2.41q.45,166,.37,332.11,0,188.33.5,376.61c0,19.38-1.77,41.08-15.74,54.15C954.12,923.68,941,927.82,923.22,927.82ZM824,185.8a91,91,0,0,1,31.63,5.9c27.78,10.31,26,34.64,24.53,54.15a121.52,121.52,0,0,0-.5,17.59c1.31,17.68,1,35.62.69,53-.13,7.58-.24,15.17-.24,22.73V460.51q0,199.57.17,399.11v5c-.12,28-.21,48.13,36,50.32,18.13,1.08,30.62-1.87,38.16-9,8.22-7.77,11.88-21.66,11.8-45q-.63-188.31-.52-376.65,0-160.16-.33-320.33h-1.87c.19-19.42-4.33-33.25-13.8-42.23-10.66-10.12-27.73-14.31-52.07-12.79-45.86,2.87-91.49,2-138.17.89l-8.51-.17C710.57,142.43,675.47,181.83,641.53,220c-24.27,27.15-49.22,55.23-76,80.87-8.16,7.78-12.19,14.62-12.32,20.87-.19,9,7.82,17.33,16.34,26.14,3.49,3.64,7,7.32,10.1,11.2,8.25,10.2,15.76,15.24,23,15.42,8.24.3,17-5.6,28.29-18.16,20.35-22.76,41.77-45.39,62.3-67.46,21.59-22.95,43.9-46.68,65.18-70.58C777.62,196.67,799.9,185.8,824,185.8Z"/></g></svg>