<svg version="1.1" xmlns="http://www.w3.org/2000/svg" xmlns:xlink="http://www.w3.org/1999/xlink" width="446" height="573"><defs/><g><text fill="#eeeeee" stroke="none" font-family="Arial" font-size="24px" font-style="normal" font-weight="normal" text-decoration="none" x="0" y="0">UNREGISTERED</text><text fill="#eeeeee" stroke="none" font-family="Arial" font-size="24px" font-style="normal" font-weight="normal" text-decoration="none" x="0" y="30">UNREGISTERED</text><text fill="#eeeeee" stroke="none" font-family="Arial" font-size="24px" font-style="normal" font-weight="normal" text-decoration="none" x="0" y="60">UNREGISTERED</text><text fill="#eeeeee" stroke="none" font-family="Arial" font-size="24px" font-style="normal" font-weight="normal" text-decoration="none" x="0" y="90">UNREGISTERED</text><text fill="#eeeeee" stroke="none" font-family="Arial" font-size="24px" font-style="normal" font-weight="normal" text-decoration="none" x="0" y="120">UNREGISTERED</text><text fill="#eeeeee" stroke="none" font-family="Arial" font-size="24px" font-style="normal" font-weight="normal" text-decoration="none" x="0" y="150">UNREGISTERED</text><text fill="#eeeeee" stroke="none" font-family="Arial" font-size="24px" font-style="normal" font-weight="normal" text-decoration="none" x="0" y="180">UNREGISTERED</text><text fill="#eeeeee" stroke="none" font-family="Arial" font-size="24px" font-style="normal" font-weight="normal" text-decoration="none" x="0" y="210">UNREGISTERED</text><text fill="#eeeeee" stroke="none" font-family="Arial" font-size="24px" font-style="normal" font-weight="normal" text-decoration="none" x="0" y="240">UNREGISTERED</text><text fill="#eeeeee" stroke="none" font-family="Arial" font-size="24px" font-style="normal" font-weight="normal" text-decoration="none" x="0" y="270">UNREGISTERED</text><text fill="#eeeeee" stroke="none" font-family="Arial" font-size="24px" font-style="normal" font-weight="normal" text-decoration="none" x="0" y="300">UNREGISTERED</text><text fill="#eeeeee" stroke="none" font-family="Arial" font-size="24px" font-style="normal" font-weight="normal" text-decoration="none" x="0" y="330">UNREGISTERED</text><text fill="#eeeeee" stroke="none" font-family="Arial" font-size="24px" font-style="normal" font-weight="normal" text-decoration="none" x="0" y="360">UNREGISTERED</text><text fill="#eeeeee" stroke="none" font-family="Arial" font-size="24px" font-style="normal" font-weight="normal" text-decoration="none" x="0" y="390">UNREGISTERED</text><text fill="#eeeeee" stroke="none" font-family="Arial" font-size="24px" font-style="normal" font-weight="normal" text-decoration="none" x="0" y="420">UNREGISTERED</text><text fill="#eeeeee" stroke="none" font-family="Arial" font-size="24px" font-style="normal" font-weight="normal" text-decoration="none" x="0" y="450">UNREGISTERED</text><text fill="#eeeeee" stroke="none" font-family="Arial" font-size="24px" font-style="normal" font-weight="normal" text-decoration="none" x="0" y="480">UNREGISTERED</text><text fill="#eeeeee" stroke="none" font-family="Arial" font-size="24px" font-style="normal" font-weight="normal" text-decoration="none" x="0" y="510">UNREGISTERED</text><text fill="#eeeeee" stroke="none" font-family="Arial" font-size="24px" font-style="normal" font-weight="normal" text-decoration="none" x="0" y="540">UNREGISTERED</text><text fill="#eeeeee" stroke="none" font-family="Arial" font-size="24px" font-style="normal" font-weight="normal" text-decoration="none" x="0" y="570">UNREGISTERED</text><text fill="#eeeeee" stroke="none" font-family="Arial" font-size="24px" font-style="normal" font-weight="normal" text-decoration="none" x="200" y="0">UNREGISTERED</text><text fill="#eeeeee" stroke="none" font-family="Arial" font-size="24px" font-style="normal" font-weight="normal" text-decoration="none" x="200" y="30">UNREGISTERED</text><text fill="#eeeeee" stroke="none" font-family="Arial" font-size="24px" font-style="normal" font-weight="normal" text-decoration="none" x="200" y="60">UNREGISTERED</text><text fill="#eeeeee" stroke="none" font-family="Arial" font-size="24px" font-style="normal" font-weight="normal" text-decoration="none" x="200" y="90">UNREGISTERED</text><text fill="#eeeeee" stroke="none" font-family="Arial" font-size="24px" font-style="normal" font-weight="normal" text-decoration="none" x="200" y="120">UNREGISTERED</text><text fill="#eeeeee" stroke="none" font-family="Arial" font-size="24px" font-style="normal" font-weight="normal" text-decoration="none" x="200" y="150">UNREGISTERED</text><text fill="#eeeeee" stroke="none" font-family="Arial" font-size="24px" font-style="normal" font-weight="normal" text-decoration="none" x="200" y="180">UNREGISTERED</text><text fill="#eeeeee" stroke="none" font-family="Arial" font-size="24px" font-style="normal" font-weight="normal" text-decoration="none" x="200" y="210">UNREGISTERED</text><text fill="#eeeeee" stroke="none" font-family="Arial" font-size="24px" font-style="normal" font-weight="normal" text-decoration="none" x="200" y="240">UNREGISTERED</text><text fill="#eeeeee" stroke="none" font-family="Arial" font-size="24px" font-style="normal" font-weight="normal" text-decoration="none" x="200" y="270">UNREGISTERED</text><text fill="#eeeeee" stroke="none" font-family="Arial" font-size="24px" font-style="normal" font-weight="normal" text-decoration="none" x="200" y="300">UNREGISTERED</text><text fill="#eeeeee" stroke="none" font-family="Arial" font-size="24px" font-style="normal" font-weight="normal" text-decoration="none" x="200" y="330">UNREGISTERED</text><text fill="#eeeeee" stroke="none" font-family="Arial" font-size="24px" font-style="normal" font-weight="normal" text-decoration="none" x="200" y="360">UNREGISTERED</text><text fill="#eeeeee" stroke="none" font-family="Arial" font-size="24px" font-style="normal" font-weight="normal" text-decoration="none" x="200" y="390">UNREGISTERED</text><text fill="#eeeeee" stroke="none" font-family="Arial" font-size="24px" font-style="normal" font-weight="normal" text-decoration="none" x="200" y="420">UNREGISTERED</text><text fill="#eeeeee" stroke="none" font-family="Arial" font-size="24px" font-style="normal" font-weight="normal" text-decoration="none" x="200" y="450">UNREGISTERED</text><text fill="#eeeeee" stroke="none" font-family="Arial" font-size="24px" font-style="normal" font-weight="normal" text-decoration="none" x="200" y="480">UNREGISTERED</text><text fill="#eeeeee" stroke="none" font-family="Arial" font-size="24px" font-style="normal" font-weight="normal" text-decoration="none" x="200" y="510">UNREGISTERED</text><text fill="#eeeeee" stroke="none" font-family="Arial" font-size="24px" font-style="normal" font-weight="normal" text-decoration="none" x="200" y="540">UNREGISTERED</text><text fill="#eeeeee" stroke="none" font-family="Arial" font-size="24px" font-style="normal" font-weight="normal" text-decoration="none" x="200" y="570">UNREGISTERED</text><text fill="#eeeeee" stroke="none" font-family="Arial" font-size="24px" font-style="normal" font-weight="normal" text-decoration="none" x="400" y="0">UNREGISTERED</text><text fill="#eeeeee" stroke="none" font-family="Arial" font-size="24px" font-style="normal" font-weight="normal" text-decoration="none" x="400" y="30">UNREGISTERED</text><text fill="#eeeeee" stroke="none" font-family="Arial" font-size="24px" font-style="normal" font-weight="normal" text-decoration="none" x="400" y="60">UNREGISTERED</text><text fill="#eeeeee" stroke="none" font-family="Arial" font-size="24px" font-style="normal" font-weight="normal" text-decoration="none" x="400" y="90">UNREGISTERED</text><text fill="#eeeeee" stroke="none" font-family="Arial" font-size="24px" font-style="normal" font-weight="normal" text-decoration="none" x="400" y="120">UNREGISTERED</text><text fill="#eeeeee" stroke="none" font-family="Arial" font-size="24px" font-style="normal" font-weight="normal" text-decoration="none" x="400" y="150">UNREGISTERED</text><text fill="#eeeeee" stroke="none" font-family="Arial" font-size="24px" font-style="normal" font-weight="normal" text-decoration="none" x="400" y="180">UNREGISTERED</text><text fill="#eeeeee" stroke="none" font-family="Arial" font-size="24px" font-style="normal" font-weight="normal" text-decoration="none" x="400" y="210">UNREGISTERED</text><text fill="#eeeeee" stroke="none" font-family="Arial" font-size="24px" font-style="normal" font-weight="normal" text-decoration="none" x="400" y="240">UNREGISTERED</text><text fill="#eeeeee" stroke="none" font-family="Arial" font-size="24px" font-style="normal" font-weight="normal" text-decoration="none" x="400" y="270">UNREGISTERED</text><text fill="#eeeeee" stroke="none" font-family="Arial" font-size="24px" font-style="normal" font-weight="normal" text-decoration="none" x="400" y="300">UNREGISTERED</text><text fill="#eeeeee" stroke="none" font-family="Arial" font-size="24px" font-style="normal" font-weight="normal" text-decoration="none" x="400" y="330">UNREGISTERED</text><text fill="#eeeeee" stroke="none" font-family="Arial" font-size="24px" font-style="normal" font-weight="normal" text-decoration="none" x="400" y="360">UNREGISTERED</text><text fill="#eeeeee" stroke="none" font-family="Arial" font-size="24px" font-style="normal" font-weight="normal" text-decoration="none" x="400" y="390">UNREGISTERED</text><text fill="#eeeeee" stroke="none" font-family="Arial" font-size="24px" font-style="normal" font-weight="normal" text-decoration="none" x="400" y="420">UNREGISTERED</text><text fill="#eeeeee" stroke="none" font-family="Arial" font-size="24px" font-style="normal" font-weight="normal" text-decoration="none" x="400" y="450">UNREGISTERED</text><text fill="#eeeeee" stroke="none" font-family="Arial" font-size="24px" font-style="normal" font-weight="normal" text-decoration="none" x="400" y="480">UNREGISTERED</text><text fill="#eeeeee" stroke="none" font-family="Arial" font-size="24px" font-style="normal" font-weight="normal" text-decoration="none" x="400" y="510">UNREGISTERED</text><text fill="#eeeeee" stroke="none" font-family="Arial" font-size="24px" font-style="normal" font-weight="normal" text-decoration="none" x="400" y="540">UNREGISTERED</text><text fill="#eeeeee" stroke="none" font-family="Arial" font-size="24px" font-style="normal" font-weight="normal" text-decoration="none" x="400" y="570">UNREGISTERED</text><g transform="translate(-22,-126) scale(1,1)"><path fill="#C0C0C0" stroke="none" d="M 191 152.5 C 191 147.2532944 195.2532944 143 200.5 143 C 205.7467056 143 210 147.2532944 210 152.5 C 210 157.7467056 205.7467056 162 200.5 162 C 195.2532944 162 191 157.7467056 191 152.5 Z" opacity="0.2"/></g><g transform="translate(-22,-126) scale(1,1)"><path fill="#000000" stroke="none" d="M 184 145.5 C 184 140.2532944 188.2532944 136 193.5 136 C 198.7467056 136 203 140.2532944 203 145.5 C 203 150.7467056 198.7467056 155 193.5 155 C 188.2532944 155 184 150.7467056 184 145.5 Z"/></g><g transform="translate(-22,-126) scale(1,1)"><path fill="#C0C0C0" stroke="none" d="M 177 199 L 231 199 Q 241 199 241 209 L 241 229 Q 241 239 231 239 L 177 239 Q 167 239 167 229 L 167 209 Q 167 199 177 199 Z" opacity="0.2"/></g><g transform="translate(-22,-126) scale(1,1)"><path fill="#ffffff" stroke="none" d="M 170 192 L 224 192 Q 234 192 234 202 L 234 222 Q 234 232 224 232 L 170 232 Q 160 232 160 222 L 160 202 Q 160 192 170 192 Z"/></g><g transform="translate(-22,-126) scale(1,1)"><path fill="none" stroke="#000000" d="M 170 192 L 224 192 Q 234 192 234 202 L 234 222 Q 234 232 224 232 L 170 232 Q 160 232 160 222 L 160 202 Q 160 192 170 192 Z" stroke-miterlimit="10"/></g><g transform="translate(-22,-126) scale(1,1)"><g><path fill="none" stroke="none"/><text fill="#000000" stroke="none" font-family="Arial" font-size="13px" font-style="normal" font-weight="bold" text-decoration="none" x="164.5" y="210.5">进入日程表</text></g></g><g transform="translate(-22,-126) scale(1,1)"><path fill="#C0C0C0" stroke="none" d="M 185 279 L 226 279 Q 236 279 236 289 L 236 309 Q 236 319 226 319 L 185 319 Q 175 319 175 309 L 175 289 Q 175 279 185 279 Z" opacity="0.2"/></g><g transform="translate(-22,-126) scale(1,1)"><path fill="#ffffff" stroke="none" d="M 178 272 L 219 272 Q 229 272 229 282 L 229 302 Q 229 312 219 312 L 178 312 Q 168 312 168 302 L 168 282 Q 168 272 178 272 Z"/></g><g transform="translate(-22,-126) scale(1,1)"><path fill="none" stroke="#000000" d="M 178 272 L 219 272 Q 229 272 229 282 L 229 302 Q 229 312 219 312 L 178 312 Q 168 312 168 302 L 168 282 Q 168 272 178 272 Z" stroke-miterlimit="10"/></g><g transform="translate(-22,-126) scale(1,1)"><g><path fill="none" stroke="none"/><text fill="#000000" stroke="none" font-family="Arial" font-size="13px" font-style="normal" font-weight="bold" text-decoration="none" x="172.5" y="290.5">添加任务</text></g></g><g transform="translate(-22,-126) scale(1,1)"><path fill="none" stroke="#000000" d="M 194 156 L 196 191" stroke-miterlimit="10"/></g><g transform="translate(-22,-126) scale(1,1)"><path fill="none" stroke="#000000" d="M 191.21755966870643 181.09402884732563 L 196 191 L 199.62288338741664 180.61372463482792" stroke-miterlimit="10"/></g><g transform="translate(-22,-126) scale(1,1)"><path fill="none" stroke="#000000" d="M 197 233 L 198 271" stroke-miterlimit="10"/></g><g transform="translate(-22,-126) scale(1,1)"><path fill="none" stroke="#000000" d="M 193.5245928199676 260.9515806928197 L 198 271 L 201.94071466674117 260.7301038021151" stroke-miterlimit="10"/></g><g transform="translate(-22,-126) scale(1,1)"><path fill="#C0C0C0" stroke="none" d="M 161 431 L 202 431 Q 212 431 212 441 L 212 461 Q 212 471 202 471 L 161 471 Q 151 471 151 461 L 151 441 Q 151 431 161 431 Z" opacity="0.2"/></g><g transform="translate(-22,-126) scale(1,1)"><path fill="#ffffff" stroke="none" d="M 154 424 L 195 424 Q 205 424 205 434 L 205 454 Q 205 464 195 464 L 154 464 Q 144 464 144 454 L 144 434 Q 144 424 154 424 Z"/></g><g transform="translate(-22,-126) scale(1,1)"><path fill="none" stroke="#000000" d="M 154 424 L 195 424 Q 205 424 205 434 L 205 454 Q 205 464 195 464 L 154 464 Q 144 464 144 454 L 144 434 Q 144 424 154 424 Z" stroke-miterlimit="10"/></g><g transform="translate(-22,-126) scale(1,1)"><g><path fill="none" stroke="none"/><text fill="#000000" stroke="none" font-family="Arial" font-size="13px" font-style="normal" font-weight="bold" text-decoration="none" x="148.5" y="442.5">任务名称</text></g></g><g transform="translate(-22,-126) scale(1,1)"><path fill="#C0C0C0" stroke="none" d="M 281 431 L 335 431 Q 345 431 345 441 L 345 461 Q 345 471 335 471 L 281 471 Q 271 471 271 461 L 271 441 Q 271 431 281 431 Z" opacity="0.2"/></g><g transform="translate(-22,-126) scale(1,1)"><path fill="#ffffff" stroke="none" d="M 274 424 L 328 424 Q 338 424 338 434 L 338 454 Q 338 464 328 464 L 274 464 Q 264 464 264 454 L 264 434 Q 264 424 274 424 Z"/></g><g transform="translate(-22,-126) scale(1,1)"><path fill="none" stroke="#000000" d="M 274 424 L 328 424 Q 338 424 338 434 L 338 454 Q 338 464 328 464 L 274 464 Q 264 464 264 454 L 264 434 Q 264 424 274 424 Z" stroke-miterlimit="10"/></g><g transform="translate(-22,-126) scale(1,1)"><g><path fill="none" stroke="none"/><text fill="#000000" stroke="none" font-family="Arial" font-size="13px" font-style="normal" font-weight="bold" text-decoration="none" x="268.5" y="442.5">设定时间段</text></g></g><g transform="translate(-22,-126) scale(1,1)"><path fill="#C0C0C0" stroke="none" d="M 401 423 L 455 423 Q 465 423 465 433 L 465 453 Q 465 463 455 463 L 401 463 Q 391 463 391 453 L 391 433 Q 391 423 401 423 Z" opacity="0.2"/></g><g transform="translate(-22,-126) scale(1,1)"><path fill="#ffffff" stroke="none" d="M 394 416 L 448 416 Q 458 416 458 426 L 458 446 Q 458 456 448 456 L 394 456 Q 384 456 384 446 L 384 426 Q 384 416 394 416 Z"/></g><g transform="translate(-22,-126) scale(1,1)"><path fill="none" stroke="#000000" d="M 394 416 L 448 416 Q 458 416 458 426 L 458 446 Q 458 456 448 456 L 394 456 Q 384 456 384 446 L 384 426 Q 384 416 394 416 Z" stroke-miterlimit="10"/></g><g transform="translate(-22,-126) scale(1,1)"><g><path fill="none" stroke="none"/><text fill="#000000" stroke="none" font-family="Arial" font-size="13px" font-style="normal" font-weight="bold" text-decoration="none" x="388.5" y="434.5">设定优先级</text></g></g><g transform="translate(-22,-126) scale(1,1)"><path fill="#C0C0C0" stroke="none" d="M 274 543 L 337 543 Q 340 543 340 546 L 340 545 Q 340 548 337 548 L 274 548 Q 271 548 271 545 L 271 546 Q 271 543 274 543 Z" opacity="0.2"/></g><g transform="translate(-22,-126) scale(1,1)"><path fill="#000000" stroke="none" d="M 267 536 L 330 536 Q 333 536 333 539 L 333 539 Q 333 542 330 542 L 267 542 Q 264 542 264 539 L 264 539 Q 264 536 267 536 Z"/></g><g transform="translate(-22,-126) scale(1,1)"><path fill="none" stroke="#000000" d="M 202 465 L 294 535" stroke-miterlimit="10"/></g><g transform="translate(-22,-126) scale(1,1)"><path fill="none" stroke="#000000" d="M 283.36329683378847 532.1963335159286 L 294 535 L 288.4612066447757 525.4962234786311" stroke-miterlimit="10"/></g><g transform="translate(-22,-126) scale(1,1)"><path fill="none" stroke="#000000" d="M 300 465 L 298 535" stroke-miterlimit="10"/></g><g transform="translate(-22,-126) scale(1,1)"><path fill="none" stroke="#000000" d="M 294.0824430594122 524.7212477597106 L 298 535 L 302.4980443328709 524.961693510381" stroke-miterlimit="10"/></g><g transform="translate(-22,-126) scale(1,1)"><path fill="none" stroke="#000000" d="M 396 457 L 302 535" stroke-miterlimit="10"/></g><g transform="translate(-22,-126) scale(1,1)"><path fill="none" stroke="#000000" d="M 307.1327231310537 525.270912002662 L 302 535 L 312.5088874295995 531.7498792342428" stroke-miterlimit="10"/></g><g transform="translate(-22,-126) scale(1,1)"><path fill="#C0C0C0" stroke="none" d="M 273 591 L 327 591 Q 337 591 337 601 L 337 621 Q 337 631 327 631 L 273 631 Q 263 631 263 621 L 263 601 Q 263 591 273 591 Z" opacity="0.2"/></g><g transform="translate(-22,-126) scale(1,1)"><path fill="#ffffff" stroke="none" d="M 266 584 L 320 584 Q 330 584 330 594 L 330 614 Q 330 624 320 624 L 266 624 Q 256 624 256 614 L 256 594 Q 256 584 266 584 Z"/></g><g transform="translate(-22,-126) scale(1,1)"><path fill="none" stroke="#000000" d="M 266 584 L 320 584 Q 330 584 330 594 L 330 614 Q 330 624 320 624 L 266 624 Q 256 624 256 614 L 256 594 Q 256 584 266 584 Z" stroke-miterlimit="10"/></g><g transform="translate(-22,-126) scale(1,1)"><g><path fill="none" stroke="none"/><text fill="#000000" stroke="none" font-family="Arial" font-size="13px" font-style="normal" font-weight="bold" text-decoration="none" x="260.5" y="602.5">确认并保存</text></g></g><g transform="translate(-22,-126) scale(1,1)"><path fill="none" stroke="#000000" d="M 298 542 L 295 583" stroke-miterlimit="10"/></g><g transform="translate(-22,-126) scale(1,1)"><path fill="none" stroke="#000000" d="M 291.5433336665559 572.5572293973661 L 295 583 L 299.93992170282036 573.1716138878245" stroke-miterlimit="10"/></g><g transform="translate(-22,-126) scale(1,1)"><path fill="#C0C0C0" stroke="none" d="M 295 683.5 C 295 676.59644 300.59644 671 307.5 671 C 314.40356 671 320 676.59644 320 683.5 C 320 690.40356 314.40356 696 307.5 696 C 300.59644 696 295 690.40356 295 683.5 Z" opacity="0.2"/></g><g transform="translate(-22,-126) scale(1,1)"><path fill="none" stroke="#000000" d="M 288 676.5 C 288 669.59644 293.59644 664 300.5 664 C 307.40356 664 313 669.59644 313 676.5 C 313 683.40356 307.40356 689 300.5 689 C 293.59644 689 288 683.40356 288 676.5 Z" stroke-miterlimit="10"/></g><g transform="translate(-22,-126) scale(1,1)"><path fill="#000000" stroke="none" d="M 293 676.5 C 293 672.357864 296.357864 669 300.5 669 C 304.642136 669 308 672.357864 308 676.5 C 308 680.642136 304.642136 684 300.5 684 C 296.357864 684 293 680.642136 293 676.5 Z"/></g><g transform="translate(-22,-126) scale(1,1)"><path fill="none" stroke="#000000" d="M 295 625 L 299 663" stroke-miterlimit="10"/></g><g transform="translate(-22,-126) scale(1,1)"><path fill="none" stroke="#000000" d="M 293.74973420987527 653.333836897039 L 299 663 L 302.12251093493006 652.4524919786121" stroke-miterlimit="10"/></g><g transform="translate(-22,-126) scale(1,1)"><path fill="#C0C0C0" stroke="none" d="M 167 356.5 L 198.5 343 L 229 356.5 L 198.5 369 L 167 356.5" opacity="0.2"/></g><g transform="translate(-22,-126) scale(1,1)"><path fill="#ffffff" stroke="none" d="M 160 349 L 191 336 L 222 349 L 191 362 L 160 349"/></g><g transform="translate(-22,-126) scale(1,1)"><path fill="none" stroke="#000000" d="M 160 349 L 191 336 L 222 349 L 191 362 L 160 349 L 160 349" stroke-miterlimit="10"/></g><g transform="translate(-22,-126) scale(1,1)"><path fill="none" stroke="#000000" d="M 195 313 L 193 335" stroke-miterlimit="10"/></g><g transform="translate(-22,-126) scale(1,1)"><path fill="none" stroke="#000000" d="M 189.72785521430106 324.49794931923185 L 193 335 L 198.11231548574403 325.2601729802721" stroke-miterlimit="10"/></g><g transform="translate(-22,-126) scale(1,1)"><path fill="none" stroke="#000000" d="M 283 382 L 206 426" stroke-miterlimit="10"/></g><g transform="translate(-22,-126) scale(1,1)"><path fill="none" stroke="#000000" d="M 212.73516708030883 417.30301636196066 L 206 426 L 216.91217842123686 424.6127862085847" stroke-miterlimit="10"/></g><g transform="translate(-22,-126) scale(1,1)"><path fill="none" stroke="#000000" d="M 223 358 L 280 375" stroke-miterlimit="10"/></g><g transform="translate(-22,-126) scale(1,1)"><path fill="none" stroke="#000000" d="M 269.05813133294214 376.12938482053636 L 280 375 L 271.46433480150034 368.0615261318412" stroke-miterlimit="10"/></g><g transform="translate(-22,-126) scale(1,1)"><path fill="#C0C0C0" stroke="none" d="M 266 383 L 329 383 Q 332 383 332 386 L 332 385 Q 332 388 329 388 L 266 388 Q 263 388 263 385 L 263 386 Q 263 383 266 383 Z" opacity="0.2"/></g><g transform="translate(-22,-126) scale(1,1)"><path fill="#000000" stroke="none" d="M 259 376 L 322 376 Q 325 376 325 379 L 325 379 Q 325 382 322 382 L 259 382 Q 256 382 256 379 L 256 379 Q 256 376 259 376 Z"/></g><g transform="translate(-22,-126) scale(1,1)"><path fill="none" stroke="#000000" d="M 291 382 L 298 423" stroke-miterlimit="10"/></g><g transform="translate(-22,-126) scale(1,1)"><path fill="none" stroke="#000000" d="M 292.1401827820024 413.6907281610397 L 298 423 L 300.43913275387797 412.2738342634024" stroke-miterlimit="10"/></g><g transform="translate(-22,-126) scale(1,1)"><path fill="none" stroke="#000000" d="M 299 382 L 383 419" stroke-miterlimit="10"/></g><g transform="translate(-22,-126) scale(1,1)"><path fill="none" stroke="#000000" d="M 372.0027121390651 418.75574664028085 L 383 419 L 375.39645638585745 411.05102997188743" stroke-miterlimit="10"/></g><g transform="translate(-22,-126) scale(1,1)"><path fill="#C0C0C0" stroke="none" d="M 49 415 L 90 415 Q 100 415 100 425 L 100 445 Q 100 455 90 455 L 49 455 Q 39 455 39 445 L 39 425 Q 39 415 49 415 Z" opacity="0.2"/></g><g transform="translate(-22,-126) scale(1,1)"><path fill="#ffffff" stroke="none" d="M 42 408 L 83 408 Q 93 408 93 418 L 93 438 Q 93 448 83 448 L 42 448 Q 32 448 32 438 L 32 418 Q 32 408 42 408 Z"/></g><g transform="translate(-22,-126) scale(1,1)"><path fill="none" stroke="#000000" d="M 42 408 L 83 408 Q 93 408 93 418 L 93 438 Q 93 448 83 448 L 42 448 Q 32 448 32 438 L 32 418 Q 32 408 42 408 Z" stroke-miterlimit="10"/></g><g transform="translate(-22,-126) scale(1,1)"><g><path fill="none" stroke="none"/><text fill="#000000" stroke="none" font-family="Arial" font-size="13px" font-style="normal" font-weight="bold" text-decoration="none" x="36.5" y="426.5">取消创建</text></g></g><g transform="translate(-22,-126) scale(1,1)"><path fill="none" stroke="#000000" d="M 168 363 L 94 408" stroke-miterlimit="10"/></g><g transform="translate(-22,-126) scale(1,1)"><path fill="none" stroke="#000000" d="M 100.49602349337604 399.122969033877 L 94 408 L 104.87039105586186 406.3163734699648" stroke-miterlimit="10"/></g><g transform="translate(-22,-126) scale(1,1)"><path fill="#C0C0C0" stroke="none" d="M 55 515.5 C 55 508.59644 60.59644 503 67.5 503 C 74.40356 503 80 508.59644 80 515.5 C 80 522.40356 74.40356 528 67.5 528 C 60.59644 528 55 522.40356 55 515.5 Z" opacity="0.2"/></g><g transform="translate(-22,-126) scale(1,1)"><path fill="#ffffff" stroke="none" d="M 48 508.5 C 48 501.59644 53.59644 496 60.5 496 C 67.40356 496 73 501.59644 73 508.5 C 73 515.40356 67.40356 521 60.5 521 C 53.59644 521 48 515.40356 48 508.5 Z"/></g><g transform="translate(-22,-126) scale(1,1)"><path fill="none" stroke="#000000" d="M 48 508.5 C 48 501.59644 53.59644 496 60.5 496 C 67.40356 496 73 501.59644 73 508.5 C 73 515.40356 67.40356 521 60.5 521 C 53.59644 521 48 515.40356 48 508.5 Z" stroke-miterlimit="10"/></g><g transform="translate(-22,-126) scale(1,1)"><path fill="none" stroke="#000000" d="M 51 499 L 69 517" stroke-miterlimit="10"/></g><g transform="translate(-22,-126) scale(1,1)"><path fill="none" stroke="#000000" d="M 69 499 L 51 517" stroke-miterlimit="10"/></g><g transform="translate(-22,-126) scale(1,1)"><path fill="none" stroke="#000000" d="M 61 449 L 60 495" stroke-miterlimit="10"/></g><g transform="translate(-22,-126) scale(1,1)"><path fill="none" stroke="#000000" d="M 56.01235210782486 484.74823604017183 L 60 495 L 64.42939894957705 484.93121531934037" stroke-miterlimit="10"/></g></g></svg>