<svg version="1.1" xmlns="http://www.w3.org/2000/svg" xmlns:xlink="http://www.w3.org/1999/xlink" width="988" height="708"><defs/><g><text fill="#eeeeee" stroke="none" font-family="Arial" font-size="24px" font-style="normal" font-weight="normal" text-decoration="none" x="0" y="0">UNREGISTERED</text><text fill="#eeeeee" stroke="none" font-family="Arial" font-size="24px" font-style="normal" font-weight="normal" text-decoration="none" x="0" y="30">UNREGISTERED</text><text fill="#eeeeee" stroke="none" font-family="Arial" font-size="24px" font-style="normal" font-weight="normal" text-decoration="none" x="0" y="60">UNREGISTERED</text><text fill="#eeeeee" stroke="none" font-family="Arial" font-size="24px" font-style="normal" font-weight="normal" text-decoration="none" x="0" y="90">UNREGISTERED</text><text fill="#eeeeee" stroke="none" font-family="Arial" font-size="24px" font-style="normal" font-weight="normal" text-decoration="none" x="0" y="120">UNREGISTERED</text><text fill="#eeeeee" stroke="none" font-family="Arial" font-size="24px" font-style="normal" font-weight="normal" text-decoration="none" x="0" y="150">UNREGISTERED</text><text fill="#eeeeee" stroke="none" font-family="Arial" font-size="24px" font-style="normal" font-weight="normal" text-decoration="none" x="0" y="180">UNREGISTERED</text><text fill="#eeeeee" stroke="none" font-family="Arial" font-size="24px" font-style="normal" font-weight="normal" text-decoration="none" x="0" y="210">UNREGISTERED</text><text fill="#eeeeee" stroke="none" font-family="Arial" font-size="24px" font-style="normal" font-weight="normal" text-decoration="none" x="0" y="240">UNREGISTERED</text><text fill="#eeeeee" stroke="none" font-family="Arial" font-size="24px" font-style="normal" font-weight="normal" text-decoration="none" x="0" y="270">UNREGISTERED</text><text fill="#eeeeee" stroke="none" font-family="Arial" font-size="24px" font-style="normal" font-weight="normal" text-decoration="none" x="0" y="300">UNREGISTERED</text><text fill="#eeeeee" stroke="none" font-family="Arial" font-size="24px" font-style="normal" font-weight="normal" text-decoration="none" x="0" y="330">UNREGISTERED</text><text fill="#eeeeee" stroke="none" font-family="Arial" font-size="24px" font-style="normal" font-weight="normal" text-decoration="none" x="0" y="360">UNREGISTERED</text><text fill="#eeeeee" stroke="none" font-family="Arial" font-size="24px" font-style="normal" font-weight="normal" text-decoration="none" x="0" y="390">UNREGISTERED</text><text fill="#eeeeee" stroke="none" font-family="Arial" font-size="24px" font-style="normal" font-weight="normal" text-decoration="none" x="0" y="420">UNREGISTERED</text><text fill="#eeeeee" stroke="none" font-family="Arial" font-size="24px" font-style="normal" font-weight="normal" text-decoration="none" x="0" y="450">UNREGISTERED</text><text fill="#eeeeee" stroke="none" font-family="Arial" font-size="24px" font-style="normal" font-weight="normal" text-decoration="none" x="0" y="480">UNREGISTERED</text><text fill="#eeeeee" stroke="none" font-family="Arial" font-size="24px" font-style="normal" font-weight="normal" text-decoration="none" x="0" y="510">UNREGISTERED</text><text fill="#eeeeee" stroke="none" font-family="Arial" font-size="24px" font-style="normal" font-weight="normal" text-decoration="none" x="0" y="540">UNREGISTERED</text><text fill="#eeeeee" stroke="none" font-family="Arial" font-size="24px" font-style="normal" font-weight="normal" text-decoration="none" x="0" y="570">UNREGISTERED</text><text fill="#eeeeee" stroke="none" font-family="Arial" font-size="24px" font-style="normal" font-weight="normal" text-decoration="none" x="0" y="600">UNREGISTERED</text><text fill="#eeeeee" stroke="none" font-family="Arial" font-size="24px" font-style="normal" font-weight="normal" text-decoration="none" x="0" y="630">UNREGISTERED</text><text fill="#eeeeee" stroke="none" font-family="Arial" font-size="24px" font-style="normal" font-weight="normal" text-decoration="none" x="0" y="660">UNREGISTERED</text><text fill="#eeeeee" stroke="none" font-family="Arial" font-size="24px" font-style="normal" font-weight="normal" text-decoration="none" x="0" y="690">UNREGISTERED</text><text fill="#eeeeee" stroke="none" font-family="Arial" font-size="24px" font-style="normal" font-weight="normal" text-decoration="none" x="200" y="0">UNREGISTERED</text><text fill="#eeeeee" stroke="none" font-family="Arial" font-size="24px" font-style="normal" font-weight="normal" text-decoration="none" x="200" y="30">UNREGISTERED</text><text fill="#eeeeee" stroke="none" font-family="Arial" font-size="24px" font-style="normal" font-weight="normal" text-decoration="none" x="200" y="60">UNREGISTERED</text><text fill="#eeeeee" stroke="none" font-family="Arial" font-size="24px" font-style="normal" font-weight="normal" text-decoration="none" x="200" y="90">UNREGISTERED</text><text fill="#eeeeee" stroke="none" font-family="Arial" font-size="24px" font-style="normal" font-weight="normal" text-decoration="none" x="200" y="120">UNREGISTERED</text><text fill="#eeeeee" stroke="none" font-family="Arial" font-size="24px" font-style="normal" font-weight="normal" text-decoration="none" x="200" y="150">UNREGISTERED</text><text fill="#eeeeee" stroke="none" font-family="Arial" font-size="24px" font-style="normal" font-weight="normal" text-decoration="none" x="200" y="180">UNREGISTERED</text><text fill="#eeeeee" stroke="none" font-family="Arial" font-size="24px" font-style="normal" font-weight="normal" text-decoration="none" x="200" y="210">UNREGISTERED</text><text fill="#eeeeee" stroke="none" font-family="Arial" font-size="24px" font-style="normal" font-weight="normal" text-decoration="none" x="200" y="240">UNREGISTERED</text><text fill="#eeeeee" stroke="none" font-family="Arial" font-size="24px" font-style="normal" font-weight="normal" text-decoration="none" x="200" y="270">UNREGISTERED</text><text fill="#eeeeee" stroke="none" font-family="Arial" font-size="24px" font-style="normal" font-weight="normal" text-decoration="none" x="200" y="300">UNREGISTERED</text><text fill="#eeeeee" stroke="none" font-family="Arial" font-size="24px" font-style="normal" font-weight="normal" text-decoration="none" x="200" y="330">UNREGISTERED</text><text fill="#eeeeee" stroke="none" font-family="Arial" font-size="24px" font-style="normal" font-weight="normal" text-decoration="none" x="200" y="360">UNREGISTERED</text><text fill="#eeeeee" stroke="none" font-family="Arial" font-size="24px" font-style="normal" font-weight="normal" text-decoration="none" x="200" y="390">UNREGISTERED</text><text fill="#eeeeee" stroke="none" font-family="Arial" font-size="24px" font-style="normal" font-weight="normal" text-decoration="none" x="200" y="420">UNREGISTERED</text><text fill="#eeeeee" stroke="none" font-family="Arial" font-size="24px" font-style="normal" font-weight="normal" text-decoration="none" x="200" y="450">UNREGISTERED</text><text fill="#eeeeee" stroke="none" font-family="Arial" font-size="24px" font-style="normal" font-weight="normal" text-decoration="none" x="200" y="480">UNREGISTERED</text><text fill="#eeeeee" stroke="none" font-family="Arial" font-size="24px" font-style="normal" font-weight="normal" text-decoration="none" x="200" y="510">UNREGISTERED</text><text fill="#eeeeee" stroke="none" font-family="Arial" font-size="24px" font-style="normal" font-weight="normal" text-decoration="none" x="200" y="540">UNREGISTERED</text><text fill="#eeeeee" stroke="none" font-family="Arial" font-size="24px" font-style="normal" font-weight="normal" text-decoration="none" x="200" y="570">UNREGISTERED</text><text fill="#eeeeee" stroke="none" font-family="Arial" font-size="24px" font-style="normal" font-weight="normal" text-decoration="none" x="200" y="600">UNREGISTERED</text><text fill="#eeeeee" stroke="none" font-family="Arial" font-size="24px" font-style="normal" font-weight="normal" text-decoration="none" x="200" y="630">UNREGISTERED</text><text fill="#eeeeee" stroke="none" font-family="Arial" font-size="24px" font-style="normal" font-weight="normal" text-decoration="none" x="200" y="660">UNREGISTERED</text><text fill="#eeeeee" stroke="none" font-family="Arial" font-size="24px" font-style="normal" font-weight="normal" text-decoration="none" x="200" y="690">UNREGISTERED</text><text fill="#eeeeee" stroke="none" font-family="Arial" font-size="24px" font-style="normal" font-weight="normal" text-decoration="none" x="400" y="0">UNREGISTERED</text><text fill="#eeeeee" stroke="none" font-family="Arial" font-size="24px" font-style="normal" font-weight="normal" text-decoration="none" x="400" y="30">UNREGISTERED</text><text fill="#eeeeee" stroke="none" font-family="Arial" font-size="24px" font-style="normal" font-weight="normal" text-decoration="none" x="400" y="60">UNREGISTERED</text><text fill="#eeeeee" stroke="none" font-family="Arial" font-size="24px" font-style="normal" font-weight="normal" text-decoration="none" x="400" y="90">UNREGISTERED</text><text fill="#eeeeee" stroke="none" font-family="Arial" font-size="24px" font-style="normal" font-weight="normal" text-decoration="none" x="400" y="120">UNREGISTERED</text><text fill="#eeeeee" stroke="none" font-family="Arial" font-size="24px" font-style="normal" font-weight="normal" text-decoration="none" x="400" y="150">UNREGISTERED</text><text fill="#eeeeee" stroke="none" font-family="Arial" font-size="24px" font-style="normal" font-weight="normal" text-decoration="none" x="400" y="180">UNREGISTERED</text><text fill="#eeeeee" stroke="none" font-family="Arial" font-size="24px" font-style="normal" font-weight="normal" text-decoration="none" x="400" y="210">UNREGISTERED</text><text fill="#eeeeee" stroke="none" font-family="Arial" font-size="24px" font-style="normal" font-weight="normal" text-decoration="none" x="400" y="240">UNREGISTERED</text><text fill="#eeeeee" stroke="none" font-family="Arial" font-size="24px" font-style="normal" font-weight="normal" text-decoration="none" x="400" y="270">UNREGISTERED</text><text fill="#eeeeee" stroke="none" font-family="Arial" font-size="24px" font-style="normal" font-weight="normal" text-decoration="none" x="400" y="300">UNREGISTERED</text><text fill="#eeeeee" stroke="none" font-family="Arial" font-size="24px" font-style="normal" font-weight="normal" text-decoration="none" x="400" y="330">UNREGISTERED</text><text fill="#eeeeee" stroke="none" font-family="Arial" font-size="24px" font-style="normal" font-weight="normal" text-decoration="none" x="400" y="360">UNREGISTERED</text><text fill="#eeeeee" stroke="none" font-family="Arial" font-size="24px" font-style="normal" font-weight="normal" text-decoration="none" x="400" y="390">UNREGISTERED</text><text fill="#eeeeee" stroke="none" font-family="Arial" font-size="24px" font-style="normal" font-weight="normal" text-decoration="none" x="400" y="420">UNREGISTERED</text><text fill="#eeeeee" stroke="none" font-family="Arial" font-size="24px" font-style="normal" font-weight="normal" text-decoration="none" x="400" y="450">UNREGISTERED</text><text fill="#eeeeee" stroke="none" font-family="Arial" font-size="24px" font-style="normal" font-weight="normal" text-decoration="none" x="400" y="480">UNREGISTERED</text><text fill="#eeeeee" stroke="none" font-family="Arial" font-size="24px" font-style="normal" font-weight="normal" text-decoration="none" x="400" y="510">UNREGISTERED</text><text fill="#eeeeee" stroke="none" font-family="Arial" font-size="24px" font-style="normal" font-weight="normal" text-decoration="none" x="400" y="540">UNREGISTERED</text><text fill="#eeeeee" stroke="none" font-family="Arial" font-size="24px" font-style="normal" font-weight="normal" text-decoration="none" x="400" y="570">UNREGISTERED</text><text fill="#eeeeee" stroke="none" font-family="Arial" font-size="24px" font-style="normal" font-weight="normal" text-decoration="none" x="400" y="600">UNREGISTERED</text><text fill="#eeeeee" stroke="none" font-family="Arial" font-size="24px" font-style="normal" font-weight="normal" text-decoration="none" x="400" y="630">UNREGISTERED</text><text fill="#eeeeee" stroke="none" font-family="Arial" font-size="24px" font-style="normal" font-weight="normal" text-decoration="none" x="400" y="660">UNREGISTERED</text><text fill="#eeeeee" stroke="none" font-family="Arial" font-size="24px" font-style="normal" font-weight="normal" text-decoration="none" x="400" y="690">UNREGISTERED</text><text fill="#eeeeee" stroke="none" font-family="Arial" font-size="24px" font-style="normal" font-weight="normal" text-decoration="none" x="600" y="0">UNREGISTERED</text><text fill="#eeeeee" stroke="none" font-family="Arial" font-size="24px" font-style="normal" font-weight="normal" text-decoration="none" x="600" y="30">UNREGISTERED</text><text fill="#eeeeee" stroke="none" font-family="Arial" font-size="24px" font-style="normal" font-weight="normal" text-decoration="none" x="600" y="60">UNREGISTERED</text><text fill="#eeeeee" stroke="none" font-family="Arial" font-size="24px" font-style="normal" font-weight="normal" text-decoration="none" x="600" y="90">UNREGISTERED</text><text fill="#eeeeee" stroke="none" font-family="Arial" font-size="24px" font-style="normal" font-weight="normal" text-decoration="none" x="600" y="120">UNREGISTERED</text><text fill="#eeeeee" stroke="none" font-family="Arial" font-size="24px" font-style="normal" font-weight="normal" text-decoration="none" x="600" y="150">UNREGISTERED</text><text fill="#eeeeee" stroke="none" font-family="Arial" font-size="24px" font-style="normal" font-weight="normal" text-decoration="none" x="600" y="180">UNREGISTERED</text><text fill="#eeeeee" stroke="none" font-family="Arial" font-size="24px" font-style="normal" font-weight="normal" text-decoration="none" x="600" y="210">UNREGISTERED</text><text fill="#eeeeee" stroke="none" font-family="Arial" font-size="24px" font-style="normal" font-weight="normal" text-decoration="none" x="600" y="240">UNREGISTERED</text><text fill="#eeeeee" stroke="none" font-family="Arial" font-size="24px" font-style="normal" font-weight="normal" text-decoration="none" x="600" y="270">UNREGISTERED</text><text fill="#eeeeee" stroke="none" font-family="Arial" font-size="24px" font-style="normal" font-weight="normal" text-decoration="none" x="600" y="300">UNREGISTERED</text><text fill="#eeeeee" stroke="none" font-family="Arial" font-size="24px" font-style="normal" font-weight="normal" text-decoration="none" x="600" y="330">UNREGISTERED</text><text fill="#eeeeee" stroke="none" font-family="Arial" font-size="24px" font-style="normal" font-weight="normal" text-decoration="none" x="600" y="360">UNREGISTERED</text><text fill="#eeeeee" stroke="none" font-family="Arial" font-size="24px" font-style="normal" font-weight="normal" text-decoration="none" x="600" y="390">UNREGISTERED</text><text fill="#eeeeee" stroke="none" font-family="Arial" font-size="24px" font-style="normal" font-weight="normal" text-decoration="none" x="600" y="420">UNREGISTERED</text><text fill="#eeeeee" stroke="none" font-family="Arial" font-size="24px" font-style="normal" font-weight="normal" text-decoration="none" x="600" y="450">UNREGISTERED</text><text fill="#eeeeee" stroke="none" font-family="Arial" font-size="24px" font-style="normal" font-weight="normal" text-decoration="none" x="600" y="480">UNREGISTERED</text><text fill="#eeeeee" stroke="none" font-family="Arial" font-size="24px" font-style="normal" font-weight="normal" text-decoration="none" x="600" y="510">UNREGISTERED</text><text fill="#eeeeee" stroke="none" font-family="Arial" font-size="24px" font-style="normal" font-weight="normal" text-decoration="none" x="600" y="540">UNREGISTERED</text><text fill="#eeeeee" stroke="none" font-family="Arial" font-size="24px" font-style="normal" font-weight="normal" text-decoration="none" x="600" y="570">UNREGISTERED</text><text fill="#eeeeee" stroke="none" font-family="Arial" font-size="24px" font-style="normal" font-weight="normal" text-decoration="none" x="600" y="600">UNREGISTERED</text><text fill="#eeeeee" stroke="none" font-family="Arial" font-size="24px" font-style="normal" font-weight="normal" text-decoration="none" x="600" y="630">UNREGISTERED</text><text fill="#eeeeee" stroke="none" font-family="Arial" font-size="24px" font-style="normal" font-weight="normal" text-decoration="none" x="600" y="660">UNREGISTERED</text><text fill="#eeeeee" stroke="none" font-family="Arial" font-size="24px" font-style="normal" font-weight="normal" text-decoration="none" x="600" y="690">UNREGISTERED</text><text fill="#eeeeee" stroke="none" font-family="Arial" font-size="24px" font-style="normal" font-weight="normal" text-decoration="none" x="800" y="0">UNREGISTERED</text><text fill="#eeeeee" stroke="none" font-family="Arial" font-size="24px" font-style="normal" font-weight="normal" text-decoration="none" x="800" y="30">UNREGISTERED</text><text fill="#eeeeee" stroke="none" font-family="Arial" font-size="24px" font-style="normal" font-weight="normal" text-decoration="none" x="800" y="60">UNREGISTERED</text><text fill="#eeeeee" stroke="none" font-family="Arial" font-size="24px" font-style="normal" font-weight="normal" text-decoration="none" x="800" y="90">UNREGISTERED</text><text fill="#eeeeee" stroke="none" font-family="Arial" font-size="24px" font-style="normal" font-weight="normal" text-decoration="none" x="800" y="120">UNREGISTERED</text><text fill="#eeeeee" stroke="none" font-family="Arial" font-size="24px" font-style="normal" font-weight="normal" text-decoration="none" x="800" y="150">UNREGISTERED</text><text fill="#eeeeee" stroke="none" font-family="Arial" font-size="24px" font-style="normal" font-weight="normal" text-decoration="none" x="800" y="180">UNREGISTERED</text><text fill="#eeeeee" stroke="none" font-family="Arial" font-size="24px" font-style="normal" font-weight="normal" text-decoration="none" x="800" y="210">UNREGISTERED</text><text fill="#eeeeee" stroke="none" font-family="Arial" font-size="24px" font-style="normal" font-weight="normal" text-decoration="none" x="800" y="240">UNREGISTERED</text><text fill="#eeeeee" stroke="none" font-family="Arial" font-size="24px" font-style="normal" font-weight="normal" text-decoration="none" x="800" y="270">UNREGISTERED</text><text fill="#eeeeee" stroke="none" font-family="Arial" font-size="24px" font-style="normal" font-weight="normal" text-decoration="none" x="800" y="300">UNREGISTERED</text><text fill="#eeeeee" stroke="none" font-family="Arial" font-size="24px" font-style="normal" font-weight="normal" text-decoration="none" x="800" y="330">UNREGISTERED</text><text fill="#eeeeee" stroke="none" font-family="Arial" font-size="24px" font-style="normal" font-weight="normal" text-decoration="none" x="800" y="360">UNREGISTERED</text><text fill="#eeeeee" stroke="none" font-family="Arial" font-size="24px" font-style="normal" font-weight="normal" text-decoration="none" x="800" y="390">UNREGISTERED</text><text fill="#eeeeee" stroke="none" font-family="Arial" font-size="24px" font-style="normal" font-weight="normal" text-decoration="none" x="800" y="420">UNREGISTERED</text><text fill="#eeeeee" stroke="none" font-family="Arial" font-size="24px" font-style="normal" font-weight="normal" text-decoration="none" x="800" y="450">UNREGISTERED</text><text fill="#eeeeee" stroke="none" font-family="Arial" font-size="24px" font-style="normal" font-weight="normal" text-decoration="none" x="800" y="480">UNREGISTERED</text><text fill="#eeeeee" stroke="none" font-family="Arial" font-size="24px" font-style="normal" font-weight="normal" text-decoration="none" x="800" y="510">UNREGISTERED</text><text fill="#eeeeee" stroke="none" font-family="Arial" font-size="24px" font-style="normal" font-weight="normal" text-decoration="none" x="800" y="540">UNREGISTERED</text><text fill="#eeeeee" stroke="none" font-family="Arial" font-size="24px" font-style="normal" font-weight="normal" text-decoration="none" x="800" y="570">UNREGISTERED</text><text fill="#eeeeee" stroke="none" font-family="Arial" font-size="24px" font-style="normal" font-weight="normal" text-decoration="none" x="800" y="600">UNREGISTERED</text><text fill="#eeeeee" stroke="none" font-family="Arial" font-size="24px" font-style="normal" font-weight="normal" text-decoration="none" x="800" y="630">UNREGISTERED</text><text fill="#eeeeee" stroke="none" font-family="Arial" font-size="24px" font-style="normal" font-weight="normal" text-decoration="none" x="800" y="660">UNREGISTERED</text><text fill="#eeeeee" stroke="none" font-family="Arial" font-size="24px" font-style="normal" font-weight="normal" text-decoration="none" x="800" y="690">UNREGISTERED</text><g transform="translate(-70,-126) scale(1,1)"><rect fill="#ffffff" stroke="none" x="528" y="136" width="520" height="21"/></g><g transform="translate(-70,-126) scale(1,1)"><path fill="none" stroke="#000000" d="M 528 136 L 1048 136 L 1048 157 L 528 157 L 528 136 Z Z" stroke-miterlimit="10" stroke-width="2"/></g><g transform="translate(-70,-126) scale(1,1)"><path fill="none" stroke="#000000" d="M 528 824 L 528 136 L 1048 136 L 1048 824" stroke-miterlimit="10" stroke-width="2"/></g><g transform="translate(-70,-126) scale(1,1)"><g><path fill="none" stroke="none"/><text fill="#000000" stroke="none" font-family="Arial" font-size="13px" font-style="normal" font-weight="normal" text-decoration="none" x="766.3291015625" y="149">System</text></g></g><g transform="translate(-70,-126) scale(1,1)"><rect fill="#ffffff" stroke="none" x="80" y="136" width="448" height="21"/></g><g transform="translate(-70,-126) scale(1,1)"><path fill="none" stroke="#000000" d="M 80 136 L 528 136 L 528 157 L 80 157 L 80 136 Z Z" stroke-miterlimit="10" stroke-width="2"/></g><g transform="translate(-70,-126) scale(1,1)"><path fill="none" stroke="#000000" d="M 80 792 L 80 136 L 528 136 L 528 792" stroke-miterlimit="10" stroke-width="2"/></g><g transform="translate(-70,-126) scale(1,1)"><g><path fill="none" stroke="none"/><text fill="#000000" stroke="none" font-family="Arial" font-size="13px" font-style="normal" font-weight="normal" text-decoration="none" x="290.2763671875" y="149">User</text></g></g><g transform="translate(-70,-126) scale(1,1)"><path fill="#C0C0C0" stroke="none" d="M 321 303 L 508.1357421875 303 Q 518.1357421875 303 518.1357421875 313 L 518.1357421875 333 Q 518.1357421875 343 508.1357421875 343 L 321 343 Q 311 343 311 333 L 311 313 Q 311 303 321 303 Z" opacity="0.2"/></g><g transform="translate(-70,-126) scale(1,1)"><path fill="#ffffff" stroke="none" d="M 314 296 L 501.1357421875 296 Q 511.1357421875 296 511.1357421875 306 L 511.1357421875 326 Q 511.1357421875 336 501.1357421875 336 L 314 336 Q 304 336 304 326 L 304 306 Q 304 296 314 296 Z"/></g><g transform="translate(-70,-126) scale(1,1)"><path fill="none" stroke="#000000" d="M 314 296 L 501.1357421875 296 Q 511.1357421875 296 511.1357421875 306 L 511.1357421875 326 Q 511.1357421875 336 501.1357421875 336 L 314 336 Q 304 336 304 326 L 304 306 Q 304 296 314 296 Z" stroke-miterlimit="10"/></g><g transform="translate(-70,-126) scale(1,1)"><g><path fill="none" stroke="none"/><text fill="#000000" stroke="none" font-family="Arial" font-size="13px" font-style="normal" font-weight="bold" text-decoration="none" x="362.0678176879883" y="315">输入邮箱和密码</text></g></g><g transform="translate(-70,-126) scale(1,1)"><path fill="#C0C0C0" stroke="none" d="M 279 192.5 C 279 187.2532944 283.2532944 183 288.5 183 C 293.7467056 183 298 187.2532944 298 192.5 C 298 197.7467056 293.7467056 202 288.5 202 C 283.2532944 202 279 197.7467056 279 192.5 Z" opacity="0.2"/></g><g transform="translate(-70,-126) scale(1,1)"><path fill="#000000" stroke="none" d="M 272 185.5 C 272 180.2532944 276.2532944 176 281.5 176 C 286.7467056 176 291 180.2532944 291 185.5 C 291 190.7467056 286.7467056 195 281.5 195 C 276.2532944 195 272 190.7467056 272 185.5 Z"/></g><g transform="translate(-70,-126) scale(1,1)"><path fill="#C0C0C0" stroke="none" d="M 649 383 L 918.3251953125 383 Q 928.3251953125 383 928.3251953125 393 L 928.3251953125 413 Q 928.3251953125 423 918.3251953125 423 L 649 423 Q 639 423 639 413 L 639 393 Q 639 383 649 383 Z" opacity="0.2"/></g><g transform="translate(-70,-126) scale(1,1)"><path fill="#ffffff" stroke="none" d="M 642 376 L 911.3251953125 376 Q 921.3251953125 376 921.3251953125 386 L 921.3251953125 406 Q 921.3251953125 416 911.3251953125 416 L 642 416 Q 632 416 632 406 L 632 386 Q 632 376 642 376 Z"/></g><g transform="translate(-70,-126) scale(1,1)"><path fill="none" stroke="#000000" d="M 642 376 L 911.3251953125 376 Q 921.3251953125 376 921.3251953125 386 L 921.3251953125 406 Q 921.3251953125 416 911.3251953125 416 L 642 416 Q 632 416 632 406 L 632 386 Q 632 376 642 376 Z" stroke-miterlimit="10"/></g><g transform="translate(-70,-126) scale(1,1)"><g><path fill="none" stroke="none"/><text fill="#000000" stroke="none" font-family="Arial" font-size="13px" font-style="normal" font-weight="bold" text-decoration="none" x="711.6625213623047" y="395">检索用户名并核对密码</text></g></g><g transform="translate(-70,-126) scale(1,1)"><path fill="#C0C0C0" stroke="none" d="M 759 467.5 L 783.5 455 L 807 467.5 L 783.5 479 L 759 467.5" opacity="0.2"/></g><g transform="translate(-70,-126) scale(1,1)"><path fill="#ffffff" stroke="none" d="M 752 460 L 776 448 L 800 460 L 776 472 L 752 460"/></g><g transform="translate(-70,-126) scale(1,1)"><path fill="none" stroke="#000000" d="M 752 460 L 776 448 L 800 460 L 776 472 L 752 460 L 752 460" stroke-miterlimit="10"/></g><g transform="translate(-70,-126) scale(1,1)"><path fill="none" stroke="#000000" d="M 776 417 L 776 447" stroke-miterlimit="10"/></g><g transform="translate(-70,-126) scale(1,1)"><path fill="none" stroke="#000000" d="M 771.790482243984 436.83732514237585 L 776 447 L 780.209517756016 436.83732514237585" stroke-miterlimit="10"/></g><g transform="translate(-70,-126) scale(1,1)"><path fill="#C0C0C0" stroke="none" d="M 569 543 L 727.0380859375 543 Q 737.0380859375 543 737.0380859375 553 L 737.0380859375 573 Q 737.0380859375 583 727.0380859375 583 L 569 583 Q 559 583 559 573 L 559 553 Q 559 543 569 543 Z" opacity="0.2"/></g><g transform="translate(-70,-126) scale(1,1)"><path fill="#ffffff" stroke="none" d="M 562 536 L 720.0380859375 536 Q 730.0380859375 536 730.0380859375 546 L 730.0380859375 566 Q 730.0380859375 576 720.0380859375 576 L 562 576 Q 552 576 552 566 L 552 546 Q 552 536 562 536 Z"/></g><g transform="translate(-70,-126) scale(1,1)"><path fill="none" stroke="#000000" d="M 562 536 L 720.0380859375 536 Q 730.0380859375 536 730.0380859375 546 L 730.0380859375 566 Q 730.0380859375 576 720.0380859375 576 L 562 576 Q 552 576 552 566 L 552 546 Q 552 536 562 536 Z" stroke-miterlimit="10"/></g><g transform="translate(-70,-126) scale(1,1)"><g><path fill="none" stroke="none"/><text fill="#000000" stroke="none" font-family="Arial" font-size="13px" font-style="normal" font-weight="bold" text-decoration="none" x="602.0189971923828" y="555">提供通过信息</text></g></g><g transform="translate(-70,-126) scale(1,1)"><path fill="none" stroke="#000000" d="M 752 460 L 648 460 L 648 536" stroke-miterlimit="10"/></g><g transform="translate(-70,-126) scale(1,1)"><path fill="none" stroke="#000000" d="M 643.790482243984 525.8373251423759 L 648 536 L 652.209517756016 525.8373251423759" stroke-miterlimit="10"/></g><g transform="translate(-70,-126) scale(1,1)"><g><path fill="none" stroke="none"/><text fill="#000000" stroke="none" font-family="Arial" font-size="13px" font-style="normal" font-weight="normal" text-decoration="none" x="663.6010589599609" y="455.5">有效</text></g></g><g transform="translate(-70,-126) scale(1,1)"><path fill="#C0C0C0" stroke="none" d="M 865 519 L 976.4970703125 519 Q 986.4970703125 519 986.4970703125 529 L 986.4970703125 549 Q 986.4970703125 559 976.4970703125 559 L 865 559 Q 855 559 855 549 L 855 529 Q 855 519 865 519 Z" opacity="0.2"/></g><g transform="translate(-70,-126) scale(1,1)"><path fill="#ffffff" stroke="none" d="M 858 512 L 969.4970703125 512 Q 979.4970703125 512 979.4970703125 522 L 979.4970703125 542 Q 979.4970703125 552 969.4970703125 552 L 858 552 Q 848 552 848 542 L 848 522 Q 848 512 858 512 Z"/></g><g transform="translate(-70,-126) scale(1,1)"><path fill="none" stroke="#000000" d="M 858 512 L 969.4970703125 512 Q 979.4970703125 512 979.4970703125 522 L 979.4970703125 542 Q 979.4970703125 552 969.4970703125 552 L 858 552 Q 848 552 848 542 L 848 522 Q 848 512 858 512 Z" stroke-miterlimit="10"/></g><g transform="translate(-70,-126) scale(1,1)"><g><path fill="none" stroke="none"/><text fill="#000000" stroke="none" font-family="Arial" font-size="13px" font-style="normal" font-weight="bold" text-decoration="none" x="874.7484893798828" y="531">给予错误提醒</text></g></g><g transform="translate(-70,-126) scale(1,1)"><path fill="none" stroke="#000000" d="M 800 459 L 912 459 L 912 512" stroke-miterlimit="10"/></g><g transform="translate(-70,-126) scale(1,1)"><path fill="none" stroke="#000000" d="M 907.790482243984 501.83732514237585 L 912 512 L 916.209517756016 501.83732514237585" stroke-miterlimit="10"/></g><g transform="translate(-70,-126) scale(1,1)"><g><path fill="none" stroke="none"/><text fill="#000000" stroke="none" font-family="Arial" font-size="13px" font-style="normal" font-weight="normal" text-decoration="none" x="843.9108734130859" y="450.5">非法</text></g></g><g transform="translate(-70,-126) scale(1,1)"><path fill="#C0C0C0" stroke="none" d="M 903 623.5 L 923.5 607 L 943 623.5 L 923.5 639 L 903 623.5" opacity="0.2"/></g><g transform="translate(-70,-126) scale(1,1)"><path fill="#ffffff" stroke="none" d="M 896 616 L 916 600 L 936 616 L 916 632 L 896 616"/></g><g transform="translate(-70,-126) scale(1,1)"><path fill="none" stroke="#000000" d="M 896 616 L 916 600 L 936 616 L 916 632 L 896 616 L 896 616" stroke-miterlimit="10"/></g><g transform="translate(-70,-126) scale(1,1)"><path fill="none" stroke="#000000" d="M 914 553 L 915 599" stroke-miterlimit="10"/></g><g transform="translate(-70,-126) scale(1,1)"><path fill="none" stroke="#000000" d="M 910.570601050423 588.9312153193404 L 915 599 L 918.9876478921751 588.7482360401718" stroke-miterlimit="10"/></g><g transform="translate(-70,-126) scale(1,1)"><path fill="#C0C0C0" stroke="none" d="M 705 663 L 893.8876953125 663 Q 903.8876953125 663 903.8876953125 673 L 903.8876953125 693 Q 903.8876953125 703 893.8876953125 703 L 705 703 Q 695 703 695 693 L 695 673 Q 695 663 705 663 Z" opacity="0.2"/></g><g transform="translate(-70,-126) scale(1,1)"><path fill="#ffffff" stroke="none" d="M 698 656 L 886.8876953125 656 Q 896.8876953125 656 896.8876953125 666 L 896.8876953125 686 Q 896.8876953125 696 886.8876953125 696 L 698 696 Q 688 696 688 686 L 688 666 Q 688 656 698 656 Z"/></g><g transform="translate(-70,-126) scale(1,1)"><path fill="none" stroke="#000000" d="M 698 656 L 886.8876953125 656 Q 896.8876953125 656 896.8876953125 666 L 896.8876953125 686 Q 896.8876953125 696 886.8876953125 696 L 698 696 Q 688 696 688 686 L 688 666 Q 688 656 698 656 Z" stroke-miterlimit="10"/></g><g transform="translate(-70,-126) scale(1,1)"><g><path fill="none" stroke="none"/><text fill="#000000" stroke="none" font-family="Arial" font-size="13px" font-style="normal" font-weight="bold" text-decoration="none" x="707.9437484741211" y="675">使用绑定邮箱找回或更改密码</text></g></g><g transform="translate(-70,-126) scale(1,1)"><path fill="none" stroke="#000000" d="M 896 616 L 784 616 L 784 656" stroke-miterlimit="10"/></g><g transform="translate(-70,-126) scale(1,1)"><path fill="none" stroke="#000000" d="M 779.790482243984 645.8373251423759 L 784 656 L 788.209517756016 645.8373251423759" stroke-miterlimit="10"/></g><g transform="translate(-70,-126) scale(1,1)"><g><path fill="none" stroke="none"/><text fill="#000000" stroke="none" font-family="Arial" font-size="13px" font-style="normal" font-weight="normal" text-decoration="none" x="778.9289245605469" y="604">忘记密码</text></g></g><g transform="translate(-70,-126) scale(1,1)"><path fill="none" stroke="#000000" d="M 936 616 L 1024 616 L 1024 312 L 511 312" stroke-miterlimit="10"/></g><g transform="translate(-70,-126) scale(1,1)"><path fill="none" stroke="#000000" d="M 521.1626748576241 307.790482243984 L 511 312 L 521.1626748576241 316.209517756016" stroke-miterlimit="10"/></g><g transform="translate(-70,-126) scale(1,1)"><g><path fill="none" stroke="none"/><text fill="#000000" stroke="none" font-family="Arial" font-size="13px" font-style="normal" font-weight="normal" text-decoration="none" x="957.3786315917969" y="605">再试一次</text></g></g><g transform="translate(-70,-126) scale(1,1)"><path fill="#C0C0C0" stroke="none" d="M 353 655 L 458.0986328125 655 Q 468.0986328125 655 468.0986328125 665 L 468.0986328125 685 Q 468.0986328125 695 458.0986328125 695 L 353 695 Q 343 695 343 685 L 343 665 Q 343 655 353 655 Z" opacity="0.2"/></g><g transform="translate(-70,-126) scale(1,1)"><path fill="#ffffff" stroke="none" d="M 346 648 L 451.0986328125 648 Q 461.0986328125 648 461.0986328125 658 L 461.0986328125 678 Q 461.0986328125 688 451.0986328125 688 L 346 688 Q 336 688 336 678 L 336 658 Q 336 648 346 648 Z"/></g><g transform="translate(-70,-126) scale(1,1)"><path fill="none" stroke="#000000" d="M 346 648 L 451.0986328125 648 Q 461.0986328125 648 461.0986328125 658 L 461.0986328125 678 Q 461.0986328125 688 451.0986328125 688 L 346 688 Q 336 688 336 678 L 336 658 Q 336 648 346 648 Z" stroke-miterlimit="10"/></g><g transform="translate(-70,-126) scale(1,1)"><g><path fill="none" stroke="none"/><text fill="#000000" stroke="none" font-family="Arial" font-size="13px" font-style="normal" font-weight="bold" text-decoration="none" x="372.5492858886719" y="666.5">成功登录</text></g></g><g transform="translate(-70,-126) scale(1,1)"><path fill="none" stroke="#000000" d="M 595 577 L 444 647" stroke-miterlimit="10"/></g><g transform="translate(-70,-126) scale(1,1)"><path fill="none" stroke="#000000" d="M 451.4496885570849 638.9066607384567 L 444 647 L 454.99058037072314 646.544870222162" stroke-miterlimit="10"/></g><g transform="translate(-70,-126) scale(1,1)"><path fill="#C0C0C0" stroke="none" d="M 391 747.5 C 391 740.59644 396.59644 735 403.5 735 C 410.40356 735 416 740.59644 416 747.5 C 416 754.40356 410.40356 760 403.5 760 C 396.59644 760 391 754.40356 391 747.5 Z" opacity="0.2"/></g><g transform="translate(-70,-126) scale(1,1)"><path fill="none" stroke="#000000" d="M 384 740.5 C 384 733.59644 389.59644 728 396.5 728 C 403.40356 728 409 733.59644 409 740.5 C 409 747.40356 403.40356 753 396.5 753 C 389.59644 753 384 747.40356 384 740.5 Z" stroke-miterlimit="10"/></g><g transform="translate(-70,-126) scale(1,1)"><path fill="#000000" stroke="none" d="M 389 740.5 C 389 736.357864 392.357864 733 396.5 733 C 400.642136 733 404 736.357864 404 740.5 C 404 744.642136 400.642136 748 396.5 748 C 392.357864 748 389 744.642136 389 740.5 Z"/></g><g transform="translate(-70,-126) scale(1,1)"><path fill="none" stroke="#000000" d="M 397 689 L 396 727" stroke-miterlimit="10"/></g><g transform="translate(-70,-126) scale(1,1)"><path fill="none" stroke="#000000" d="M 392.0592853332588 716.7301038021151 L 396 727 L 400.4754071800324 716.9515806928197" stroke-miterlimit="10"/></g><g transform="translate(-70,-126) scale(1,1)"><path fill="#C0C0C0" stroke="none" d="M 991 707.5 C 991 700.59644 996.59644 695 1003.5 695 C 1010.40356 695 1016 700.59644 1016 707.5 C 1016 714.40356 1010.40356 720 1003.5 720 C 996.59644 720 991 714.40356 991 707.5 Z" opacity="0.2"/></g><g transform="translate(-70,-126) scale(1,1)"><path fill="#ffffff" stroke="none" d="M 984 700.5 C 984 693.59644 989.59644 688 996.5 688 C 1003.40356 688 1009 693.59644 1009 700.5 C 1009 707.40356 1003.40356 713 996.5 713 C 989.59644 713 984 707.40356 984 700.5 Z"/></g><g transform="translate(-70,-126) scale(1,1)"><path fill="none" stroke="#000000" d="M 984 700.5 C 984 693.59644 989.59644 688 996.5 688 C 1003.40356 688 1009 693.59644 1009 700.5 C 1009 707.40356 1003.40356 713 996.5 713 C 989.59644 713 984 707.40356 984 700.5 Z" stroke-miterlimit="10"/></g><g transform="translate(-70,-126) scale(1,1)"><path fill="none" stroke="#000000" d="M 987 691 L 1005 709" stroke-miterlimit="10"/></g><g transform="translate(-70,-126) scale(1,1)"><path fill="none" stroke="#000000" d="M 1005 691 L 987 709" stroke-miterlimit="10"/></g><g transform="translate(-70,-126) scale(1,1)"><path fill="none" stroke="#000000" d="M 932 633 L 984 687" stroke-miterlimit="10"/></g><g transform="translate(-70,-126) scale(1,1)"><path fill="none" stroke="#000000" d="M 973.9185443379461 682.5995168749283 L 984 687 L 979.9829457953653 676.759722878895" stroke-miterlimit="10"/></g><g transform="translate(-70,-126) scale(1,1)"><g><path fill="none" stroke="none"/><text fill="#000000" stroke="none" font-family="Arial" font-size="13px" font-style="normal" font-weight="normal" text-decoration="none" x="962.9338073730469" y="651.5">异常退出</text></g></g><g transform="translate(-70,-126) scale(1,1)"><path fill="#C0C0C0" stroke="none" d="M 185 303 L 226.00006103515625 303 Q 236.00006103515625 303 236.00006103515625 313 L 236.00006103515625 333 Q 236.00006103515625 343 226.00006103515625 343 L 185 343 Q 175 343 175 333 L 175 313 Q 175 303 185 303 Z" opacity="0.2"/></g><g transform="translate(-70,-126) scale(1,1)"><path fill="#ffffff" stroke="none" d="M 178 296 L 219.00006103515625 296 Q 229.00006103515625 296 229.00006103515625 306 L 229.00006103515625 326 Q 229.00006103515625 336 219.00006103515625 336 L 178 336 Q 168 336 168 326 L 168 306 Q 168 296 178 296 Z"/></g><g transform="translate(-70,-126) scale(1,1)"><path fill="none" stroke="#000000" d="M 178 296 L 219.00006103515625 296 Q 229.00006103515625 296 229.00006103515625 306 L 229.00006103515625 326 Q 229.00006103515625 336 219.00006103515625 336 L 178 336 Q 168 336 168 326 L 168 306 Q 168 296 178 296 Z" stroke-miterlimit="10"/></g><g transform="translate(-70,-126) scale(1,1)"><g><path fill="none" stroke="none"/><text fill="#000000" stroke="none" font-family="Arial" font-size="13px" font-style="normal" font-weight="bold" text-decoration="none" x="172.5" y="314.5">自动登录</text></g></g><g transform="translate(-70,-126) scale(1,1)"><path fill="none" stroke="#000000" d="M 281 196 L 282 231" stroke-miterlimit="10"/></g><g transform="translate(-70,-126) scale(1,1)"><path fill="none" stroke="#000000" d="M 277.5019556671291 220.96169351038094 L 282 231 L 285.9175569405878 220.7212477597107" stroke-miterlimit="10"/></g><g transform="translate(-70,-126) scale(1,1)"><path fill="#C0C0C0" stroke="none" d="M 258 239 L 321 239 Q 324 239 324 242 L 324 241 Q 324 244 321 244 L 258 244 Q 255 244 255 241 L 255 242 Q 255 239 258 239 Z" opacity="0.2"/></g><g transform="translate(-70,-126) scale(1,1)"><path fill="#000000" stroke="none" d="M 251 232 L 314 232 Q 317 232 317 235 L 317 235 Q 317 238 314 238 L 251 238 Q 248 238 248 235 L 248 235 Q 248 232 251 232 Z"/></g><g transform="translate(-70,-126) scale(1,1)"><path fill="none" stroke="#000000" d="M 278 238 L 220 295" stroke-miterlimit="10"/></g><g transform="translate(-70,-126) scale(1,1)"><path fill="none" stroke="#000000" d="M 224.29772635987734 284.8743124610911 L 220 295 L 230.19889377569208 290.87900912981485" stroke-miterlimit="10"/></g><g transform="translate(-70,-126) scale(1,1)"><path fill="none" stroke="#000000" d="M 288 238 L 375 295" stroke-miterlimit="10"/></g><g transform="translate(-70,-126) scale(1,1)"><path fill="none" stroke="#000000" d="M 364.19239124812685 292.9516853106921 L 375 295 L 368.806243769953 285.90948935632576" stroke-miterlimit="10"/></g><g transform="translate(-70,-126) scale(1,1)"><path fill="#C0C0C0" stroke="none" d="M 169 375 L 236.00009155273438 375 Q 246.00009155273438 375 246.00009155273438 385 L 246.00009155273438 405 Q 246.00009155273438 415 236.00009155273438 415 L 169 415 Q 159 415 159 405 L 159 385 Q 159 375 169 375 Z" opacity="0.2"/></g><g transform="translate(-70,-126) scale(1,1)"><path fill="#ffffff" stroke="none" d="M 162 368 L 229.00009155273438 368 Q 239.00009155273438 368 239.00009155273438 378 L 239.00009155273438 398 Q 239.00009155273438 408 229.00009155273438 408 L 162 408 Q 152 408 152 398 L 152 378 Q 152 368 162 368 Z"/></g><g transform="translate(-70,-126) scale(1,1)"><path fill="none" stroke="#000000" d="M 162 368 L 229.00009155273438 368 Q 239.00009155273438 368 239.00009155273438 378 L 239.00009155273438 398 Q 239.00009155273438 408 229.00009155273438 408 L 162 408 Q 152 408 152 398 L 152 378 Q 152 368 162 368 Z" stroke-miterlimit="10"/></g><g transform="translate(-70,-126) scale(1,1)"><g><path fill="none" stroke="none"/><text fill="#000000" stroke="none" font-family="Arial" font-size="13px" font-style="normal" font-weight="bold" text-decoration="none" x="156.5" y="387">使用本地缓存</text></g></g><g transform="translate(-70,-126) scale(1,1)"><path fill="none" stroke="#000000" d="M 197 337 L 196 367" stroke-miterlimit="10"/></g><g transform="translate(-70,-126) scale(1,1)"><path fill="none" stroke="#000000" d="M 192.13138670550276 356.7027270028595 L 196 367 L 200.54574886967976 356.9832057416654" stroke-miterlimit="10"/></g><g transform="translate(-70,-126) scale(1,1)"><path fill="#C0C0C0" stroke="none" d="M 249 583 L 289.10498046875 583 Q 299.10498046875 583 299.10498046875 593 L 299.10498046875 613 Q 299.10498046875 623 289.10498046875 623 L 249 623 Q 239 623 239 613 L 239 593 Q 239 583 249 583 Z" opacity="0.2"/></g><g transform="translate(-70,-126) scale(1,1)"><path fill="#ffffff" stroke="none" d="M 242 576 L 282.10498046875 576 Q 292.10498046875 576 292.10498046875 586 L 292.10498046875 606 Q 292.10498046875 616 282.10498046875 616 L 242 616 Q 232 616 232 606 L 232 586 Q 232 576 242 576 Z"/></g><g transform="translate(-70,-126) scale(1,1)"><path fill="none" stroke="#000000" d="M 242 576 L 282.10498046875 576 Q 292.10498046875 576 292.10498046875 586 L 292.10498046875 606 Q 292.10498046875 616 282.10498046875 616 L 242 616 Q 232 616 232 606 L 232 586 Q 232 576 242 576 Z" stroke-miterlimit="10"/></g><g transform="translate(-70,-126) scale(1,1)"><g><path fill="none" stroke="none"/><text fill="#000000" stroke="none" font-family="Arial" font-size="13px" font-style="normal" font-weight="bold" text-decoration="none" x="249.05247497558594" y="594.5">确认</text></g></g><g transform="translate(-70,-126) scale(1,1)"><path fill="#C0C0C0" stroke="none" d="M 242 519 L 305 519 Q 308 519 308 522 L 308 521 Q 308 524 305 524 L 242 524 Q 239 524 239 521 L 239 522 Q 239 519 242 519 Z" opacity="0.2"/></g><g transform="translate(-70,-126) scale(1,1)"><path fill="#000000" stroke="none" d="M 235 512 L 298 512 Q 301 512 301 515 L 301 515 Q 301 518 298 518 L 235 518 Q 232 518 232 515 L 232 515 Q 232 512 235 512 Z"/></g><g transform="translate(-70,-126) scale(1,1)"><path fill="none" stroke="#000000" d="M 207 409 L 264 511" stroke-miterlimit="10"/></g><g transform="translate(-70,-126) scale(1,1)"><path fill="none" stroke="#000000" d="M 255.36775906539117 504.18205188881115 L 264 511 L 262.71710124150167 500.07506655510235" stroke-miterlimit="10"/></g><g transform="translate(-70,-126) scale(1,1)"><path fill="none" stroke="#000000" d="M 266 518 L 263 575" stroke-miterlimit="10"/></g><g transform="translate(-70,-126) scale(1,1)"><path fill="none" stroke="#000000" d="M 259.33043884787344 564.6301243522015 L 263 575 L 267.7378378159721 565.0726190347331" stroke-miterlimit="10"/></g><g transform="translate(-70,-126) scale(1,1)"><path fill="none" stroke="#000000" d="M 293 584 L 722 417" stroke-miterlimit="10"/></g><g transform="translate(-70,-126) scale(1,1)"><path fill="none" stroke="#000000" d="M 714.0566306377566 424.60939440264286 L 722 417 L 711.0025352756564 416.7638440413199" stroke-miterlimit="10"/></g><g transform="translate(-70,-126) scale(1,1)"><path fill="#C0C0C0" stroke="none" d="M 369 367 L 462.0001220703125 367 Q 472.0001220703125 367 472.0001220703125 377 L 472.0001220703125 397 Q 472.0001220703125 407 462.0001220703125 407 L 369 407 Q 359 407 359 397 L 359 377 Q 359 367 369 367 Z" opacity="0.2"/></g><g transform="translate(-70,-126) scale(1,1)"><path fill="#ffffff" stroke="none" d="M 362 360 L 455.0001220703125 360 Q 465.0001220703125 360 465.0001220703125 370 L 465.0001220703125 390 Q 465.0001220703125 400 455.0001220703125 400 L 362 400 Q 352 400 352 390 L 352 370 Q 352 360 362 360 Z"/></g><g transform="translate(-70,-126) scale(1,1)"><path fill="none" stroke="#000000" d="M 362 360 L 455.0001220703125 360 Q 465.0001220703125 360 465.0001220703125 370 L 465.0001220703125 390 Q 465.0001220703125 400 455.0001220703125 400 L 362 400 Q 352 400 352 390 L 352 370 Q 352 360 362 360 Z" stroke-miterlimit="10"/></g><g transform="translate(-70,-126) scale(1,1)"><g><path fill="none" stroke="none"/><text fill="#000000" stroke="none" font-family="Arial" font-size="13px" font-style="normal" font-weight="bold" text-decoration="none" x="356.5" y="379">选择是否记住密码</text></g></g><g transform="translate(-70,-126) scale(1,1)"><path fill="#C0C0C0" stroke="none" d="M 377 487 L 444.0000915527344 487 Q 454.0000915527344 487 454.0000915527344 497 L 454.0000915527344 517 Q 454.0000915527344 527 444.0000915527344 527 L 377 527 Q 367 527 367 517 L 367 497 Q 367 487 377 487 Z" opacity="0.2"/></g><g transform="translate(-70,-126) scale(1,1)"><path fill="#ffffff" stroke="none" d="M 370 480 L 437.0000915527344 480 Q 447.0000915527344 480 447.0000915527344 490 L 447.0000915527344 510 Q 447.0000915527344 520 437.0000915527344 520 L 370 520 Q 360 520 360 510 L 360 490 Q 360 480 370 480 Z"/></g><g transform="translate(-70,-126) scale(1,1)"><path fill="none" stroke="#000000" d="M 370 480 L 437.0000915527344 480 Q 447.0000915527344 480 447.0000915527344 490 L 447.0000915527344 510 Q 447.0000915527344 520 437.0000915527344 520 L 370 520 Q 360 520 360 510 L 360 490 Q 360 480 370 480 Z" stroke-miterlimit="10"/></g><g transform="translate(-70,-126) scale(1,1)"><g><path fill="none" stroke="none"/><text fill="#000000" stroke="none" font-family="Arial" font-size="13px" font-style="normal" font-weight="bold" text-decoration="none" x="364.5" y="498.5">加入本地缓存</text></g></g><g transform="translate(-70,-126) scale(1,1)"><path fill="#C0C0C0" stroke="none" d="M 391 447.5 L 411.5 431 L 431 447.5 L 411.5 463 L 391 447.5" opacity="0.2"/></g><g transform="translate(-70,-126) scale(1,1)"><path fill="#ffffff" stroke="none" d="M 384 440 L 404 424 L 424 440 L 404 456 L 384 440"/></g><g transform="translate(-70,-126) scale(1,1)"><path fill="none" stroke="#000000" d="M 384 440 L 404 424 L 424 440 L 404 456 L 384 440 L 384 440" stroke-miterlimit="10"/></g><g transform="translate(-70,-126) scale(1,1)"><path fill="none" stroke="#000000" d="M 407 401 L 405 423" stroke-miterlimit="10"/></g><g transform="translate(-70,-126) scale(1,1)"><path fill="none" stroke="#000000" d="M 401.72785521430103 412.49794931923185 L 405 423 L 410.11231548574403 413.2601729802721" stroke-miterlimit="10"/></g><g transform="translate(-70,-126) scale(1,1)"><path fill="none" stroke="#000000" d="M 404 457 L 403 479" stroke-miterlimit="10"/></g><g transform="translate(-70,-126) scale(1,1)"><path fill="none" stroke="#000000" d="M 399.25628748624484 468.6566631779511 L 403 479 L 407.66663910167813 469.0389518877435" stroke-miterlimit="10"/></g><g transform="translate(-70,-126) scale(1,1)"><g><path fill="none" stroke="none"/><text fill="#000000" stroke="none" font-family="Arial" font-size="13px" font-style="normal" font-weight="normal" text-decoration="none" x="410.5" y="472">是</text></g></g><g transform="translate(-70,-126) scale(1,1)"><path fill="none" stroke="#000000" d="M 383 451 L 272 511" stroke-miterlimit="10"/></g><g transform="translate(-70,-126) scale(1,1)"><path fill="none" stroke="#000000" d="M 278.9384738681588 502.46433480150034 L 272 511 L 282.94186866705786 509.87061517946364" stroke-miterlimit="10"/></g><g transform="translate(-70,-126) scale(1,1)"><g><path fill="none" stroke="none"/><text fill="#000000" stroke="none" font-family="Arial" font-size="13px" font-style="normal" font-weight="normal" text-decoration="none" x="327.5" y="499">否</text></g></g><g transform="translate(-70,-126) scale(1,1)"><path fill="none" stroke="#000000" d="M 407 337 L 408 359" stroke-miterlimit="10"/></g><g transform="translate(-70,-126) scale(1,1)"><path fill="none" stroke="#000000" d="M 403.33336089832187 349.0389518877435 L 408 359 L 411.74371251375516 348.6566631779511" stroke-miterlimit="10"/></g></g></svg>