<svg version="1.1" xmlns="http://www.w3.org/2000/svg" xmlns:xlink="http://www.w3.org/1999/xlink" width="692" height="477"><defs/><g><text fill="#eeeeee" stroke="none" font-family="Arial" font-size="24px" font-style="normal" font-weight="normal" text-decoration="none" x="0" y="0">UNREGISTERED</text><text fill="#eeeeee" stroke="none" font-family="Arial" font-size="24px" font-style="normal" font-weight="normal" text-decoration="none" x="0" y="30">UNREGISTERED</text><text fill="#eeeeee" stroke="none" font-family="Arial" font-size="24px" font-style="normal" font-weight="normal" text-decoration="none" x="0" y="60">UNREGISTERED</text><text fill="#eeeeee" stroke="none" font-family="Arial" font-size="24px" font-style="normal" font-weight="normal" text-decoration="none" x="0" y="90">UNREGISTERED</text><text fill="#eeeeee" stroke="none" font-family="Arial" font-size="24px" font-style="normal" font-weight="normal" text-decoration="none" x="0" y="120">UNREGISTERED</text><text fill="#eeeeee" stroke="none" font-family="Arial" font-size="24px" font-style="normal" font-weight="normal" text-decoration="none" x="0" y="150">UNREGISTERED</text><text fill="#eeeeee" stroke="none" font-family="Arial" font-size="24px" font-style="normal" font-weight="normal" text-decoration="none" x="0" y="180">UNREGISTERED</text><text fill="#eeeeee" stroke="none" font-family="Arial" font-size="24px" font-style="normal" font-weight="normal" text-decoration="none" x="0" y="210">UNREGISTERED</text><text fill="#eeeeee" stroke="none" font-family="Arial" font-size="24px" font-style="normal" font-weight="normal" text-decoration="none" x="0" y="240">UNREGISTERED</text><text fill="#eeeeee" stroke="none" font-family="Arial" font-size="24px" font-style="normal" font-weight="normal" text-decoration="none" x="0" y="270">UNREGISTERED</text><text fill="#eeeeee" stroke="none" font-family="Arial" font-size="24px" font-style="normal" font-weight="normal" text-decoration="none" x="0" y="300">UNREGISTERED</text><text fill="#eeeeee" stroke="none" font-family="Arial" font-size="24px" font-style="normal" font-weight="normal" text-decoration="none" x="0" y="330">UNREGISTERED</text><text fill="#eeeeee" stroke="none" font-family="Arial" font-size="24px" font-style="normal" font-weight="normal" text-decoration="none" x="0" y="360">UNREGISTERED</text><text fill="#eeeeee" stroke="none" font-family="Arial" font-size="24px" font-style="normal" font-weight="normal" text-decoration="none" x="0" y="390">UNREGISTERED</text><text fill="#eeeeee" stroke="none" font-family="Arial" font-size="24px" font-style="normal" font-weight="normal" text-decoration="none" x="0" y="420">UNREGISTERED</text><text fill="#eeeeee" stroke="none" font-family="Arial" font-size="24px" font-style="normal" font-weight="normal" text-decoration="none" x="0" y="450">UNREGISTERED</text><text fill="#eeeeee" stroke="none" font-family="Arial" font-size="24px" font-style="normal" font-weight="normal" text-decoration="none" x="200" y="0">UNREGISTERED</text><text fill="#eeeeee" stroke="none" font-family="Arial" font-size="24px" font-style="normal" font-weight="normal" text-decoration="none" x="200" y="30">UNREGISTERED</text><text fill="#eeeeee" stroke="none" font-family="Arial" font-size="24px" font-style="normal" font-weight="normal" text-decoration="none" x="200" y="60">UNREGISTERED</text><text fill="#eeeeee" stroke="none" font-family="Arial" font-size="24px" font-style="normal" font-weight="normal" text-decoration="none" x="200" y="90">UNREGISTERED</text><text fill="#eeeeee" stroke="none" font-family="Arial" font-size="24px" font-style="normal" font-weight="normal" text-decoration="none" x="200" y="120">UNREGISTERED</text><text fill="#eeeeee" stroke="none" font-family="Arial" font-size="24px" font-style="normal" font-weight="normal" text-decoration="none" x="200" y="150">UNREGISTERED</text><text fill="#eeeeee" stroke="none" font-family="Arial" font-size="24px" font-style="normal" font-weight="normal" text-decoration="none" x="200" y="180">UNREGISTERED</text><text fill="#eeeeee" stroke="none" font-family="Arial" font-size="24px" font-style="normal" font-weight="normal" text-decoration="none" x="200" y="210">UNREGISTERED</text><text fill="#eeeeee" stroke="none" font-family="Arial" font-size="24px" font-style="normal" font-weight="normal" text-decoration="none" x="200" y="240">UNREGISTERED</text><text fill="#eeeeee" stroke="none" font-family="Arial" font-size="24px" font-style="normal" font-weight="normal" text-decoration="none" x="200" y="270">UNREGISTERED</text><text fill="#eeeeee" stroke="none" font-family="Arial" font-size="24px" font-style="normal" font-weight="normal" text-decoration="none" x="200" y="300">UNREGISTERED</text><text fill="#eeeeee" stroke="none" font-family="Arial" font-size="24px" font-style="normal" font-weight="normal" text-decoration="none" x="200" y="330">UNREGISTERED</text><text fill="#eeeeee" stroke="none" font-family="Arial" font-size="24px" font-style="normal" font-weight="normal" text-decoration="none" x="200" y="360">UNREGISTERED</text><text fill="#eeeeee" stroke="none" font-family="Arial" font-size="24px" font-style="normal" font-weight="normal" text-decoration="none" x="200" y="390">UNREGISTERED</text><text fill="#eeeeee" stroke="none" font-family="Arial" font-size="24px" font-style="normal" font-weight="normal" text-decoration="none" x="200" y="420">UNREGISTERED</text><text fill="#eeeeee" stroke="none" font-family="Arial" font-size="24px" font-style="normal" font-weight="normal" text-decoration="none" x="200" y="450">UNREGISTERED</text><text fill="#eeeeee" stroke="none" font-family="Arial" font-size="24px" font-style="normal" font-weight="normal" text-decoration="none" x="400" y="0">UNREGISTERED</text><text fill="#eeeeee" stroke="none" font-family="Arial" font-size="24px" font-style="normal" font-weight="normal" text-decoration="none" x="400" y="30">UNREGISTERED</text><text fill="#eeeeee" stroke="none" font-family="Arial" font-size="24px" font-style="normal" font-weight="normal" text-decoration="none" x="400" y="60">UNREGISTERED</text><text fill="#eeeeee" stroke="none" font-family="Arial" font-size="24px" font-style="normal" font-weight="normal" text-decoration="none" x="400" y="90">UNREGISTERED</text><text fill="#eeeeee" stroke="none" font-family="Arial" font-size="24px" font-style="normal" font-weight="normal" text-decoration="none" x="400" y="120">UNREGISTERED</text><text fill="#eeeeee" stroke="none" font-family="Arial" font-size="24px" font-style="normal" font-weight="normal" text-decoration="none" x="400" y="150">UNREGISTERED</text><text fill="#eeeeee" stroke="none" font-family="Arial" font-size="24px" font-style="normal" font-weight="normal" text-decoration="none" x="400" y="180">UNREGISTERED</text><text fill="#eeeeee" stroke="none" font-family="Arial" font-size="24px" font-style="normal" font-weight="normal" text-decoration="none" x="400" y="210">UNREGISTERED</text><text fill="#eeeeee" stroke="none" font-family="Arial" font-size="24px" font-style="normal" font-weight="normal" text-decoration="none" x="400" y="240">UNREGISTERED</text><text fill="#eeeeee" stroke="none" font-family="Arial" font-size="24px" font-style="normal" font-weight="normal" text-decoration="none" x="400" y="270">UNREGISTERED</text><text fill="#eeeeee" stroke="none" font-family="Arial" font-size="24px" font-style="normal" font-weight="normal" text-decoration="none" x="400" y="300">UNREGISTERED</text><text fill="#eeeeee" stroke="none" font-family="Arial" font-size="24px" font-style="normal" font-weight="normal" text-decoration="none" x="400" y="330">UNREGISTERED</text><text fill="#eeeeee" stroke="none" font-family="Arial" font-size="24px" font-style="normal" font-weight="normal" text-decoration="none" x="400" y="360">UNREGISTERED</text><text fill="#eeeeee" stroke="none" font-family="Arial" font-size="24px" font-style="normal" font-weight="normal" text-decoration="none" x="400" y="390">UNREGISTERED</text><text fill="#eeeeee" stroke="none" font-family="Arial" font-size="24px" font-style="normal" font-weight="normal" text-decoration="none" x="400" y="420">UNREGISTERED</text><text fill="#eeeeee" stroke="none" font-family="Arial" font-size="24px" font-style="normal" font-weight="normal" text-decoration="none" x="400" y="450">UNREGISTERED</text><text fill="#eeeeee" stroke="none" font-family="Arial" font-size="24px" font-style="normal" font-weight="normal" text-decoration="none" x="600" y="0">UNREGISTERED</text><text fill="#eeeeee" stroke="none" font-family="Arial" font-size="24px" font-style="normal" font-weight="normal" text-decoration="none" x="600" y="30">UNREGISTERED</text><text fill="#eeeeee" stroke="none" font-family="Arial" font-size="24px" font-style="normal" font-weight="normal" text-decoration="none" x="600" y="60">UNREGISTERED</text><text fill="#eeeeee" stroke="none" font-family="Arial" font-size="24px" font-style="normal" font-weight="normal" text-decoration="none" x="600" y="90">UNREGISTERED</text><text fill="#eeeeee" stroke="none" font-family="Arial" font-size="24px" font-style="normal" font-weight="normal" text-decoration="none" x="600" y="120">UNREGISTERED</text><text fill="#eeeeee" stroke="none" font-family="Arial" font-size="24px" font-style="normal" font-weight="normal" text-decoration="none" x="600" y="150">UNREGISTERED</text><text fill="#eeeeee" stroke="none" font-family="Arial" font-size="24px" font-style="normal" font-weight="normal" text-decoration="none" x="600" y="180">UNREGISTERED</text><text fill="#eeeeee" stroke="none" font-family="Arial" font-size="24px" font-style="normal" font-weight="normal" text-decoration="none" x="600" y="210">UNREGISTERED</text><text fill="#eeeeee" stroke="none" font-family="Arial" font-size="24px" font-style="normal" font-weight="normal" text-decoration="none" x="600" y="240">UNREGISTERED</text><text fill="#eeeeee" stroke="none" font-family="Arial" font-size="24px" font-style="normal" font-weight="normal" text-decoration="none" x="600" y="270">UNREGISTERED</text><text fill="#eeeeee" stroke="none" font-family="Arial" font-size="24px" font-style="normal" font-weight="normal" text-decoration="none" x="600" y="300">UNREGISTERED</text><text fill="#eeeeee" stroke="none" font-family="Arial" font-size="24px" font-style="normal" font-weight="normal" text-decoration="none" x="600" y="330">UNREGISTERED</text><text fill="#eeeeee" stroke="none" font-family="Arial" font-size="24px" font-style="normal" font-weight="normal" text-decoration="none" x="600" y="360">UNREGISTERED</text><text fill="#eeeeee" stroke="none" font-family="Arial" font-size="24px" font-style="normal" font-weight="normal" text-decoration="none" x="600" y="390">UNREGISTERED</text><text fill="#eeeeee" stroke="none" font-family="Arial" font-size="24px" font-style="normal" font-weight="normal" text-decoration="none" x="600" y="420">UNREGISTERED</text><text fill="#eeeeee" stroke="none" font-family="Arial" font-size="24px" font-style="normal" font-weight="normal" text-decoration="none" x="600" y="450">UNREGISTERED</text><g transform="translate(-190,-246) scale(1,1)"><path fill="#C0C0C0" stroke="none" d="M 207 344.5 C 207 339.2532944 211.2532944 335 216.5 335 C 221.7467056 335 226 339.2532944 226 344.5 C 226 349.7467056 221.7467056 354 216.5 354 C 211.2532944 354 207 349.7467056 207 344.5 Z" opacity="0.2"/></g><g transform="translate(-190,-246) scale(1,1)"><path fill="#000000" stroke="none" d="M 200 337.5 C 200 332.2532944 204.2532944 328 209.5 328 C 214.7467056 328 219 332.2532944 219 337.5 C 219 342.7467056 214.7467056 347 209.5 347 C 204.2532944 347 200 342.7467056 200 337.5 Z"/></g><g transform="translate(-190,-246) scale(1,1)"><path fill="#C0C0C0" stroke="none" d="M 575 707.5 C 575 700.59644 580.59644 695 587.5 695 C 594.40356 695 600 700.59644 600 707.5 C 600 714.40356 594.40356 720 587.5 720 C 580.59644 720 575 714.40356 575 707.5 Z" opacity="0.2"/></g><g transform="translate(-190,-246) scale(1,1)"><path fill="none" stroke="#000000" d="M 568 700.5 C 568 693.59644 573.59644 688 580.5 688 C 587.40356 688 593 693.59644 593 700.5 C 593 707.40356 587.40356 713 580.5 713 C 573.59644 713 568 707.40356 568 700.5 Z" stroke-miterlimit="10"/></g><g transform="translate(-190,-246) scale(1,1)"><path fill="#000000" stroke="none" d="M 573 700.5 C 573 696.357864 576.357864 693 580.5 693 C 584.642136 693 588 696.357864 588 700.5 C 588 704.642136 584.642136 708 580.5 708 C 576.357864 708 573 704.642136 573 700.5 Z"/></g><g transform="translate(-190,-246) scale(1,1)"><path fill="none" stroke="#000000" d="M 220 337 L 327 333" stroke-miterlimit="10"/></g><g transform="translate(-190,-246) scale(1,1)"><path fill="none" stroke="#000000" d="M 317.0016741929638 337.5862273227952 L 327 333 L 316.6871635813207 329.1730684613437" stroke-miterlimit="10"/></g><g transform="translate(-190,-246) scale(1,1)"><path fill="none" stroke="#000000" d="M 371 353 L 371 383" stroke-miterlimit="10"/></g><g transform="translate(-190,-246) scale(1,1)"><path fill="none" stroke="#000000" d="M 366.790482243984 372.83732514237585 L 371 383 L 375.209517756016 372.83732514237585" stroke-miterlimit="10"/></g><g transform="translate(-190,-246) scale(1,1)"><path fill="none" stroke="#000000" d="M 383 403 L 409 423" stroke-miterlimit="10"/></g><g transform="translate(-190,-246) scale(1,1)"><path fill="none" stroke="#000000" d="M 398.3782318405461 420.14027253627 L 409 423 L 403.5114083882077 413.4671430243099" stroke-miterlimit="10"/></g><g transform="translate(-190,-246) scale(1,1)"><path fill="none" stroke="#000000" d="M 365 403 L 331 455" stroke-miterlimit="10"/></g><g transform="translate(-190,-246) scale(1,1)"><path fill="none" stroke="#000000" d="M 333.0382788907677 444.1904940370315 L 331 455 L 340.08475579330263 448.7978058579198" stroke-miterlimit="10"/></g><g transform="translate(-190,-246) scale(1,1)"><rect fill="#ffffff" stroke="none" x="264" y="256" width="231" height="21"/></g><g transform="translate(-190,-246) scale(1,1)"><path fill="none" stroke="#000000" d="M 264 256 L 495 256 L 495 277 L 264 277 L 264 256 Z Z" stroke-miterlimit="10" stroke-width="2"/></g><g transform="translate(-190,-246) scale(1,1)"><path fill="none" stroke="#000000" d="M 264 639 L 264 256 L 495 256 L 495 639" stroke-miterlimit="10" stroke-width="2"/></g><g transform="translate(-190,-246) scale(1,1)"><g><path fill="none" stroke="none"/><text fill="#000000" stroke="none" font-family="Arial" font-size="13px" font-style="normal" font-weight="normal" text-decoration="none" x="366.85546875" y="268">user</text></g></g><g transform="translate(-190,-246) scale(1,1)"><rect fill="#ffffff" stroke="none" x="496" y="256" width="192" height="21"/></g><g transform="translate(-190,-246) scale(1,1)"><path fill="none" stroke="#000000" d="M 496 256 L 688 256 L 688 277 L 496 277 L 496 256 Z Z" stroke-miterlimit="10" stroke-width="2"/></g><g transform="translate(-190,-246) scale(1,1)"><path fill="none" stroke="#000000" d="M 496 655 L 496 256 L 688 256 L 688 655" stroke-miterlimit="10" stroke-width="2"/></g><g transform="translate(-190,-246) scale(1,1)"><g><path fill="none" stroke="none"/><text fill="#000000" stroke="none" font-family="Arial" font-size="13px" font-style="normal" font-weight="normal" text-decoration="none" x="571.41455078125" y="269">system</text></g></g><g transform="translate(-190,-246) scale(1,1)"><rect fill="#ffffff" stroke="none" x="688" y="256" width="184" height="21"/></g><g transform="translate(-190,-246) scale(1,1)"><path fill="none" stroke="#000000" d="M 688 256 L 872 256 L 872 277 L 688 277 L 688 256 Z Z" stroke-miterlimit="10" stroke-width="2"/></g><g transform="translate(-190,-246) scale(1,1)"><path fill="none" stroke="#000000" d="M 688 671 L 688 256 L 872 256 L 872 671" stroke-miterlimit="10" stroke-width="2"/></g><g transform="translate(-190,-246) scale(1,1)"><g><path fill="none" stroke="none"/><text fill="#000000" stroke="none" font-family="Arial" font-size="13px" font-style="normal" font-weight="normal" text-decoration="none" x="742.431396484375" y="269">administrator</text></g></g><g transform="translate(-190,-246) scale(1,1)"><path fill="#C0C0C0" stroke="none" d="M 345 319 L 412.0000915527344 319 Q 422.0000915527344 319 422.0000915527344 329 L 422.0000915527344 349 Q 422.0000915527344 359 412.0000915527344 359 L 345 359 Q 335 359 335 349 L 335 329 Q 335 319 345 319 Z" opacity="0.2"/></g><g transform="translate(-190,-246) scale(1,1)"><path fill="#ffffff" stroke="none" d="M 338 312 L 405.0000915527344 312 Q 415.0000915527344 312 415.0000915527344 322 L 415.0000915527344 342 Q 415.0000915527344 352 405.0000915527344 352 L 338 352 Q 328 352 328 342 L 328 322 Q 328 312 338 312 Z"/></g><g transform="translate(-190,-246) scale(1,1)"><path fill="none" stroke="#000000" d="M 338 312 L 405.0000915527344 312 Q 415.0000915527344 312 415.0000915527344 322 L 415.0000915527344 342 Q 415.0000915527344 352 405.0000915527344 352 L 338 352 Q 328 352 328 342 L 328 322 Q 328 312 338 312 Z" stroke-miterlimit="10"/></g><g transform="translate(-190,-246) scale(1,1)"><g><path fill="none" stroke="none"/><text fill="#000000" stroke="none" font-family="Arial" font-size="13px" font-style="normal" font-weight="bold" text-decoration="none" x="332.5" y="331">进入社区板块</text></g></g><g transform="translate(-190,-246) scale(1,1)"><path fill="#C0C0C0" stroke="none" d="M 409 431 L 476.0000915527344 431 Q 486.0000915527344 431 486.0000915527344 441 L 486.0000915527344 461 Q 486.0000915527344 471 476.0000915527344 471 L 409 471 Q 399 471 399 461 L 399 441 Q 399 431 409 431 Z" opacity="0.2"/></g><g transform="translate(-190,-246) scale(1,1)"><path fill="#ffffff" stroke="none" d="M 402 424 L 469.0000915527344 424 Q 479.0000915527344 424 479.0000915527344 434 L 479.0000915527344 454 Q 479.0000915527344 464 469.0000915527344 464 L 402 464 Q 392 464 392 454 L 392 434 Q 392 424 402 424 Z"/></g><g transform="translate(-190,-246) scale(1,1)"><path fill="none" stroke="#000000" d="M 402 424 L 469.0000915527344 424 Q 479.0000915527344 424 479.0000915527344 434 L 479.0000915527344 454 Q 479.0000915527344 464 469.0000915527344 464 L 402 464 Q 392 464 392 454 L 392 434 Q 392 424 402 424 Z" stroke-miterlimit="10"/></g><g transform="translate(-190,-246) scale(1,1)"><g><path fill="none" stroke="none"/><text fill="#000000" stroke="none" font-family="Arial" font-size="13px" font-style="normal" font-weight="bold" text-decoration="none" x="396.5" y="443">发布分享内容</text></g></g><g transform="translate(-190,-246) scale(1,1)"><path fill="#C0C0C0" stroke="none" d="M 305 463 L 346.00006103515625 463 Q 356.00006103515625 463 356.00006103515625 473 L 356.00006103515625 493 Q 356.00006103515625 503 346.00006103515625 503 L 305 503 Q 295 503 295 493 L 295 473 Q 295 463 305 463 Z" opacity="0.2"/></g><g transform="translate(-190,-246) scale(1,1)"><path fill="#ffffff" stroke="none" d="M 298 456 L 339.00006103515625 456 Q 349.00006103515625 456 349.00006103515625 466 L 349.00006103515625 486 Q 349.00006103515625 496 339.00006103515625 496 L 298 496 Q 288 496 288 486 L 288 466 Q 288 456 298 456 Z"/></g><g transform="translate(-190,-246) scale(1,1)"><path fill="none" stroke="#000000" d="M 298 456 L 339.00006103515625 456 Q 349.00006103515625 456 349.00006103515625 466 L 349.00006103515625 486 Q 349.00006103515625 496 339.00006103515625 496 L 298 496 Q 288 496 288 486 L 288 466 Q 288 456 298 456 Z" stroke-miterlimit="10"/></g><g transform="translate(-190,-246) scale(1,1)"><g><path fill="none" stroke="none"/><text fill="#000000" stroke="none" font-family="Arial" font-size="13px" font-style="normal" font-weight="bold" text-decoration="none" x="292.5" y="475">浏览帖子</text></g></g><g transform="translate(-190,-246) scale(1,1)"><path fill="#C0C0C0" stroke="none" d="M 367 400.5 L 378.5 391 L 389 400.5 L 378.5 409 L 367 400.5" opacity="0.2"/></g><g transform="translate(-190,-246) scale(1,1)"><path fill="#ffffff" stroke="none" d="M 360 393 L 371 384 L 382 393 L 371 402 L 360 393"/></g><g transform="translate(-190,-246) scale(1,1)"><path fill="none" stroke="#000000" d="M 360 393 L 371 384 L 382 393 L 371 402 L 360 393 L 360 393" stroke-miterlimit="10"/></g><g transform="translate(-190,-246) scale(1,1)"><path fill="none" stroke="#000000" d="M 779 465 L 779 503" stroke-miterlimit="10"/></g><g transform="translate(-190,-246) scale(1,1)"><path fill="none" stroke="#000000" d="M 774.790482243984 492.83732514237585 L 779 503 L 783.209517756016 492.83732514237585" stroke-miterlimit="10"/></g><g transform="translate(-190,-246) scale(1,1)"><path fill="#C0C0C0" stroke="none" d="M 753 431 L 820.0000915527344 431 Q 830.0000915527344 431 830.0000915527344 441 L 830.0000915527344 461 Q 830.0000915527344 471 820.0000915527344 471 L 753 471 Q 743 471 743 461 L 743 441 Q 743 431 753 431 Z" opacity="0.2"/></g><g transform="translate(-190,-246) scale(1,1)"><path fill="#ffffff" stroke="none" d="M 746 424 L 813.0000915527344 424 Q 823.0000915527344 424 823.0000915527344 434 L 823.0000915527344 454 Q 823.0000915527344 464 813.0000915527344 464 L 746 464 Q 736 464 736 454 L 736 434 Q 736 424 746 424 Z"/></g><g transform="translate(-190,-246) scale(1,1)"><path fill="none" stroke="#000000" d="M 746 424 L 813.0000915527344 424 Q 823.0000915527344 424 823.0000915527344 434 L 823.0000915527344 454 Q 823.0000915527344 464 813.0000915527344 464 L 746 464 Q 736 464 736 454 L 736 434 Q 736 424 746 424 Z" stroke-miterlimit="10"/></g><g transform="translate(-190,-246) scale(1,1)"><g><path fill="none" stroke="none"/><text fill="#000000" stroke="none" font-family="Arial" font-size="13px" font-style="normal" font-weight="bold" text-decoration="none" x="740.5" y="443">审核上传内容</text></g></g><g transform="translate(-190,-246) scale(1,1)"><path fill="#C0C0C0" stroke="none" d="M 553 431 L 633.0001068115234 431 Q 643.0001068115234 431 643.0001068115234 441 L 643.0001068115234 461 Q 643.0001068115234 471 633.0001068115234 471 L 553 471 Q 543 471 543 461 L 543 441 Q 543 431 553 431 Z" opacity="0.2"/></g><g transform="translate(-190,-246) scale(1,1)"><path fill="#ffffff" stroke="none" d="M 546 424 L 626.0001068115234 424 Q 636.0001068115234 424 636.0001068115234 434 L 636.0001068115234 454 Q 636.0001068115234 464 626.0001068115234 464 L 546 464 Q 536 464 536 454 L 536 434 Q 536 424 546 424 Z"/></g><g transform="translate(-190,-246) scale(1,1)"><path fill="none" stroke="#000000" d="M 546 424 L 626.0001068115234 424 Q 636.0001068115234 424 636.0001068115234 434 L 636.0001068115234 454 Q 636.0001068115234 464 626.0001068115234 464 L 546 464 Q 536 464 536 454 L 536 434 Q 536 424 546 424 Z" stroke-miterlimit="10"/></g><g transform="translate(-190,-246) scale(1,1)"><g><path fill="none" stroke="none"/><text fill="#000000" stroke="none" font-family="Arial" font-size="13px" font-style="normal" font-weight="bold" text-decoration="none" x="540.5" y="443">内容上传服务器</text></g></g><g transform="translate(-190,-246) scale(1,1)"><path fill="#C0C0C0" stroke="none" d="M 775 526 L 786.5 511 L 797 526 L 786.5 540 L 775 526" opacity="0.2"/></g><g transform="translate(-190,-246) scale(1,1)"><path fill="#ffffff" stroke="none" d="M 768 518.5 L 779 504 L 790 518.5 L 779 533 L 768 518.5"/></g><g transform="translate(-190,-246) scale(1,1)"><path fill="none" stroke="#000000" d="M 768 518.5 L 779 504 L 790 518.5 L 779 533 L 768 518.5 L 768 518.5" stroke-miterlimit="10"/></g><g transform="translate(-190,-246) scale(1,1)"><path fill="#C0C0C0" stroke="none" d="M 753 599 L 820.0000915527344 599 Q 830.0000915527344 599 830.0000915527344 609 L 830.0000915527344 629 Q 830.0000915527344 639 820.0000915527344 639 L 753 639 Q 743 639 743 629 L 743 609 Q 743 599 753 599 Z" opacity="0.2"/></g><g transform="translate(-190,-246) scale(1,1)"><path fill="#ffffff" stroke="none" d="M 746 592 L 813.0000915527344 592 Q 823.0000915527344 592 823.0000915527344 602 L 823.0000915527344 622 Q 823.0000915527344 632 813.0000915527344 632 L 746 632 Q 736 632 736 622 L 736 602 Q 736 592 746 592 Z"/></g><g transform="translate(-190,-246) scale(1,1)"><path fill="none" stroke="#000000" d="M 746 592 L 813.0000915527344 592 Q 823.0000915527344 592 823.0000915527344 602 L 823.0000915527344 622 Q 823.0000915527344 632 813.0000915527344 632 L 746 632 Q 736 632 736 622 L 736 602 Q 736 592 746 592 Z" stroke-miterlimit="10"/></g><g transform="translate(-190,-246) scale(1,1)"><g><path fill="none" stroke="none"/><text fill="#000000" stroke="none" font-family="Arial" font-size="13px" font-style="normal" font-weight="bold" text-decoration="none" x="740.5" y="610.5">填写失败原因</text></g></g><g transform="translate(-190,-246) scale(1,1)"><path fill="none" stroke="#000000" d="M 779 534 L 779 591" stroke-miterlimit="10"/></g><g transform="translate(-190,-246) scale(1,1)"><path fill="none" stroke="#000000" d="M 774.790482243984 580.8373251423759 L 779 591 L 783.209517756016 580.8373251423759" stroke-miterlimit="10"/></g><g transform="translate(-190,-246) scale(1,1)"><g><path fill="none" stroke="none"/><text fill="#000000" stroke="none" font-family="Arial" font-size="13px" font-style="normal" font-weight="normal" text-decoration="none" x="752.5" y="566.5">审核不通过</text></g></g><g transform="translate(-190,-246) scale(1,1)"><path fill="#C0C0C0" stroke="none" d="M 569 511 L 610.0000610351562 511 Q 620.0000610351562 511 620.0000610351562 521 L 620.0000610351562 541 Q 620.0000610351562 551 610.0000610351562 551 L 569 551 Q 559 551 559 541 L 559 521 Q 559 511 569 511 Z" opacity="0.2"/></g><g transform="translate(-190,-246) scale(1,1)"><path fill="#ffffff" stroke="none" d="M 562 504 L 603.0000610351562 504 Q 613.0000610351562 504 613.0000610351562 514 L 613.0000610351562 534 Q 613.0000610351562 544 603.0000610351562 544 L 562 544 Q 552 544 552 534 L 552 514 Q 552 504 562 504 Z"/></g><g transform="translate(-190,-246) scale(1,1)"><path fill="none" stroke="#000000" d="M 562 504 L 603.0000610351562 504 Q 613.0000610351562 504 613.0000610351562 514 L 613.0000610351562 534 Q 613.0000610351562 544 603.0000610351562 544 L 562 544 Q 552 544 552 534 L 552 514 Q 552 504 562 504 Z" stroke-miterlimit="10"/></g><g transform="translate(-190,-246) scale(1,1)"><g><path fill="none" stroke="none"/><text fill="#000000" stroke="none" font-family="Arial" font-size="13px" font-style="normal" font-weight="bold" text-decoration="none" x="556.5" y="523">消息发布</text></g></g><g transform="translate(-190,-246) scale(1,1)"><path fill="none" stroke="#000000" d="M 767 518 L 614 523" stroke-miterlimit="10"/></g><g transform="translate(-190,-246) scale(1,1)"><path fill="none" stroke="#000000" d="M 624.019759967585 518.460791898141 L 614 523 L 624.2947450489822 526.8753353888993" stroke-miterlimit="10"/></g><g transform="translate(-190,-246) scale(1,1)"><g><path fill="none" stroke="none"/><text fill="#000000" stroke="none" font-family="Arial" font-size="13px" font-style="normal" font-weight="normal" text-decoration="none" x="663.5" y="539.5">审核通过</text></g></g><g transform="translate(-190,-246) scale(1,1)"><path fill="#C0C0C0" stroke="none" d="M 553 599 L 620.0000915527344 599 Q 630.0000915527344 599 630.0000915527344 609 L 630.0000915527344 629 Q 630.0000915527344 639 620.0000915527344 639 L 553 639 Q 543 639 543 629 L 543 609 Q 543 599 553 599 Z" opacity="0.2"/></g><g transform="translate(-190,-246) scale(1,1)"><path fill="#ffffff" stroke="none" d="M 546 592 L 613.0000915527344 592 Q 623.0000915527344 592 623.0000915527344 602 L 623.0000915527344 622 Q 623.0000915527344 632 613.0000915527344 632 L 546 632 Q 536 632 536 622 L 536 602 Q 536 592 546 592 Z"/></g><g transform="translate(-190,-246) scale(1,1)"><path fill="none" stroke="#000000" d="M 546 592 L 613.0000915527344 592 Q 623.0000915527344 592 623.0000915527344 602 L 623.0000915527344 622 Q 623.0000915527344 632 613.0000915527344 632 L 546 632 Q 536 632 536 622 L 536 602 Q 536 592 546 592 Z" stroke-miterlimit="10"/></g><g transform="translate(-190,-246) scale(1,1)"><g><path fill="none" stroke="none"/><text fill="#000000" stroke="none" font-family="Arial" font-size="13px" font-style="normal" font-weight="bold" text-decoration="none" x="540.5" y="611">显示提示消息</text></g></g><g transform="translate(-190,-246) scale(1,1)"><path fill="none" stroke="#000000" d="M 735 612 L 624 612" stroke-miterlimit="10"/></g><g transform="translate(-190,-246) scale(1,1)"><path fill="none" stroke="#000000" d="M 634.1626748576241 607.790482243984 L 624 612 L 634.1626748576241 616.209517756016" stroke-miterlimit="10"/></g><g transform="translate(-190,-246) scale(1,1)"><path fill="none" stroke="#000000" d="M 581 545 L 580 591" stroke-miterlimit="10"/></g><g transform="translate(-190,-246) scale(1,1)"><path fill="none" stroke="#000000" d="M 576.0123521078249 580.7482360401718 L 580 591 L 584.429398949577 580.9312153193404" stroke-miterlimit="10"/></g><g transform="translate(-190,-246) scale(1,1)"><path fill="none" stroke="#000000" d="M 637 444 L 735 444" stroke-miterlimit="10"/></g><g transform="translate(-190,-246) scale(1,1)"><path fill="none" stroke="#000000" d="M 724.8373251423759 448.209517756016 L 735 444 L 724.8373251423758 439.790482243984" stroke-miterlimit="10"/></g><g transform="translate(-190,-246) scale(1,1)"><path fill="none" stroke="#000000" d="M 480 444 L 535 444" stroke-miterlimit="10"/></g><g transform="translate(-190,-246) scale(1,1)"><path fill="none" stroke="#000000" d="M 524.8373251423759 448.209517756016 L 535 444 L 524.8373251423758 439.790482243984" stroke-miterlimit="10"/></g><g transform="translate(-190,-246) scale(1,1)"><path fill="none" stroke="#000000" d="M 350 492 L 386 511" stroke-miterlimit="10"/></g><g transform="translate(-190,-246) scale(1,1)"><path fill="none" stroke="#000000" d="M 375.0474566109725 509.9793172326964 L 386 511 L 378.9771140045794 502.53365059217816" stroke-miterlimit="10"/></g><g transform="translate(-190,-246) scale(1,1)"><path fill="#C0C0C0" stroke="none" d="M 401 519 L 468.0000915527344 519 Q 478.0000915527344 519 478.0000915527344 529 L 478.0000915527344 549 Q 478.0000915527344 559 468.0000915527344 559 L 401 559 Q 391 559 391 549 L 391 529 Q 391 519 401 519 Z" opacity="0.2"/></g><g transform="translate(-190,-246) scale(1,1)"><path fill="#ffffff" stroke="none" d="M 394 512 L 461.0000915527344 512 Q 471.0000915527344 512 471.0000915527344 522 L 471.0000915527344 542 Q 471.0000915527344 552 461.0000915527344 552 L 394 552 Q 384 552 384 542 L 384 522 Q 384 512 394 512 Z"/></g><g transform="translate(-190,-246) scale(1,1)"><path fill="none" stroke="#000000" d="M 394 512 L 461.0000915527344 512 Q 471.0000915527344 512 471.0000915527344 522 L 471.0000915527344 542 Q 471.0000915527344 552 461.0000915527344 552 L 394 552 Q 384 552 384 542 L 384 522 Q 384 512 394 512 Z" stroke-miterlimit="10"/></g><g transform="translate(-190,-246) scale(1,1)"><g><path fill="none" stroke="none"/><text fill="#000000" stroke="none" font-family="Arial" font-size="13px" font-style="normal" font-weight="bold" text-decoration="none" x="388.5" y="531">发布评论看法</text></g></g><g transform="translate(-190,-246) scale(1,1)"><path fill="none" stroke="#000000" d="M 465 511 L 548 465" stroke-miterlimit="10"/></g><g transform="translate(-190,-246) scale(1,1)"><path fill="none" stroke="#000000" d="M 541.1517319310907 473.60820680841005 L 548 465 L 537.070621801008 466.24446461717383" stroke-miterlimit="10"/></g><g transform="translate(-190,-246) scale(1,1)"><path fill="none" stroke="#000000" d="M 579 633 L 580 687" stroke-miterlimit="10"/></g><g transform="translate(-190,-246) scale(1,1)"><path fill="none" stroke="#000000" d="M 575.603038433977 676.9170079347986 L 580 687 L 584.0206307240026 676.7611265960943" stroke-miterlimit="10"/></g></g></svg>