<svg version="1.1" xmlns="http://www.w3.org/2000/svg" xmlns:xlink="http://www.w3.org/1999/xlink" width="786" height="869"><defs/><g><text fill="#eeeeee" stroke="none" font-family="Arial" font-size="24px" font-style="normal" font-weight="normal" text-decoration="none" x="0" y="0">UNREGISTERED</text><text fill="#eeeeee" stroke="none" font-family="Arial" font-size="24px" font-style="normal" font-weight="normal" text-decoration="none" x="0" y="30">UNREGISTERED</text><text fill="#eeeeee" stroke="none" font-family="Arial" font-size="24px" font-style="normal" font-weight="normal" text-decoration="none" x="0" y="60">UNREGISTERED</text><text fill="#eeeeee" stroke="none" font-family="Arial" font-size="24px" font-style="normal" font-weight="normal" text-decoration="none" x="0" y="90">UNREGISTERED</text><text fill="#eeeeee" stroke="none" font-family="Arial" font-size="24px" font-style="normal" font-weight="normal" text-decoration="none" x="0" y="120">UNREGISTERED</text><text fill="#eeeeee" stroke="none" font-family="Arial" font-size="24px" font-style="normal" font-weight="normal" text-decoration="none" x="0" y="150">UNREGISTERED</text><text fill="#eeeeee" stroke="none" font-family="Arial" font-size="24px" font-style="normal" font-weight="normal" text-decoration="none" x="0" y="180">UNREGISTERED</text><text fill="#eeeeee" stroke="none" font-family="Arial" font-size="24px" font-style="normal" font-weight="normal" text-decoration="none" x="0" y="210">UNREGISTERED</text><text fill="#eeeeee" stroke="none" font-family="Arial" font-size="24px" font-style="normal" font-weight="normal" text-decoration="none" x="0" y="240">UNREGISTERED</text><text fill="#eeeeee" stroke="none" font-family="Arial" font-size="24px" font-style="normal" font-weight="normal" text-decoration="none" x="0" y="270">UNREGISTERED</text><text fill="#eeeeee" stroke="none" font-family="Arial" font-size="24px" font-style="normal" font-weight="normal" text-decoration="none" x="0" y="300">UNREGISTERED</text><text fill="#eeeeee" stroke="none" font-family="Arial" font-size="24px" font-style="normal" font-weight="normal" text-decoration="none" x="0" y="330">UNREGISTERED</text><text fill="#eeeeee" stroke="none" font-family="Arial" font-size="24px" font-style="normal" font-weight="normal" text-decoration="none" x="0" y="360">UNREGISTERED</text><text fill="#eeeeee" stroke="none" font-family="Arial" font-size="24px" font-style="normal" font-weight="normal" text-decoration="none" x="0" y="390">UNREGISTERED</text><text fill="#eeeeee" stroke="none" font-family="Arial" font-size="24px" font-style="normal" font-weight="normal" text-decoration="none" x="0" y="420">UNREGISTERED</text><text fill="#eeeeee" stroke="none" font-family="Arial" font-size="24px" font-style="normal" font-weight="normal" text-decoration="none" x="0" y="450">UNREGISTERED</text><text fill="#eeeeee" stroke="none" font-family="Arial" font-size="24px" font-style="normal" font-weight="normal" text-decoration="none" x="0" y="480">UNREGISTERED</text><text fill="#eeeeee" stroke="none" font-family="Arial" font-size="24px" font-style="normal" font-weight="normal" text-decoration="none" x="0" y="510">UNREGISTERED</text><text fill="#eeeeee" stroke="none" font-family="Arial" font-size="24px" font-style="normal" font-weight="normal" text-decoration="none" x="0" y="540">UNREGISTERED</text><text fill="#eeeeee" stroke="none" font-family="Arial" font-size="24px" font-style="normal" font-weight="normal" text-decoration="none" x="0" y="570">UNREGISTERED</text><text fill="#eeeeee" stroke="none" font-family="Arial" font-size="24px" font-style="normal" font-weight="normal" text-decoration="none" x="0" y="600">UNREGISTERED</text><text fill="#eeeeee" stroke="none" font-family="Arial" font-size="24px" font-style="normal" font-weight="normal" text-decoration="none" x="0" y="630">UNREGISTERED</text><text fill="#eeeeee" stroke="none" font-family="Arial" font-size="24px" font-style="normal" font-weight="normal" text-decoration="none" x="0" y="660">UNREGISTERED</text><text fill="#eeeeee" stroke="none" font-family="Arial" font-size="24px" font-style="normal" font-weight="normal" text-decoration="none" x="0" y="690">UNREGISTERED</text><text fill="#eeeeee" stroke="none" font-family="Arial" font-size="24px" font-style="normal" font-weight="normal" text-decoration="none" x="0" y="720">UNREGISTERED</text><text fill="#eeeeee" stroke="none" font-family="Arial" font-size="24px" font-style="normal" font-weight="normal" text-decoration="none" x="0" y="750">UNREGISTERED</text><text fill="#eeeeee" stroke="none" font-family="Arial" font-size="24px" font-style="normal" font-weight="normal" text-decoration="none" x="0" y="780">UNREGISTERED</text><text fill="#eeeeee" stroke="none" font-family="Arial" font-size="24px" font-style="normal" font-weight="normal" text-decoration="none" x="0" y="810">UNREGISTERED</text><text fill="#eeeeee" stroke="none" font-family="Arial" font-size="24px" font-style="normal" font-weight="normal" text-decoration="none" x="0" y="840">UNREGISTERED</text><text fill="#eeeeee" stroke="none" font-family="Arial" font-size="24px" font-style="normal" font-weight="normal" text-decoration="none" x="200" y="0">UNREGISTERED</text><text fill="#eeeeee" stroke="none" font-family="Arial" font-size="24px" font-style="normal" font-weight="normal" text-decoration="none" x="200" y="30">UNREGISTERED</text><text fill="#eeeeee" stroke="none" font-family="Arial" font-size="24px" font-style="normal" font-weight="normal" text-decoration="none" x="200" y="60">UNREGISTERED</text><text fill="#eeeeee" stroke="none" font-family="Arial" font-size="24px" font-style="normal" font-weight="normal" text-decoration="none" x="200" y="90">UNREGISTERED</text><text fill="#eeeeee" stroke="none" font-family="Arial" font-size="24px" font-style="normal" font-weight="normal" text-decoration="none" x="200" y="120">UNREGISTERED</text><text fill="#eeeeee" stroke="none" font-family="Arial" font-size="24px" font-style="normal" font-weight="normal" text-decoration="none" x="200" y="150">UNREGISTERED</text><text fill="#eeeeee" stroke="none" font-family="Arial" font-size="24px" font-style="normal" font-weight="normal" text-decoration="none" x="200" y="180">UNREGISTERED</text><text fill="#eeeeee" stroke="none" font-family="Arial" font-size="24px" font-style="normal" font-weight="normal" text-decoration="none" x="200" y="210">UNREGISTERED</text><text fill="#eeeeee" stroke="none" font-family="Arial" font-size="24px" font-style="normal" font-weight="normal" text-decoration="none" x="200" y="240">UNREGISTERED</text><text fill="#eeeeee" stroke="none" font-family="Arial" font-size="24px" font-style="normal" font-weight="normal" text-decoration="none" x="200" y="270">UNREGISTERED</text><text fill="#eeeeee" stroke="none" font-family="Arial" font-size="24px" font-style="normal" font-weight="normal" text-decoration="none" x="200" y="300">UNREGISTERED</text><text fill="#eeeeee" stroke="none" font-family="Arial" font-size="24px" font-style="normal" font-weight="normal" text-decoration="none" x="200" y="330">UNREGISTERED</text><text fill="#eeeeee" stroke="none" font-family="Arial" font-size="24px" font-style="normal" font-weight="normal" text-decoration="none" x="200" y="360">UNREGISTERED</text><text fill="#eeeeee" stroke="none" font-family="Arial" font-size="24px" font-style="normal" font-weight="normal" text-decoration="none" x="200" y="390">UNREGISTERED</text><text fill="#eeeeee" stroke="none" font-family="Arial" font-size="24px" font-style="normal" font-weight="normal" text-decoration="none" x="200" y="420">UNREGISTERED</text><text fill="#eeeeee" stroke="none" font-family="Arial" font-size="24px" font-style="normal" font-weight="normal" text-decoration="none" x="200" y="450">UNREGISTERED</text><text fill="#eeeeee" stroke="none" font-family="Arial" font-size="24px" font-style="normal" font-weight="normal" text-decoration="none" x="200" y="480">UNREGISTERED</text><text fill="#eeeeee" stroke="none" font-family="Arial" font-size="24px" font-style="normal" font-weight="normal" text-decoration="none" x="200" y="510">UNREGISTERED</text><text fill="#eeeeee" stroke="none" font-family="Arial" font-size="24px" font-style="normal" font-weight="normal" text-decoration="none" x="200" y="540">UNREGISTERED</text><text fill="#eeeeee" stroke="none" font-family="Arial" font-size="24px" font-style="normal" font-weight="normal" text-decoration="none" x="200" y="570">UNREGISTERED</text><text fill="#eeeeee" stroke="none" font-family="Arial" font-size="24px" font-style="normal" font-weight="normal" text-decoration="none" x="200" y="600">UNREGISTERED</text><text fill="#eeeeee" stroke="none" font-family="Arial" font-size="24px" font-style="normal" font-weight="normal" text-decoration="none" x="200" y="630">UNREGISTERED</text><text fill="#eeeeee" stroke="none" font-family="Arial" font-size="24px" font-style="normal" font-weight="normal" text-decoration="none" x="200" y="660">UNREGISTERED</text><text fill="#eeeeee" stroke="none" font-family="Arial" font-size="24px" font-style="normal" font-weight="normal" text-decoration="none" x="200" y="690">UNREGISTERED</text><text fill="#eeeeee" stroke="none" font-family="Arial" font-size="24px" font-style="normal" font-weight="normal" text-decoration="none" x="200" y="720">UNREGISTERED</text><text fill="#eeeeee" stroke="none" font-family="Arial" font-size="24px" font-style="normal" font-weight="normal" text-decoration="none" x="200" y="750">UNREGISTERED</text><text fill="#eeeeee" stroke="none" font-family="Arial" font-size="24px" font-style="normal" font-weight="normal" text-decoration="none" x="200" y="780">UNREGISTERED</text><text fill="#eeeeee" stroke="none" font-family="Arial" font-size="24px" font-style="normal" font-weight="normal" text-decoration="none" x="200" y="810">UNREGISTERED</text><text fill="#eeeeee" stroke="none" font-family="Arial" font-size="24px" font-style="normal" font-weight="normal" text-decoration="none" x="200" y="840">UNREGISTERED</text><text fill="#eeeeee" stroke="none" font-family="Arial" font-size="24px" font-style="normal" font-weight="normal" text-decoration="none" x="400" y="0">UNREGISTERED</text><text fill="#eeeeee" stroke="none" font-family="Arial" font-size="24px" font-style="normal" font-weight="normal" text-decoration="none" x="400" y="30">UNREGISTERED</text><text fill="#eeeeee" stroke="none" font-family="Arial" font-size="24px" font-style="normal" font-weight="normal" text-decoration="none" x="400" y="60">UNREGISTERED</text><text fill="#eeeeee" stroke="none" font-family="Arial" font-size="24px" font-style="normal" font-weight="normal" text-decoration="none" x="400" y="90">UNREGISTERED</text><text fill="#eeeeee" stroke="none" font-family="Arial" font-size="24px" font-style="normal" font-weight="normal" text-decoration="none" x="400" y="120">UNREGISTERED</text><text fill="#eeeeee" stroke="none" font-family="Arial" font-size="24px" font-style="normal" font-weight="normal" text-decoration="none" x="400" y="150">UNREGISTERED</text><text fill="#eeeeee" stroke="none" font-family="Arial" font-size="24px" font-style="normal" font-weight="normal" text-decoration="none" x="400" y="180">UNREGISTERED</text><text fill="#eeeeee" stroke="none" font-family="Arial" font-size="24px" font-style="normal" font-weight="normal" text-decoration="none" x="400" y="210">UNREGISTERED</text><text fill="#eeeeee" stroke="none" font-family="Arial" font-size="24px" font-style="normal" font-weight="normal" text-decoration="none" x="400" y="240">UNREGISTERED</text><text fill="#eeeeee" stroke="none" font-family="Arial" font-size="24px" font-style="normal" font-weight="normal" text-decoration="none" x="400" y="270">UNREGISTERED</text><text fill="#eeeeee" stroke="none" font-family="Arial" font-size="24px" font-style="normal" font-weight="normal" text-decoration="none" x="400" y="300">UNREGISTERED</text><text fill="#eeeeee" stroke="none" font-family="Arial" font-size="24px" font-style="normal" font-weight="normal" text-decoration="none" x="400" y="330">UNREGISTERED</text><text fill="#eeeeee" stroke="none" font-family="Arial" font-size="24px" font-style="normal" font-weight="normal" text-decoration="none" x="400" y="360">UNREGISTERED</text><text fill="#eeeeee" stroke="none" font-family="Arial" font-size="24px" font-style="normal" font-weight="normal" text-decoration="none" x="400" y="390">UNREGISTERED</text><text fill="#eeeeee" stroke="none" font-family="Arial" font-size="24px" font-style="normal" font-weight="normal" text-decoration="none" x="400" y="420">UNREGISTERED</text><text fill="#eeeeee" stroke="none" font-family="Arial" font-size="24px" font-style="normal" font-weight="normal" text-decoration="none" x="400" y="450">UNREGISTERED</text><text fill="#eeeeee" stroke="none" font-family="Arial" font-size="24px" font-style="normal" font-weight="normal" text-decoration="none" x="400" y="480">UNREGISTERED</text><text fill="#eeeeee" stroke="none" font-family="Arial" font-size="24px" font-style="normal" font-weight="normal" text-decoration="none" x="400" y="510">UNREGISTERED</text><text fill="#eeeeee" stroke="none" font-family="Arial" font-size="24px" font-style="normal" font-weight="normal" text-decoration="none" x="400" y="540">UNREGISTERED</text><text fill="#eeeeee" stroke="none" font-family="Arial" font-size="24px" font-style="normal" font-weight="normal" text-decoration="none" x="400" y="570">UNREGISTERED</text><text fill="#eeeeee" stroke="none" font-family="Arial" font-size="24px" font-style="normal" font-weight="normal" text-decoration="none" x="400" y="600">UNREGISTERED</text><text fill="#eeeeee" stroke="none" font-family="Arial" font-size="24px" font-style="normal" font-weight="normal" text-decoration="none" x="400" y="630">UNREGISTERED</text><text fill="#eeeeee" stroke="none" font-family="Arial" font-size="24px" font-style="normal" font-weight="normal" text-decoration="none" x="400" y="660">UNREGISTERED</text><text fill="#eeeeee" stroke="none" font-family="Arial" font-size="24px" font-style="normal" font-weight="normal" text-decoration="none" x="400" y="690">UNREGISTERED</text><text fill="#eeeeee" stroke="none" font-family="Arial" font-size="24px" font-style="normal" font-weight="normal" text-decoration="none" x="400" y="720">UNREGISTERED</text><text fill="#eeeeee" stroke="none" font-family="Arial" font-size="24px" font-style="normal" font-weight="normal" text-decoration="none" x="400" y="750">UNREGISTERED</text><text fill="#eeeeee" stroke="none" font-family="Arial" font-size="24px" font-style="normal" font-weight="normal" text-decoration="none" x="400" y="780">UNREGISTERED</text><text fill="#eeeeee" stroke="none" font-family="Arial" font-size="24px" font-style="normal" font-weight="normal" text-decoration="none" x="400" y="810">UNREGISTERED</text><text fill="#eeeeee" stroke="none" font-family="Arial" font-size="24px" font-style="normal" font-weight="normal" text-decoration="none" x="400" y="840">UNREGISTERED</text><text fill="#eeeeee" stroke="none" font-family="Arial" font-size="24px" font-style="normal" font-weight="normal" text-decoration="none" x="600" y="0">UNREGISTERED</text><text fill="#eeeeee" stroke="none" font-family="Arial" font-size="24px" font-style="normal" font-weight="normal" text-decoration="none" x="600" y="30">UNREGISTERED</text><text fill="#eeeeee" stroke="none" font-family="Arial" font-size="24px" font-style="normal" font-weight="normal" text-decoration="none" x="600" y="60">UNREGISTERED</text><text fill="#eeeeee" stroke="none" font-family="Arial" font-size="24px" font-style="normal" font-weight="normal" text-decoration="none" x="600" y="90">UNREGISTERED</text><text fill="#eeeeee" stroke="none" font-family="Arial" font-size="24px" font-style="normal" font-weight="normal" text-decoration="none" x="600" y="120">UNREGISTERED</text><text fill="#eeeeee" stroke="none" font-family="Arial" font-size="24px" font-style="normal" font-weight="normal" text-decoration="none" x="600" y="150">UNREGISTERED</text><text fill="#eeeeee" stroke="none" font-family="Arial" font-size="24px" font-style="normal" font-weight="normal" text-decoration="none" x="600" y="180">UNREGISTERED</text><text fill="#eeeeee" stroke="none" font-family="Arial" font-size="24px" font-style="normal" font-weight="normal" text-decoration="none" x="600" y="210">UNREGISTERED</text><text fill="#eeeeee" stroke="none" font-family="Arial" font-size="24px" font-style="normal" font-weight="normal" text-decoration="none" x="600" y="240">UNREGISTERED</text><text fill="#eeeeee" stroke="none" font-family="Arial" font-size="24px" font-style="normal" font-weight="normal" text-decoration="none" x="600" y="270">UNREGISTERED</text><text fill="#eeeeee" stroke="none" font-family="Arial" font-size="24px" font-style="normal" font-weight="normal" text-decoration="none" x="600" y="300">UNREGISTERED</text><text fill="#eeeeee" stroke="none" font-family="Arial" font-size="24px" font-style="normal" font-weight="normal" text-decoration="none" x="600" y="330">UNREGISTERED</text><text fill="#eeeeee" stroke="none" font-family="Arial" font-size="24px" font-style="normal" font-weight="normal" text-decoration="none" x="600" y="360">UNREGISTERED</text><text fill="#eeeeee" stroke="none" font-family="Arial" font-size="24px" font-style="normal" font-weight="normal" text-decoration="none" x="600" y="390">UNREGISTERED</text><text fill="#eeeeee" stroke="none" font-family="Arial" font-size="24px" font-style="normal" font-weight="normal" text-decoration="none" x="600" y="420">UNREGISTERED</text><text fill="#eeeeee" stroke="none" font-family="Arial" font-size="24px" font-style="normal" font-weight="normal" text-decoration="none" x="600" y="450">UNREGISTERED</text><text fill="#eeeeee" stroke="none" font-family="Arial" font-size="24px" font-style="normal" font-weight="normal" text-decoration="none" x="600" y="480">UNREGISTERED</text><text fill="#eeeeee" stroke="none" font-family="Arial" font-size="24px" font-style="normal" font-weight="normal" text-decoration="none" x="600" y="510">UNREGISTERED</text><text fill="#eeeeee" stroke="none" font-family="Arial" font-size="24px" font-style="normal" font-weight="normal" text-decoration="none" x="600" y="540">UNREGISTERED</text><text fill="#eeeeee" stroke="none" font-family="Arial" font-size="24px" font-style="normal" font-weight="normal" text-decoration="none" x="600" y="570">UNREGISTERED</text><text fill="#eeeeee" stroke="none" font-family="Arial" font-size="24px" font-style="normal" font-weight="normal" text-decoration="none" x="600" y="600">UNREGISTERED</text><text fill="#eeeeee" stroke="none" font-family="Arial" font-size="24px" font-style="normal" font-weight="normal" text-decoration="none" x="600" y="630">UNREGISTERED</text><text fill="#eeeeee" stroke="none" font-family="Arial" font-size="24px" font-style="normal" font-weight="normal" text-decoration="none" x="600" y="660">UNREGISTERED</text><text fill="#eeeeee" stroke="none" font-family="Arial" font-size="24px" font-style="normal" font-weight="normal" text-decoration="none" x="600" y="690">UNREGISTERED</text><text fill="#eeeeee" stroke="none" font-family="Arial" font-size="24px" font-style="normal" font-weight="normal" text-decoration="none" x="600" y="720">UNREGISTERED</text><text fill="#eeeeee" stroke="none" font-family="Arial" font-size="24px" font-style="normal" font-weight="normal" text-decoration="none" x="600" y="750">UNREGISTERED</text><text fill="#eeeeee" stroke="none" font-family="Arial" font-size="24px" font-style="normal" font-weight="normal" text-decoration="none" x="600" y="780">UNREGISTERED</text><text fill="#eeeeee" stroke="none" font-family="Arial" font-size="24px" font-style="normal" font-weight="normal" text-decoration="none" x="600" y="810">UNREGISTERED</text><text fill="#eeeeee" stroke="none" font-family="Arial" font-size="24px" font-style="normal" font-weight="normal" text-decoration="none" x="600" y="840">UNREGISTERED</text><g transform="translate(10,-150) scale(1,1)"><path fill="#C0C0C0" stroke="none" d="M 287 176.5 C 287 171.2532944 291.2532944 167 296.5 167 C 301.7467056 167 306 171.2532944 306 176.5 C 306 181.7467056 301.7467056 186 296.5 186 C 291.2532944 186 287 181.7467056 287 176.5 Z" opacity="0.2"/></g><g transform="translate(10,-150) scale(1,1)"><path fill="#000000" stroke="none" d="M 280 169.5 C 280 164.2532944 284.2532944 160 289.5 160 C 294.7467056 160 299 164.2532944 299 169.5 C 299 174.7467056 294.7467056 179 289.5 179 C 284.2532944 179 280 174.7467056 280 169.5 Z"/></g><g transform="translate(10,-150) scale(1,1)"><path fill="#C0C0C0" stroke="none" d="M 265 231 L 332 231 Q 342 231 342 241 L 342 261 Q 342 271 332 271 L 265 271 Q 255 271 255 261 L 255 241 Q 255 231 265 231 Z" opacity="0.2"/></g><g transform="translate(10,-150) scale(1,1)"><path fill="#ffffff" stroke="none" d="M 258 224 L 325 224 Q 335 224 335 234 L 335 254 Q 335 264 325 264 L 258 264 Q 248 264 248 254 L 248 234 Q 248 224 258 224 Z"/></g><g transform="translate(10,-150) scale(1,1)"><path fill="none" stroke="#000000" d="M 258 224 L 325 224 Q 335 224 335 234 L 335 254 Q 335 264 325 264 L 258 264 Q 248 264 248 254 L 248 234 Q 248 224 258 224 Z" stroke-miterlimit="10"/></g><g transform="translate(10,-150) scale(1,1)"><g><path fill="none" stroke="none"/><text fill="#000000" stroke="none" font-family="Arial" font-size="13px" font-style="normal" font-weight="bold" text-decoration="none" x="252.5" y="242.5">进入个人主页</text></g></g><g transform="translate(10,-150) scale(1,1)"><path fill="none" stroke="#000000" d="M 289 180 L 290 223" stroke-miterlimit="10"/></g><g transform="translate(10,-150) scale(1,1)"><path fill="none" stroke="#000000" d="M 285.55534271416747 212.9379414824055 L 290 223 L 293.97210250362457 212.7422028826507" stroke-miterlimit="10"/></g><g transform="translate(10,-150) scale(1,1)"><path fill="#C0C0C0" stroke="none" d="M 265 327 L 332 327 Q 342 327 342 337 L 342 357 Q 342 367 332 367 L 265 367 Q 255 367 255 357 L 255 337 Q 255 327 265 327 Z" opacity="0.2"/></g><g transform="translate(10,-150) scale(1,1)"><path fill="#ffffff" stroke="none" d="M 258 320 L 325 320 Q 335 320 335 330 L 335 350 Q 335 360 325 360 L 258 360 Q 248 360 248 350 L 248 330 Q 248 320 258 320 Z"/></g><g transform="translate(10,-150) scale(1,1)"><path fill="none" stroke="#000000" d="M 258 320 L 325 320 Q 335 320 335 330 L 335 350 Q 335 360 325 360 L 258 360 Q 248 360 248 350 L 248 330 Q 248 320 258 320 Z" stroke-miterlimit="10"/></g><g transform="translate(10,-150) scale(1,1)"><g><path fill="none" stroke="none"/><text fill="#000000" stroke="none" font-family="Arial" font-size="13px" font-style="normal" font-weight="bold" text-decoration="none" x="252.5" y="338.5">选择任务模块</text></g></g><g transform="translate(10,-150) scale(1,1)"><path fill="none" stroke="#000000" d="M 291 265 L 291 319" stroke-miterlimit="10"/></g><g transform="translate(10,-150) scale(1,1)"><path fill="none" stroke="#000000" d="M 286.790482243984 308.83732514237585 L 291 319 L 295.209517756016 308.83732514237585" stroke-miterlimit="10"/></g><g transform="translate(10,-150) scale(1,1)"><path fill="#C0C0C0" stroke="none" d="M 265 431 L 332 431 Q 342 431 342 441 L 342 461 Q 342 471 332 471 L 265 471 Q 255 471 255 461 L 255 441 Q 255 431 265 431 Z" opacity="0.2"/></g><g transform="translate(10,-150) scale(1,1)"><path fill="#ffffff" stroke="none" d="M 258 424 L 325 424 Q 335 424 335 434 L 335 454 Q 335 464 325 464 L 258 464 Q 248 464 248 454 L 248 434 Q 248 424 258 424 Z"/></g><g transform="translate(10,-150) scale(1,1)"><path fill="none" stroke="#000000" d="M 258 424 L 325 424 Q 335 424 335 434 L 335 454 Q 335 464 325 464 L 258 464 Q 248 464 248 454 L 248 434 Q 248 424 258 424 Z" stroke-miterlimit="10"/></g><g transform="translate(10,-150) scale(1,1)"><g><path fill="none" stroke="none"/><text fill="#000000" stroke="none" font-family="Arial" font-size="13px" font-style="normal" font-weight="bold" text-decoration="none" x="252.5" y="443">查看进度详情</text></g></g><g transform="translate(10,-150) scale(1,1)"><path fill="#ffffff" stroke="none" d="M 376 416 L 683 416 L 693 426 L 693 454 L 376 454 L 376 416"/></g><g transform="translate(10,-150) scale(1,1)"><path fill="none" stroke="#000000" d="M 376 416 L 683 416 L 693 426 L 693 454 L 376 454 L 376 416 L 376 416" stroke-miterlimit="10"/></g><g transform="translate(10,-150) scale(1,1)"><path fill="none" stroke="#000000" d="M 683 416 L 683 426 L 693 426 L 683 416" stroke-miterlimit="10"/></g><g transform="translate(10,-150) scale(1,1)"><g><path fill="none" stroke="none"/><text fill="#000000" stroke="none" font-family="Arial" font-size="13px" font-style="normal" font-weight="normal" text-decoration="none" x="381" y="433">包含进程创建时间，结束时间，完成进度，分配详情</text></g></g><g transform="translate(10,-150) scale(1,1)"><path fill="none" stroke="#000000" d="M 336 442 L 375 441" stroke-miterlimit="10" stroke-dasharray="3"/></g><g transform="translate(10,-150) scale(1,1)"><path fill="none" stroke="#000000" d="M 291 361 L 291 423" stroke-miterlimit="10"/></g><g transform="translate(10,-150) scale(1,1)"><path fill="none" stroke="#000000" d="M 286.790482243984 412.83732514237585 L 291 423 L 295.209517756016 412.83732514237585" stroke-miterlimit="10"/></g><g transform="translate(10,-150) scale(1,1)"><path fill="#C0C0C0" stroke="none" d="M 258 511 L 321 511 Q 324 511 324 514 L 324 513 Q 324 516 321 516 L 258 516 Q 255 516 255 513 L 255 514 Q 255 511 258 511 Z" opacity="0.2"/></g><g transform="translate(10,-150) scale(1,1)"><path fill="#000000" stroke="none" d="M 251 504 L 314 504 Q 317 504 317 507 L 317 507 Q 317 510 314 510 L 251 510 Q 248 510 248 507 L 248 507 Q 248 504 251 504 Z"/></g><g transform="translate(10,-150) scale(1,1)"><path fill="none" stroke="#000000" d="M 288 465 L 282 503" stroke-miterlimit="10"/></g><g transform="translate(10,-150) scale(1,1)"><path fill="none" stroke="#000000" d="M 279.4269911828768 492.3051589246494 L 282 503 L 287.74300266545225 493.6182133692666" stroke-miterlimit="10"/></g><g transform="translate(10,-150) scale(1,1)"><path fill="#C0C0C0" stroke="none" d="M 137 567 L 230 567 Q 240 567 240 577 L 240 597 Q 240 607 230 607 L 137 607 Q 127 607 127 597 L 127 577 Q 127 567 137 567 Z" opacity="0.2"/></g><g transform="translate(10,-150) scale(1,1)"><path fill="#ffffff" stroke="none" d="M 130 560 L 223 560 Q 233 560 233 570 L 233 590 Q 233 600 223 600 L 130 600 Q 120 600 120 590 L 120 570 Q 120 560 130 560 Z"/></g><g transform="translate(10,-150) scale(1,1)"><path fill="none" stroke="#000000" d="M 130 560 L 223 560 Q 233 560 233 570 L 233 590 Q 233 600 223 600 L 130 600 Q 120 600 120 590 L 120 570 Q 120 560 130 560 Z" stroke-miterlimit="10"/></g><g transform="translate(10,-150) scale(1,1)"><g><path fill="none" stroke="none"/><text fill="#000000" stroke="none" font-family="Arial" font-size="13px" font-style="normal" font-weight="bold" text-decoration="none" x="137.5" y="578.5">调整任务进度</text></g></g><g transform="translate(10,-150) scale(1,1)"><path fill="#C0C0C0" stroke="none" d="M 321 567 L 360 567 Q 370 567 370 577 L 370 597 Q 370 607 360 607 L 321 607 Q 311 607 311 597 L 311 577 Q 311 567 321 567 Z" opacity="0.2"/></g><g transform="translate(10,-150) scale(1,1)"><path fill="#ffffff" stroke="none" d="M 314 560 L 353 560 Q 363 560 363 570 L 363 590 Q 363 600 353 600 L 314 600 Q 304 600 304 590 L 304 570 Q 304 560 314 560 Z"/></g><g transform="translate(10,-150) scale(1,1)"><path fill="none" stroke="#000000" d="M 314 560 L 353 560 Q 363 560 363 570 L 363 590 Q 363 600 353 600 L 314 600 Q 304 600 304 590 L 304 570 Q 304 560 314 560 Z" stroke-miterlimit="10"/></g><g transform="translate(10,-150) scale(1,1)"><g><path fill="none" stroke="none"/><text fill="#000000" stroke="none" font-family="Arial" font-size="13px" font-style="normal" font-weight="bold" text-decoration="none" x="320.5" y="578.5">退出</text></g></g><g transform="translate(10,-150) scale(1,1)"><path fill="none" stroke="#000000" d="M 285 510 L 319 559" stroke-miterlimit="10"/></g><g transform="translate(10,-150) scale(1,1)"><path fill="none" stroke="#000000" d="M 309.7479568309537 553.050235534233 L 319 559 L 316.66493633554325 548.2506987351301" stroke-miterlimit="10"/></g><g transform="translate(10,-150) scale(1,1)"><path fill="#C0C0C0" stroke="none" d="M 383 667.5 C 383 660.59644 388.59644 655 395.5 655 C 402.40356 655 408 660.59644 408 667.5 C 408 674.40356 402.40356 680 395.5 680 C 388.59644 680 383 674.40356 383 667.5 Z" opacity="0.2"/></g><g transform="translate(10,-150) scale(1,1)"><path fill="#ffffff" stroke="none" d="M 376 660.5 C 376 653.59644 381.59644 648 388.5 648 C 395.40356 648 401 653.59644 401 660.5 C 401 667.40356 395.40356 673 388.5 673 C 381.59644 673 376 667.40356 376 660.5 Z"/></g><g transform="translate(10,-150) scale(1,1)"><path fill="none" stroke="#000000" d="M 376 660.5 C 376 653.59644 381.59644 648 388.5 648 C 395.40356 648 401 653.59644 401 660.5 C 401 667.40356 395.40356 673 388.5 673 C 381.59644 673 376 667.40356 376 660.5 Z" stroke-miterlimit="10"/></g><g transform="translate(10,-150) scale(1,1)"><path fill="none" stroke="#000000" d="M 379 651 L 397 669" stroke-miterlimit="10"/></g><g transform="translate(10,-150) scale(1,1)"><path fill="none" stroke="#000000" d="M 397 651 L 379 669" stroke-miterlimit="10"/></g><g transform="translate(10,-150) scale(1,1)"><path fill="none" stroke="#000000" d="M 347 601 L 379 647" stroke-miterlimit="10"/></g><g transform="translate(10,-150) scale(1,1)"><path fill="none" stroke="#000000" d="M 369.7408422607802 641.0613134482239 L 379 647 L 376.65207230662395 636.2535012424196" stroke-miterlimit="10"/></g><g transform="translate(10,-150) scale(1,1)"><path fill="none" stroke="#000000" d="M 276 510 L 206 559" stroke-miterlimit="10"/></g><g transform="translate(10,-150) scale(1,1)"><path fill="none" stroke="#000000" d="M 211.91158772021802 549.7235173354246 L 206 559 L 216.73958756222598 556.6206599668645" stroke-miterlimit="10"/></g><g transform="translate(10,-150) scale(1,1)"><path fill="#C0C0C0" stroke="none" d="M 433 567 L 500 567 Q 510 567 510 577 L 510 597 Q 510 607 500 607 L 433 607 Q 423 607 423 597 L 423 577 Q 423 567 433 567 Z" opacity="0.2"/></g><g transform="translate(10,-150) scale(1,1)"><path fill="#ffffff" stroke="none" d="M 426 560 L 493 560 Q 503 560 503 570 L 503 590 Q 503 600 493 600 L 426 600 Q 416 600 416 590 L 416 570 Q 416 560 426 560 Z"/></g><g transform="translate(10,-150) scale(1,1)"><path fill="none" stroke="#000000" d="M 426 560 L 493 560 Q 503 560 503 570 L 503 590 Q 503 600 493 600 L 426 600 Q 416 600 416 590 L 416 570 Q 416 560 426 560 Z" stroke-miterlimit="10"/></g><g transform="translate(10,-150) scale(1,1)"><g><path fill="none" stroke="none"/><text fill="#000000" stroke="none" font-family="Arial" font-size="13px" font-style="normal" font-weight="bold" text-decoration="none" x="420.5" y="578.5">切换数据形式</text></g></g><g transform="translate(10,-150) scale(1,1)"><path fill="#ffffff" stroke="none" d="M 552 560 L 755 560 L 765 570 L 765 598 L 552 598 L 552 560"/></g><g transform="translate(10,-150) scale(1,1)"><path fill="none" stroke="#000000" d="M 552 560 L 755 560 L 765 570 L 765 598 L 552 598 L 552 560 L 552 560" stroke-miterlimit="10"/></g><g transform="translate(10,-150) scale(1,1)"><path fill="none" stroke="#000000" d="M 755 560 L 755 570 L 765 570 L 755 560" stroke-miterlimit="10"/></g><g transform="translate(10,-150) scale(1,1)"><g><path fill="none" stroke="none"/><text fill="#000000" stroke="none" font-family="Arial" font-size="13px" font-style="normal" font-weight="normal" text-decoration="none" x="557" y="576">有柱状图，折线图，饼状图等形式</text></g></g><g transform="translate(10,-150) scale(1,1)"><path fill="none" stroke="#000000" d="M 504 580 L 551 580" stroke-miterlimit="10" stroke-dasharray="3"/></g><g transform="translate(10,-150) scale(1,1)"><path fill="none" stroke="#000000" d="M 292 510 L 415 562" stroke-miterlimit="10"/></g><g transform="translate(10,-150) scale(1,1)"><path fill="none" stroke="#000000" d="M 404.0002911955636 561.919961149406 L 415 562 L 407.278627327319 554.1654352992923" stroke-miterlimit="10"/></g><g transform="translate(10,-150) scale(1,1)"><path fill="#C0C0C0" stroke="none" d="M 17 655 L 149 655 Q 159 655 159 665 L 159 685 Q 159 695 149 695 L 17 695 Q 7 695 7 685 L 7 665 Q 7 655 17 655 Z" opacity="0.2"/></g><g transform="translate(10,-150) scale(1,1)"><path fill="#ffffff" stroke="none" d="M 10 648 L 142 648 Q 152 648 152 658 L 152 678 Q 152 688 142 688 L 10 688 Q 0 688 0 678 L 0 658 Q 0 648 10 648 Z"/></g><g transform="translate(10,-150) scale(1,1)"><path fill="none" stroke="#000000" d="M 10 648 L 142 648 Q 152 648 152 658 L 152 678 Q 152 688 142 688 L 10 688 Q 0 688 0 678 L 0 658 Q 0 648 10 648 Z" stroke-miterlimit="10"/></g><g transform="translate(10,-150) scale(1,1)"><g><path fill="none" stroke="none"/><text fill="#000000" stroke="none" font-family="Arial" font-size="13px" font-style="normal" font-weight="bold" text-decoration="none" x="37" y="667">修改任务情况</text></g></g><g transform="translate(10,-150) scale(1,1)"><path fill="#C0C0C0" stroke="none" d="M 281 655 L 322 655 Q 332 655 332 665 L 332 685 Q 332 695 322 695 L 281 695 Q 271 695 271 685 L 271 665 Q 271 655 281 655 Z" opacity="0.2"/></g><g transform="translate(10,-150) scale(1,1)"><path fill="#ffffff" stroke="none" d="M 274 648 L 315 648 Q 325 648 325 658 L 325 678 Q 325 688 315 688 L 274 688 Q 264 688 264 678 L 264 658 Q 264 648 274 648 Z"/></g><g transform="translate(10,-150) scale(1,1)"><path fill="none" stroke="#000000" d="M 274 648 L 315 648 Q 325 648 325 658 L 325 678 Q 325 688 315 688 L 274 688 Q 264 688 264 678 L 264 658 Q 264 648 274 648 Z" stroke-miterlimit="10"/></g><g transform="translate(10,-150) scale(1,1)"><g><path fill="none" stroke="none"/><text fill="#000000" stroke="none" font-family="Arial" font-size="13px" font-style="normal" font-weight="bold" text-decoration="none" x="268.5" y="666.5">删除任务</text></g></g><g transform="translate(10,-150) scale(1,1)"><path fill="#C0C0C0" stroke="none" d="M 169 655 L 236 655 Q 246 655 246 665 L 246 685 Q 246 695 236 695 L 169 695 Q 159 695 159 685 L 159 665 Q 159 655 169 655 Z" opacity="0.2"/></g><g transform="translate(10,-150) scale(1,1)"><path fill="#ffffff" stroke="none" d="M 162 648 L 229 648 Q 239 648 239 658 L 239 678 Q 239 688 229 688 L 162 688 Q 152 688 152 678 L 152 658 Q 152 648 162 648 Z"/></g><g transform="translate(10,-150) scale(1,1)"><path fill="none" stroke="#000000" d="M 162 648 L 229 648 Q 239 648 239 658 L 239 678 Q 239 688 229 688 L 162 688 Q 152 688 152 678 L 152 658 Q 152 648 162 648 Z" stroke-miterlimit="10"/></g><g transform="translate(10,-150) scale(1,1)"><g><path fill="none" stroke="none"/><text fill="#000000" stroke="none" font-family="Arial" font-size="13px" font-style="normal" font-weight="bold" text-decoration="none" x="156.5" y="666.5">分配任务时间</text></g></g><g transform="translate(10,-150) scale(1,1)"><path fill="none" stroke="#000000" d="M 152 601 L 100 647" stroke-miterlimit="10"/></g><g transform="translate(10,-150) scale(1,1)"><path fill="none" stroke="#000000" d="M 104.82269201226181 637.1135627370187 L 100 647 L 110.40092505587401 643.419391395015" stroke-miterlimit="10"/></g><g transform="translate(10,-150) scale(1,1)"><path fill="none" stroke="#000000" d="M 181 601 L 190 647" stroke-miterlimit="10"/></g><g transform="translate(10,-150) scale(1,1)"><path fill="none" stroke="#000000" d="M 183.91745866915554 637.8347018074386 L 190 647 L 192.1798382816694 636.2181492745555" stroke-miterlimit="10"/></g><g transform="translate(10,-150) scale(1,1)"><path fill="none" stroke="#000000" d="M 204 601 L 266 647" stroke-miterlimit="10"/></g><g transform="translate(10,-150) scale(1,1)"><path fill="none" stroke="#000000" d="M 255.3301476530851 644.3252568543812 L 266 647 L 260.34660406743654 637.563946035038" stroke-miterlimit="10"/></g><g transform="translate(10,-150) scale(1,1)"><path fill="#C0C0C0" stroke="none" d="M 185 751 L 224 751 Q 234 751 234 761 L 234 781 Q 234 791 224 791 L 185 791 Q 175 791 175 781 L 175 761 Q 175 751 185 751 Z" opacity="0.2"/></g><g transform="translate(10,-150) scale(1,1)"><path fill="#ffffff" stroke="none" d="M 178 744 L 217 744 Q 227 744 227 754 L 227 774 Q 227 784 217 784 L 178 784 Q 168 784 168 774 L 168 754 Q 168 744 178 744 Z"/></g><g transform="translate(10,-150) scale(1,1)"><path fill="none" stroke="#000000" d="M 178 744 L 217 744 Q 227 744 227 754 L 227 774 Q 227 784 217 784 L 178 784 Q 168 784 168 774 L 168 754 Q 168 744 178 744 Z" stroke-miterlimit="10"/></g><g transform="translate(10,-150) scale(1,1)"><g><path fill="none" stroke="none"/><text fill="#000000" stroke="none" font-family="Arial" font-size="13px" font-style="normal" font-weight="bold" text-decoration="none" x="184.5" y="762.5">确认</text></g></g><g transform="translate(10,-150) scale(1,1)"><path fill="none" stroke="#000000" d="M 102 689 L 171 743" stroke-miterlimit="10"/></g><g transform="translate(10,-150) scale(1,1)"><path fill="none" stroke="#000000" d="M 160.40248215537775 740.0516758093939 L 171 743 L 165.59120329663608 733.4216432400083" stroke-miterlimit="10"/></g><g transform="translate(10,-150) scale(1,1)"><path fill="none" stroke="#000000" d="M 195 689 L 197 743" stroke-miterlimit="10"/></g><g transform="translate(10,-150) scale(1,1)"><path fill="none" stroke="#000000" d="M 192.41722899170594 733.0000895061236 L 197 743 L 200.83049606488868 732.6884870219317" stroke-miterlimit="10"/></g><g transform="translate(10,-150) scale(1,1)"><path fill="none" stroke="#000000" d="M 273 689 L 218 743" stroke-miterlimit="10"/></g><g transform="translate(10,-150) scale(1,1)"><path fill="none" stroke="#000000" d="M 222.30257223952972 732.8763706051817 L 218 743 L 228.20086500241192 738.883891011821" stroke-miterlimit="10"/></g><g transform="translate(10,-150) scale(1,1)"><path fill="#C0C0C0" stroke="none" d="M 370 935 L 433 935 Q 436 935 436 938 L 436 937 Q 436 940 433 940 L 370 940 Q 367 940 367 937 L 367 938 Q 367 935 370 935 Z" opacity="0.2"/></g><g transform="translate(10,-150) scale(1,1)"><path fill="#000000" stroke="none" d="M 363 928 L 426 928 Q 429 928 429 931 L 429 931 Q 429 934 426 934 L 363 934 Q 360 934 360 931 L 360 931 Q 360 928 363 928 Z"/></g><g transform="translate(10,-150) scale(1,1)"><path fill="none" stroke="#000000" d="M 222 785 L 390 927" stroke-miterlimit="10"/></g><g transform="translate(10,-150) scale(1,1)"><path fill="none" stroke="#000000" d="M 379.521060434489 923.654581404014 L 390 927 L 384.9558389487124 917.2247025984539" stroke-miterlimit="10"/></g><g transform="translate(10,-150) scale(1,1)"><path fill="none" stroke="#000000" d="M 455 601 L 395 927" stroke-miterlimit="10"/></g><g transform="translate(10,-150) scale(1,1)"><path fill="none" stroke="#000000" d="M 392.69955148527805 916.2432376324884 L 395 927 L 400.9795168691493 917.7671576417898" stroke-miterlimit="10"/></g><g transform="translate(10,-150) scale(1,1)"><path fill="#C0C0C0" stroke="none" d="M 399 1003.5 C 399 996.59644 404.59644 991 411.5 991 C 418.40356 991 424 996.59644 424 1003.5 C 424 1010.40356 418.40356 1016 411.5 1016 C 404.59644 1016 399 1010.40356 399 1003.5 Z" opacity="0.2"/></g><g transform="translate(10,-150) scale(1,1)"><path fill="none" stroke="#000000" d="M 392 996.5 C 392 989.59644 397.59644 984 404.5 984 C 411.40356 984 417 989.59644 417 996.5 C 417 1003.40356 411.40356 1009 404.5 1009 C 397.59644 1009 392 1003.40356 392 996.5 Z" stroke-miterlimit="10"/></g><g transform="translate(10,-150) scale(1,1)"><path fill="#000000" stroke="none" d="M 397 996.5 C 397 992.357864 400.357864 989 404.5 989 C 408.642136 989 412 992.357864 412 996.5 C 412 1000.642136 408.642136 1004 404.5 1004 C 400.357864 1004 397 1000.642136 397 996.5 Z"/></g><g transform="translate(10,-150) scale(1,1)"><path fill="none" stroke="#000000" d="M 395 934 L 402 983" stroke-miterlimit="10"/></g><g transform="translate(10,-150) scale(1,1)"><path fill="none" stroke="#000000" d="M 396.39557076751026 973.5347808806127 L 402 983 L 404.7299907097617 972.3441494602911" stroke-miterlimit="10"/></g></g></svg>